<svg width="50" height="50" viewBox="0 0 50 50" fill="none" xmlns="http://www.w3.org/2000/svg">
<circle cx="25" cy="25" r="25" fill="white"/>
<path d="M26.4231 36.9999C26.1564 37.0008 25.8928 36.9419 25.6518 36.8276C25.4108 36.7133 25.1984 36.5464 25.0304 36.3392L16.4062 25.626C16.1436 25.3065 16 24.9057 16 24.4921C16 24.0786 16.1436 23.6778 16.4062 23.3583L25.3339 12.645C25.637 12.2804 26.0725 12.0511 26.5447 12.0076C27.0168 11.964 27.4869 12.1098 27.8515 12.4129C28.2162 12.716 28.4455 13.1515 28.489 13.6236C28.5325 14.0958 28.3867 14.5659 28.0837 14.9305L20.1023 24.5011L27.8158 34.0716C28.0342 34.3337 28.1729 34.6528 28.2155 34.9913C28.2581 35.3297 28.2029 35.6733 28.0564 35.9814C27.9099 36.2894 27.6782 36.5491 27.3888 36.7296C27.0993 36.9101 26.7642 37.0039 26.4231 36.9999Z" fill="#7735C3"/>
</svg>
