<svg width="207" height="200" viewBox="0 0 207 200" fill="none" xmlns="http://www.w3.org/2000/svg">
<path d="M81.9259 15.487H0.000701904V151.38H81.9259V15.487Z" fill="#EBEBEB"/>
<path d="M75.7781 22.2528H6.15318V109.104H75.7781V22.2528Z" fill="white"/>
<path d="M9.95519 165.052H5.2074V151.38H13.6542L9.95519 165.052Z" fill="#EBEBEB"/>
<path d="M13.6542 151.375L12.2916 156.418H5.2074V151.375H13.6542Z" fill="#C7C7C7"/>
<path d="M71.9761 165.052H76.7239V151.38H68.2772L71.9761 165.052Z" fill="#EBEBEB"/>
<path d="M68.2772 151.375L69.6444 156.418H76.7239V151.375H68.2772Z" fill="#C7C7C7"/>
<path d="M75.7781 114.685C70.4716 114.769 65.165 114.824 59.8585 114.849C54.5582 114.9 49.2579 114.891 43.9389 114.91L44.1636 114.685C44.1636 116.928 44.1636 119.171 44.1636 121.413L44.1543 128.137C44.1074 132.623 44.0653 137.108 43.9623 141.594C43.8546 137.108 43.8124 132.623 43.7656 128.137V121.413C43.7656 119.171 43.7656 116.928 43.7656 114.685V114.451H43.9904C49.2907 114.451 54.591 114.451 59.91 114.512C65.229 114.573 70.4778 114.601 75.7781 114.685Z" fill="#C7C7C7"/>
<path d="M43.9763 145.433C49.2829 145.349 54.5894 145.293 59.896 145.265C65.1963 145.213 70.4966 145.227 75.8156 145.209L75.5908 145.433C75.5908 143.233 75.5908 141.037 75.5908 138.836L75.6189 132.234C75.6611 127.837 75.7032 123.436 75.8062 119.039C75.9139 123.436 75.9561 127.837 75.9982 132.234L76.0263 138.836C76.0263 141.037 76.0497 143.233 76.0263 145.433V145.663H75.8015C70.5012 145.639 65.2009 145.663 59.8819 145.602C54.5629 145.541 49.2766 145.522 43.9763 145.433Z" fill="#C7C7C7"/>
<path d="M46.973 133.47H48.9957V125.707H46.973V133.47Z" fill="#C7C7C7"/>
<path d="M6.15318 114.685C11.4597 114.601 16.7663 114.546 22.0728 114.521C27.3731 114.47 32.6734 114.479 37.9924 114.46H38.2172V114.685C38.2172 116.928 38.2172 119.171 38.2172 121.413V128.137C38.1703 132.623 38.1282 137.108 38.0205 141.594C37.9175 137.108 37.8754 132.623 37.8285 128.137V121.413C37.8285 119.171 37.8285 116.928 37.8285 114.685L38.0533 114.91C32.753 114.91 27.4527 114.91 22.1337 114.849C16.8146 114.788 11.4535 114.769 6.15318 114.685Z" fill="#C7C7C7"/>
<path d="M37.955 145.433C32.6547 145.522 27.3544 145.569 22.0353 145.602C16.7163 145.635 11.4347 145.639 6.11571 145.663H5.89096V145.433C5.89096 143.233 5.89096 141.037 5.89096 138.836L5.91905 132.234C5.96119 127.837 6.00334 123.436 6.11103 119.039C6.21404 123.436 6.25618 127.837 6.29832 132.234L6.32641 138.836C6.32641 141.037 6.34982 143.233 6.32641 145.433L6.10166 145.209C11.402 145.209 16.7023 145.209 22.0213 145.265C27.3403 145.321 32.6547 145.354 37.955 145.433Z" fill="#C7C7C7"/>
<path d="M34.9584 125.702H32.9356V133.465H34.9584V125.702Z" fill="#C7C7C7"/>
<path d="M75.7781 20.1552H6.15318V22.2528H75.7781V20.1552Z" fill="#EBEBEB"/>
<path d="M75.7781 49.8031H6.15318V51.9007H75.7781V49.8031Z" fill="#EBEBEB"/>
<path d="M75.7781 79.4511H6.15318V81.5487H75.7781V79.4511Z" fill="#EBEBEB"/>
<path d="M19.1932 49.7985V26.1906H12.0294L12.0294 49.7985H19.1932Z" fill="#C7C7C7"/>
<path d="M19.1932 43.1075V40.5136H12.0294V43.1075H19.1932Z" fill="#DBDBDB"/>
<path d="M19.1932 31.8092V30.8447H12.0294V31.8092H19.1932Z" fill="#DBDBDB"/>
<path d="M65.5943 26.1953V49.8032H72.7581V26.1953H65.5943Z" fill="#C7C7C7"/>
<path d="M65.5943 32.8862V35.4801H72.7581V32.8862H65.5943Z" fill="#DBDBDB"/>
<path d="M72.7627 48.3938V47.4292H65.5989V48.3938H72.7627Z" fill="#DBDBDB"/>
<path d="M72.7581 43.9597V42.9951H65.5942V43.9597H72.7581Z" fill="#DBDBDB"/>
<path d="M52.6947 49.7985V26.1906H47.2586V49.7985H52.6947Z" fill="#C7C7C7"/>
<path d="M52.6993 43.1075V40.5136H47.2632V43.1075H52.6993Z" fill="#DBDBDB"/>
<path d="M52.6993 31.8139V30.8494H47.2632V31.8139H52.6993Z" fill="#DBDBDB"/>
<path d="M24.2032 49.7985V22.2575H19.1932V49.7985H24.2032Z" fill="#DBDBDB"/>
<path d="M23.1778 35.438V24.8468H20.1718V35.438H23.1778Z" fill="#EBEBEB"/>
<path d="M72.7628 23.901V49.7985H75.7828V23.901H72.7628Z" fill="#A6A6A6"/>
<path d="M73.3761 25.6942V35.6534H75.1882V25.6942H73.3761Z" fill="#EBEBEB"/>
<path d="M52.6993 24.6174V49.7985H57.7093V24.6174H52.6993Z" fill="#DBDBDB"/>
<path d="M53.7247 37.7511V47.434H56.7307V37.7511H53.7247Z" fill="#EBEBEB"/>
<path d="M32.7015 49.8032V28.8829H24.1986V49.8032H32.7015Z" fill="#A6A6A6"/>
<path d="M32.7015 47.5838V45.636H24.1986V47.5838H32.7015Z" fill="#C7C7C7"/>
<path d="M32.7015 44.353V43.5992H24.1986V44.353H32.7015Z" fill="#C7C7C7"/>
<path d="M12.0294 49.8078L12.0294 30.1471H6.15317L6.15317 49.8078H12.0294Z" fill="#A6A6A6"/>
<path d="M12.0294 47.7149V45.8841H6.15317V47.7149H12.0294Z" fill="#C7C7C7"/>
<path d="M12.0294 36.0234V34.1926H6.15317V36.0234H12.0294Z" fill="#C7C7C7"/>
<path d="M12.0247 37.9945V37.2828H6.14851V37.9945H12.0247Z" fill="#C7C7C7"/>
<path d="M65.5943 49.8031V22.2575H57.7047V49.8031H65.5943Z" fill="#A6A6A6"/>
<path d="M65.5943 46.8814V44.3156H57.7047V46.8814H65.5943Z" fill="#C7C7C7"/>
<path d="M65.5943 30.5029V27.937H57.7047V30.5029H65.5943Z" fill="#C7C7C7"/>
<path d="M65.5943 33.2607V32.2634H57.7047V33.2607H65.5943Z" fill="#C7C7C7"/>
<path d="M47.2444 48.8817L39.8067 26.3922L37.0195 27.314L44.4571 49.8035L47.2444 48.8817Z" fill="#A6A6A6"/>
<path d="M46.461 46.4975L45.7671 44.3992L42.9798 45.321L43.6738 47.4193L46.461 46.4975Z" fill="#C7C7C7"/>
<path d="M42.0356 33.1251L41.3416 31.0269L38.5544 31.9487L39.2483 34.0469L42.0356 33.1251Z" fill="#C7C7C7"/>
<path d="M32.7062 23.3063V49.8031H37.0232V23.3063H32.7062Z" fill="#C7C7C7"/>
<path d="M32.7062 26.1156V28.5832H37.0232V26.1156H32.7062Z" fill="#EBEBEB"/>
<path d="M32.7015 41.8761V44.3436H37.0185V41.8761H32.7015Z" fill="#EBEBEB"/>
<path d="M32.7062 39.2213V40.1812H37.0232V39.2213H32.7062Z" fill="#EBEBEB"/>
<path d="M59.6619 79.4464V55.8386H52.498V79.4464H59.6619Z" fill="#C7C7C7"/>
<path d="M59.6619 72.7555V70.1615H52.498V72.7555H59.6619Z" fill="#DBDBDB"/>
<path d="M59.6619 61.4572V60.4927H52.498V61.4572H59.6619Z" fill="#DBDBDB"/>
<path d="M9.16858 55.8386L9.16858 79.4465H16.3324V55.8386H9.16858Z" fill="#C7C7C7"/>
<path d="M9.1732 62.5295V65.1235H16.337V62.5295H9.1732Z" fill="#DBDBDB"/>
<path d="M16.3371 78.0418V77.0772H9.17322V78.0418H16.3371Z" fill="#DBDBDB"/>
<path d="M16.3371 73.6029V72.6384H9.17322V73.6029H16.3371Z" fill="#DBDBDB"/>
<path d="M34.668 79.4417V55.8339H29.232V79.4417H34.668Z" fill="#C7C7C7"/>
<path d="M34.668 72.7555V70.1615H29.232V72.7555H34.668Z" fill="#DBDBDB"/>
<path d="M34.668 61.4572V60.4927H29.232V61.4572H34.668Z" fill="#DBDBDB"/>
<path d="M52.4933 79.4464V51.9055H47.4833V79.4464H52.4933Z" fill="#DBDBDB"/>
<path d="M51.5147 65.0813V54.4901H48.5087V65.0813H51.5147Z" fill="#EBEBEB"/>
<path d="M6.15318 59.2847L6.15318 79.4417H9.17323L9.17323 59.2847H6.15318Z" fill="#A6A6A6"/>
<path d="M6.73846 60.6753L6.73846 68.4291H8.55049V60.6753H6.73846Z" fill="#EBEBEB"/>
<path d="M24.2266 54.2606V79.4417H29.2366V54.2606H24.2266Z" fill="#DBDBDB"/>
<path d="M25.2052 67.3944V77.0772H28.2112V67.3944H25.2052Z" fill="#EBEBEB"/>
<path d="M47.488 79.451V58.5308H38.9851V79.451H47.488Z" fill="#A6A6A6"/>
<path d="M47.488 77.227V75.2791H38.9851V77.227H47.488Z" fill="#C7C7C7"/>
<path d="M47.4927 74.001V73.2472H38.9898V74.001H47.4927Z" fill="#C7C7C7"/>
<path d="M75.7781 79.4465V54.2607H69.9019V79.4465H75.7781Z" fill="#A6A6A6"/>
<path d="M75.7828 76.7775V74.4317H69.9066V76.7775H75.7828Z" fill="#C7C7C7"/>
<path d="M75.7781 61.799V59.4532H69.9019V61.799H75.7781Z" fill="#C7C7C7"/>
<path d="M75.7781 64.3227V63.4144H69.9019V64.3227H75.7781Z" fill="#C7C7C7"/>
<path d="M24.2266 79.4511V51.9055H16.3371V79.4511H24.2266Z" fill="#A6A6A6"/>
<path d="M24.2266 76.5247V73.9588H16.337V76.5247H24.2266Z" fill="#C7C7C7"/>
<path d="M24.2266 60.1462V57.5803H16.337V60.1462H24.2266Z" fill="#C7C7C7"/>
<path d="M24.2266 62.9041V61.9068H16.337V62.9041H24.2266Z" fill="#C7C7C7"/>
<path d="M62.4532 79.4505L69.8909 56.961L67.1036 56.0392L59.666 78.5287L62.4532 79.4505Z" fill="#DBDBDB"/>
<path d="M63.243 77.0726L63.9369 74.9743L61.1496 74.0525L60.4557 76.1508L63.243 77.0726Z" fill="#C7C7C7"/>
<path d="M67.6637 63.6955L68.3577 61.5973L65.5704 60.6755L64.8764 62.7737L67.6637 63.6955Z" fill="#C7C7C7"/>
<path d="M34.668 52.9497V79.4465H38.9851V52.9497H34.668Z" fill="#DBDBDB"/>
<path d="M34.668 55.7636V58.2312H38.9851V55.7636H34.668Z" fill="#EBEBEB"/>
<path d="M34.668 71.5241V73.9916H38.9851V71.5241H34.668Z" fill="#EBEBEB"/>
<path d="M34.668 68.8646V69.8244H38.9851V68.8646H34.668Z" fill="#EBEBEB"/>
<path d="M16.5946 109.099V85.4912H11.1585L11.1585 109.099H16.5946Z" fill="#C7C7C7"/>
<path d="M16.5946 102.413V99.8188H11.1585V102.413H16.5946Z" fill="#DBDBDB"/>
<path d="M16.5946 91.1145V90.15H11.1585V91.1145H16.5946Z" fill="#DBDBDB"/>
<path d="M11.1585 109.104L11.1585 81.5628H6.14851L6.14851 109.104H11.1585Z" fill="#DBDBDB"/>
<path d="M10.1799 94.7386V84.1474H7.17392V94.7386H10.1799Z" fill="#EBEBEB"/>
<path d="M16.5946 88.1834V109.104H25.0975V88.1834H16.5946Z" fill="#A6A6A6"/>
<path d="M16.5946 90.4029V92.3507H25.0975V90.4029H16.5946Z" fill="#C7C7C7"/>
<path d="M16.5946 93.6336V94.3874H25.0975V93.6336H16.5946Z" fill="#C7C7C7"/>
<path d="M70.8945 109.099V85.4912H66.4839V109.099H70.8945Z" fill="#C7C7C7"/>
<path d="M70.8945 102.408V99.8141H66.4839V102.408H70.8945Z" fill="#DBDBDB"/>
<path d="M70.8945 91.1099V90.1454H66.4839V91.1099H70.8945Z" fill="#DBDBDB"/>
<path d="M25.1022 83.4356V109.104H30.8052V83.4356H25.1022Z" fill="#C7C7C7"/>
<path d="M25.0975 90.7072V93.5259H30.8005V90.7072H25.0975Z" fill="#DBDBDB"/>
<path d="M30.8005 107.568V106.519H25.0976V107.568H30.8005Z" fill="#DBDBDB"/>
<path d="M30.8052 102.745V101.696H25.1022V102.745H30.8052Z" fill="#DBDBDB"/>
<path d="M44.2526 109.094V82.4665H38.8165V109.094H44.2526Z" fill="#C7C7C7"/>
<path d="M44.2526 101.547V98.6202H38.8165V101.547H44.2526Z" fill="#DBDBDB"/>
<path d="M44.2526 88.8063V87.72H38.8165V88.8063H44.2526Z" fill="#DBDBDB"/>
<path d="M33.6941 109.094V82.6023H30.8005V109.094H33.6941Z" fill="#DBDBDB"/>
<path d="M33.1276 95.2864V85.0979H31.3905V95.2864H33.1276Z" fill="#EBEBEB"/>
<path d="M57.0773 83.918V109.099H66.4839V83.918H57.0773Z" fill="#DBDBDB"/>
<path d="M58.9174 97.047V106.73H64.5595V97.047H58.9174Z" fill="#EBEBEB"/>
<path d="M57.0773 109.099V86.6009H48.5743V109.099H57.0773Z" fill="#A6A6A6"/>
<path d="M57.0772 106.716V104.618H48.5743V106.716H57.0772Z" fill="#C7C7C7"/>
<path d="M57.0773 103.246V102.432H48.5743V103.246H57.0773Z" fill="#C7C7C7"/>
<path d="M75.7828 109.099V83.9133H70.8992V109.099H75.7828Z" fill="#A6A6A6"/>
<path d="M75.7781 106.43V104.084H70.8945V106.43H75.7781Z" fill="#C7C7C7"/>
<path d="M75.7828 91.4517V89.1059H70.8992V91.4517H75.7828Z" fill="#C7C7C7"/>
<path d="M75.7781 93.9707V93.0624H70.8945V93.9707H75.7781Z" fill="#C7C7C7"/>
<path d="M38.8212 109.099V85.2477H33.6941V109.099H38.8212Z" fill="#A6A6A6"/>
<path d="M38.8165 106.575V104.351H33.6894V106.575H38.8165Z" fill="#C7C7C7"/>
<path d="M38.8165 92.3928V90.1688H33.6894V92.3928H38.8165Z" fill="#C7C7C7"/>
<path d="M38.8212 94.7714V93.9099H33.6941V94.7714H38.8212Z" fill="#C7C7C7"/>
<path d="M44.2526 83.7494V109.099H48.5696V83.7494H44.2526Z" fill="#DBDBDB"/>
<path d="M44.2573 86.4369V88.8015H48.5743V86.4369H44.2573Z" fill="#EBEBEB"/>
<path d="M44.2526 101.514V103.878H48.5696V101.514H44.2526Z" fill="#EBEBEB"/>
<path d="M44.2526 98.9761V99.8938H48.5696V98.9761H44.2526Z" fill="#EBEBEB"/>
<path d="M144.275 152.578H204.259L206.188 114.516H142.346L144.275 152.578Z" fill="#EBEBEB"/>
<path d="M199.862 131.939H147.037L146.307 118.726H200.71L199.862 131.939ZM147.482 131.471H199.422L200.213 119.194H146.803L147.482 131.471Z" fill="#DBDBDB"/>
<path d="M199.136 147.138H148.568L147.978 135.212H199.895L199.136 147.138ZM148.99 146.669H198.706L199.394 135.68H148.456L148.99 146.669Z" fill="#DBDBDB"/>
<path d="M179.527 126.765H168.327L167.915 123.576H179.939L179.527 126.765ZM168.758 126.297H179.134L179.424 124.045H168.468L168.758 126.297Z" fill="#DBDBDB"/>
<path d="M179.527 142.769H168.327L167.915 139.58H179.939L179.527 142.769ZM168.758 142.301H179.134L179.424 140.049H168.468L168.758 142.301Z" fill="#DBDBDB"/>
<path d="M152.595 152.578L152.014 156.722L150.839 165.052H148.549V152.578H152.595Z" fill="#EBEBEB"/>
<path d="M152.595 152.578L152.014 156.722H148.549V152.578H152.595Z" fill="#DBDBDB"/>
<path d="M195.943 152.578L196.524 156.722L197.694 165.052H199.984V152.578H195.943Z" fill="#EBEBEB"/>
<path d="M195.943 152.578L196.524 156.722H199.984V152.578H195.943Z" fill="#DBDBDB"/>
<path d="M201.464 96.2978H177.856V100.708H201.464V96.2978Z" fill="#C7C7C7"/>
<path d="M194.773 96.2978H192.179V100.708H194.773V96.2978Z" fill="#DBDBDB"/>
<path d="M183.479 96.2978H182.514V100.708H183.479V96.2978Z" fill="#DBDBDB"/>
<path d="M202.255 91.4095H172.368V96.2931H202.255V91.4095Z" fill="#A6A6A6"/>
<path d="M199.085 91.4095H196.299V96.2931H199.085V91.4095Z" fill="#C7C7C7"/>
<path d="M181.311 91.4095H178.525V96.2931H181.311V91.4095Z" fill="#C7C7C7"/>
<path d="M184.303 91.4095H183.221V96.2931H184.303V91.4095Z" fill="#C7C7C7"/>
<path d="M178.23 108.327H203.58V104.009H178.23V108.327Z" fill="#A6A6A6"/>
<path d="M180.918 108.327H183.282V104.009H180.918V108.327Z" fill="#EBEBEB"/>
<path d="M195.99 108.327H198.355V104.009H195.99V108.327Z" fill="#EBEBEB"/>
<path d="M193.457 108.327H194.375V104.009H193.457V108.327Z" fill="#EBEBEB"/>
<path d="M202.297 108.327H170.935V114.516H202.297V108.327Z" fill="#C7C7C7"/>
<path d="M190.91 108.968H170.935V113.875H190.91V108.968Z" fill="white"/>
<path d="M172.228 109.975C173.788 109.943 175.349 109.92 176.91 109.904L181.592 109.881L186.274 109.904C187.834 109.904 189.388 109.942 190.957 109.975C189.397 110.012 187.843 110.035 186.274 110.05H181.592H176.91C175.346 110.034 173.785 110.009 172.228 109.975Z" fill="#DBDBDB"/>
<path d="M172.228 110.939C173.787 110.906 175.341 110.878 176.91 110.864H181.592H186.274C187.834 110.864 189.388 110.902 190.957 110.939C189.397 110.972 187.843 111 186.274 111.009L181.592 111.033L176.91 111.009C175.341 111 173.787 110.972 172.228 110.939Z" fill="#DBDBDB"/>
<path d="M172.228 111.899C173.788 111.868 175.349 111.844 176.91 111.829H181.592H186.274C187.834 111.829 189.388 111.866 190.957 111.899C189.397 111.936 187.843 111.96 186.274 111.974L181.592 111.997L176.91 111.974C175.346 111.961 173.785 111.936 172.228 111.899Z" fill="#DBDBDB"/>
<path d="M172.228 112.864C173.787 112.831 175.341 112.803 176.91 112.793H181.592H186.274C187.834 112.793 189.388 112.835 190.957 112.868C189.397 112.901 187.843 112.929 186.274 112.943H181.592L176.91 112.92C175.341 112.924 173.787 112.896 172.228 112.864Z" fill="#DBDBDB"/>
<path d="M199.764 100.708H171.282V104.009H199.764V100.708Z" fill="#EBEBEB"/>
<path d="M183.034 103.668H199.769V101.05H183.034V103.668Z" fill="white"/>
<path d="M198.668 103.129C197.367 103.129 196.06 103.153 194.759 103.157H190.844H186.935C185.628 103.157 184.327 103.157 183.02 103.129C184.327 103.129 185.628 103.106 186.935 103.101H190.844H194.759C196.074 103.106 197.381 103.115 198.668 103.129Z" fill="#DBDBDB"/>
<path d="M198.668 102.614C197.367 102.614 196.06 102.614 194.759 102.642H190.844H186.935C185.628 102.642 184.327 102.642 183.02 102.614C184.327 102.614 185.628 102.591 186.935 102.586H194.759L198.668 102.614Z" fill="#DBDBDB"/>
<path d="M198.668 102.104C197.367 102.104 196.06 102.127 194.759 102.132H190.844H186.935C185.628 102.132 184.327 102.132 183.02 102.104C184.327 102.104 185.628 102.08 186.935 102.076H190.844H194.759C196.074 102.08 197.381 102.09 198.668 102.104Z" fill="#DBDBDB"/>
<path d="M198.668 101.589C197.367 101.589 196.06 101.612 194.759 101.617H190.844H186.935C185.628 101.617 184.327 101.617 183.02 101.589C184.327 101.589 185.628 101.565 186.935 101.561H190.844H194.759C196.074 101.565 197.381 101.575 198.668 101.589Z" fill="#DBDBDB"/>
<path d="M146.574 50.1824H162.133V34.6233H146.574V50.1824Z" fill="#DBDBDB"/>
<path d="M148.985 47.771H159.721V37.0346H148.985V47.771Z" fill="white"/>
<path d="M159.717 37.0347V47.771H148.98L159.717 37.0347Z" fill="#EBEBEB"/>
<path d="M146.574 31.0507L162.133 31.0507V15.4916L146.574 15.4916V31.0507Z" fill="#DBDBDB"/>
<path d="M148.985 28.6348H159.721V17.8984H148.985V28.6348Z" fill="white"/>
<path d="M159.717 21.0541V28.6347H152.136L159.717 21.0541Z" fill="#EBEBEB"/>
<path d="M122.512 50.3134H142.847V15.4916H122.512V50.3134Z" fill="#DBDBDB"/>
<path d="M125.026 47.771H140.332V18.0294L125.026 18.0294V47.771Z" fill="white"/>
<path d="M140.332 28.2742V47.771H130.298L140.332 28.2742Z" fill="#EBEBEB"/>
<path d="M165.761 50.3134L200.583 50.3134V15.4916L165.761 15.4916V50.3134Z" fill="#DBDBDB"/>
<path d="M198.041 18.0294H168.304V47.771H198.041V18.0294Z" fill="white"/>
<path d="M176.629 47.771C181.124 43.248 193.874 30.4468 198.041 26.3217V47.771H176.629Z" fill="#EBEBEB"/>
<path d="M0.000701904 165.052L25.7905 164.939L51.5756 164.897L103.15 164.822L154.725 164.897L180.51 164.939L206.3 165.052L180.51 165.169L154.725 165.211L103.15 165.286L51.5756 165.211L25.7905 165.169L0.000701904 165.052Z" fill="#263238"/>
<path d="M103.15 200C155.973 200 198.795 194.669 198.795 188.093C198.795 181.517 155.973 176.186 103.15 176.186C50.3277 176.186 7.50632 181.517 7.50632 188.093C7.50632 194.669 50.3277 200 103.15 200Z" fill="#EBEBEB"/>
<path d="M79.0462 159.382H175.365V140.376H79.0462V159.382Z" fill="#3E3E3E"/>
<path d="M157.385 159.382H166.796V140.376H157.385V159.382Z" fill="#37474F"/>
<path d="M149.964 159.382H153.892V140.376H149.964V159.382Z" fill="#37474F"/>
<path d="M87.802 159.382H97.2133V140.376H87.802V159.382Z" fill="#37474F"/>
<path d="M63.5976 92.0607L38.8635 185.149L52.5161 188.777L77.2502 95.6883L63.5976 92.0607Z" fill="#37474F"/>
<path d="M43.478 167.77L41.0612 176.866L54.7138 180.494L57.1306 171.398L43.478 167.77Z" fill="#3E3E3E"/>
<path d="M61.3492 100.528L58.9324 109.624L72.585 113.252L75.0018 104.156L61.3492 100.528Z" fill="#3E3E3E"/>
<path d="M58.6598 188.374H170.214V178.874H58.6598V188.374Z" fill="#3E3E3E"/>
<path d="M140.796 188.374H145.342V178.874H140.796V188.374Z" fill="#A6A6A6"/>
<path d="M148.348 188.374H152.895V178.874H148.348V188.374Z" fill="#A6A6A6"/>
<path d="M69.7895 188.374H74.3359V178.874H69.7895V188.374Z" fill="#A6A6A6"/>
<path d="M77.3373 188.374H81.8837V178.874H77.3373V188.374Z" fill="#A6A6A6"/>
<path d="M135.992 126.199H69.1761V140.376H135.992V126.199Z" fill="#455A64"/>
<path d="M174.077 126.199H135.987V140.376H174.077V126.199Z" fill="#455A64"/>
<path d="M135.992 127.669H69.1761V138.906H135.992V127.669Z" fill="white"/>
<path d="M73.4978 129.982C78.7045 129.901 83.9127 129.846 89.1225 129.818L104.742 129.766L120.367 129.818C125.574 129.846 130.78 129.901 135.987 129.982C130.78 130.06 125.574 130.116 120.367 130.15L104.742 130.197L89.1037 130.146C83.9096 130.117 78.7076 130.063 73.4978 129.982Z" fill="#DBDBDB"/>
<path d="M73.4978 132.187C78.7045 132.109 83.9127 132.053 89.1225 132.019L104.742 131.972L120.367 132.019C125.574 132.053 130.78 132.109 135.987 132.187C130.78 132.265 125.574 132.32 120.367 132.351L104.742 132.402L89.1037 132.351C83.9096 132.323 78.7076 132.268 73.4978 132.187Z" fill="#DBDBDB"/>
<path d="M73.4978 134.392C78.7045 134.314 83.9127 134.258 89.1225 134.224L104.742 134.177L120.367 134.224C125.574 134.252 130.78 134.308 135.987 134.392C130.78 134.474 125.574 134.528 120.367 134.556L104.742 134.608L89.1037 134.556C83.9096 134.528 78.7076 134.474 73.4978 134.392Z" fill="#DBDBDB"/>
<path d="M73.4978 136.598C78.7045 136.517 83.9127 136.46 89.1225 136.429L104.742 136.378L120.367 136.429C125.574 136.457 130.78 136.513 135.987 136.598C130.78 136.679 125.574 136.734 120.367 136.762L104.742 136.813L89.1037 136.762C83.9096 136.734 78.7076 136.679 73.4978 136.598Z" fill="#DBDBDB"/>
<path d="M130.368 84.4891H75.6844V94.6683H130.368V84.4891Z" fill="#A6A6A6"/>
<path d="M161.543 84.4891H130.368V94.6683H161.543V84.4891Z" fill="#A6A6A6"/>
<path d="M130.368 85.5473H75.6844V93.6148H130.368V85.5473Z" fill="white"/>
<path d="M79.2242 87.2048C83.4881 87.1486 87.7505 87.1096 92.0114 87.0878L104.799 87.0503L117.586 87.0878C121.847 87.1065 126.107 87.1455 130.368 87.2048C126.107 87.261 121.847 87.3016 117.586 87.3266L104.799 87.3593L92.0114 87.3266C87.7505 87.3047 83.4881 87.2641 79.2242 87.2048Z" fill="#DBDBDB"/>
<path d="M79.2242 88.7873C83.4881 88.7311 87.7505 88.6921 92.0114 88.6703L104.799 88.6328L117.586 88.6703C121.847 88.689 126.107 88.728 130.368 88.7873C126.107 88.8435 121.847 88.8841 117.586 88.9091L104.799 88.9418L92.0114 88.9091C87.7505 88.8872 83.4881 88.8466 79.2242 88.7873Z" fill="#DBDBDB"/>
<path d="M79.2242 90.37C83.4881 90.3138 87.7505 90.2748 92.0114 90.2529L104.799 90.2155L117.586 90.2529C121.847 90.2716 126.107 90.3107 130.368 90.37C126.107 90.4293 121.847 90.4699 117.586 90.4917L104.799 90.5245L92.0114 90.4917C87.7505 90.4699 83.4881 90.4293 79.2242 90.37Z" fill="#DBDBDB"/>
<path d="M79.2242 91.976C83.4881 91.9198 87.7505 91.8808 92.0114 91.8589L104.799 91.8214L117.586 91.8589C121.847 91.8776 126.107 91.9166 130.368 91.976C126.107 92.0384 121.847 92.079 117.586 92.0977L104.799 92.1305L92.0114 92.0977C87.7505 92.0602 83.4881 92.0197 79.2242 91.976Z" fill="#DBDBDB"/>
<path d="M58.9688 110.232L45.6525 160.262L38.0579 188.786L30.7302 186.833L38.3248 158.309L51.6411 108.28L58.9688 110.232Z" fill="#3E3E3E"/>
<path opacity="0.1" d="M58.9688 110.232L45.6525 160.262L38.0579 188.786L30.7302 186.833L38.3248 158.309L51.6411 108.28L58.9688 110.232Z" fill="black"/>
<path d="M44.8885 160.049L58.2094 110.02L52.3998 108.473L39.0789 158.502L44.8885 160.049Z" fill="white"/>
<path d="M56.1501 112.948C55.1574 116.856 54.1492 120.758 53.1254 124.653L50.0351 136.359L46.898 148.065C45.8429 151.96 44.7753 155.853 43.6953 159.742C44.6942 155.831 45.704 151.929 46.7247 148.036L49.8103 136.331L52.9521 124.625C54.0072 120.73 55.0732 116.837 56.1501 112.948Z" fill="#DBDBDB"/>
<path d="M55.0123 112.643C54.0166 116.558 53.0068 120.46 51.9829 124.349L48.8973 136.055L45.7555 147.76C44.7036 151.656 43.6376 155.548 42.5576 159.438C43.5533 155.53 44.5631 151.628 45.587 147.732L48.6726 136.027L51.8144 124.321C52.8694 120.425 53.9354 116.533 55.0123 112.643Z" fill="#DBDBDB"/>
<path d="M53.8745 112.344C52.8788 116.255 51.869 120.157 50.8451 124.049L47.7595 135.755L44.6177 147.461C43.5658 151.356 42.4998 155.247 41.4198 159.133C42.4124 155.222 43.4206 151.32 44.4445 147.428L47.5348 135.722L50.6719 124.017C51.7238 120.136 52.7914 116.246 53.8745 112.344Z" fill="#DBDBDB"/>
<path d="M52.7321 112.039C51.7394 115.947 50.7312 119.849 49.7073 123.745L46.617 135.451L43.4799 147.156C42.428 151.052 41.3605 154.943 40.2773 158.829C41.2731 154.921 42.2829 151.019 43.3067 147.123L46.3923 135.418L49.5341 123.712C50.5892 119.817 51.6551 115.926 52.7321 112.039Z" fill="#DBDBDB"/>
<path d="M106.554 178.869H162.531V159.382H106.554V178.869Z" fill="#263238"/>
<path d="M67.2376 178.869H106.554V159.382H67.2376V178.869Z" fill="#263238"/>
<path d="M106.554 176.846H162.531V161.404H106.554V176.846Z" fill="white"/>
<path d="M158.907 173.672C154.536 173.75 150.174 173.804 145.82 173.836L132.733 173.887L119.623 173.836C115.252 173.808 110.882 173.753 106.512 173.672C110.882 173.594 115.252 173.538 119.623 173.503L132.733 173.456L145.82 173.503C150.184 173.538 154.546 173.594 158.907 173.672Z" fill="#DBDBDB"/>
<path d="M158.907 170.638C154.536 170.716 150.174 170.77 145.82 170.802L132.733 170.853L119.623 170.802C115.252 170.773 110.882 170.719 106.512 170.638C110.882 170.56 115.252 170.503 119.623 170.469L132.733 170.422L145.82 170.469C150.184 170.5 154.546 170.556 158.907 170.638Z" fill="#DBDBDB"/>
<path d="M158.907 167.613C154.536 167.691 150.174 167.746 145.82 167.777L132.733 167.828L119.623 167.777C115.252 167.749 110.882 167.694 106.512 167.613C110.882 167.532 115.252 167.476 119.623 167.444L132.733 167.393L145.82 167.444C150.184 167.472 154.546 167.529 158.907 167.613Z" fill="#DBDBDB"/>
<path d="M158.907 164.584C154.536 164.665 150.174 164.719 145.82 164.747L132.733 164.799L119.623 164.747C115.252 164.719 110.882 164.665 106.512 164.584C110.882 164.499 115.252 164.443 119.623 164.415L132.733 164.363L145.82 164.415C150.184 164.443 154.546 164.499 158.907 164.584Z" fill="#DBDBDB"/>
<path d="M175.655 112.976H72.9172V126.255H175.655V112.976Z" fill="#C7C7C7"/>
<path d="M122.09 115.687H82.5767V123.656H122.09V115.687Z" fill="white"/>
<path d="M168.721 115.687H131.628V116.918H168.721V115.687Z" fill="white"/>
<path d="M168.721 119.002H131.628V120.233H168.721V119.002Z" fill="white"/>
<path d="M168.721 122.312H131.628V123.544H168.721V122.312Z" fill="white"/>
<path d="M155.779 94.6683H80.0202V112.915H155.779V94.6683Z" fill="#3E3E3E"/>
<path d="M147.744 94.6683H140.683V112.915H147.744V94.6683Z" fill="#263238"/>
<path d="M136.053 94.6683H133.313V112.915H136.053V94.6683Z" fill="#263238"/>
<path d="M22.6534 152.438C25.6266 146.323 30.8286 143.186 36.7001 144.923C42.5717 146.66 43.4706 154.83 39.0974 156.895C34.7242 158.96 30.3416 152.929 28.0286 151.693C25.7156 150.457 22.6534 152.438 22.6534 152.438Z" fill="#3E3E3E"/>
<path d="M19.7738 168.704C19.7738 167.964 19.8206 167.229 19.844 166.494C19.8955 165.024 19.947 163.549 20.0032 162.078C20.1015 159.391 20.3918 156.75 21.5062 154.269C22.4899 152.02 24.1344 150.124 26.2212 148.832C26.9964 148.366 27.8312 148.007 28.7028 147.765C29.4903 146.965 30.4945 146.413 31.5918 146.178C32.9499 145.9 34.3465 145.865 35.7168 146.075C35.7683 146.075 35.7636 146.154 35.7168 146.149C34.4097 145.983 33.0826 146.077 31.8118 146.426C31.2696 146.577 30.744 146.782 30.2433 147.039C29.9277 147.21 29.6242 147.403 29.3349 147.615C30.5178 147.371 31.7393 147.383 32.9168 147.652C33.3406 147.755 33.7555 147.891 34.1576 148.06C34.4789 147.99 34.8078 147.962 35.1362 147.976C35.5646 147.989 35.9902 148.051 36.4051 148.158C37.2533 148.397 38.0647 148.752 38.8165 149.212C38.8633 149.235 38.8165 149.301 38.779 149.277C38.0437 148.875 37.2557 148.577 36.4379 148.392C36.0407 148.3 35.6367 148.241 35.2299 148.214C35.0053 148.203 34.7802 148.203 34.5556 148.214C36.2261 148.985 37.5685 150.324 38.3436 151.993C38.3436 152.04 38.2967 152.077 38.278 152.03C37.8143 151.062 37.1375 150.211 36.2982 149.541C35.459 148.871 34.4791 148.4 33.4319 148.163C33.3008 148.13 33.1697 148.111 33.0386 148.083C33.0854 148.275 33.076 148.491 33.1041 148.678C33.1416 148.973 33.1931 149.268 33.2493 149.563C33.3702 150.168 33.5265 150.765 33.7175 151.351C33.9167 151.945 34.1544 152.526 34.4292 153.089C34.693 153.683 35.0262 154.244 35.4218 154.76C35.4546 154.802 35.3891 154.854 35.361 154.807C35.0051 154.254 34.5978 153.744 34.2747 153.173C33.9679 152.625 33.7019 152.055 33.4787 151.469C33.2565 150.872 33.0827 150.258 32.959 149.633C32.8934 149.305 32.8419 148.973 32.8045 148.64C32.764 148.442 32.7514 148.239 32.767 148.036C32.0775 147.93 31.377 147.914 30.6834 147.99C30.9456 149.45 31.2265 150.968 32.0413 152.236C32.0694 152.279 31.9944 152.316 31.971 152.274C31.5906 151.6 31.2543 150.903 30.9643 150.186C30.6974 149.49 30.5288 148.76 30.4633 148.018C29.2532 148.178 28.085 148.569 27.0219 149.17C25.0173 150.333 23.4176 152.083 22.438 154.184C21.4046 156.445 20.8285 158.887 20.743 161.371C20.5464 164.495 20.5089 167.636 20.1952 170.736C20.1952 170.937 19.8534 171.008 19.8159 170.778C19.7349 170.09 19.7208 169.395 19.7738 168.704Z" fill="#263238"/>
<path d="M26.6473 148.346C26.8417 148.107 27.0687 147.898 27.3216 147.723C27.565 147.521 27.7898 147.325 28.0754 147.147C28.5914 146.794 29.1627 146.53 29.7657 146.365C29.8125 146.365 29.8312 146.431 29.7657 146.44C29.1581 146.591 28.5899 146.871 28.0988 147.259C27.8506 147.442 27.6306 147.639 27.3777 147.84C27.1715 148.056 26.944 148.25 26.6988 148.42C26.6707 148.444 26.6145 148.388 26.6473 148.346Z" fill="#263238"/>
<path d="M36.1335 150.56C36.6261 151.131 37.0812 151.733 37.4961 152.363C37.9039 152.997 38.2445 153.672 38.5121 154.376C38.5121 154.376 38.5121 154.409 38.4747 154.376C37.7957 153.044 36.9931 151.779 36.0773 150.598C36.0446 150.574 36.1008 150.504 36.1335 150.56Z" fill="#263238"/>
<path d="M29.7376 149.956C29.8006 150.338 29.9139 150.709 30.0747 151.061C30.2379 151.402 30.4273 151.729 30.6413 152.04C30.6413 152.04 30.6413 152.082 30.6085 152.063C30.0984 151.474 29.7727 150.748 29.672 149.975C29.6393 149.923 29.7282 149.905 29.7376 149.956Z" fill="#263238"/>
<path d="M20.1905 152.588C20.1905 152.588 15.9765 147.297 7.85749 149.17C0.141158 150.972 -3.43139 165.113 4.35518 166.808C12.1417 168.503 10.7839 155.397 13.626 153.173C15.733 151.543 18.7343 151.909 20.1905 152.588Z" fill="#3E3E3E"/>
<path d="M1.57862 156.905C2.10829 156.44 2.66828 156.012 3.25487 155.622C3.80499 155.243 4.40548 154.944 5.0388 154.732C5.35281 154.249 5.70678 153.793 6.09699 153.369C6.81758 152.596 7.6511 151.936 8.56921 151.412H8.32573C7.89497 151.412 7.4642 151.412 7.03344 151.412C6.16728 151.468 5.31843 151.68 4.52844 152.04C4.48161 152.04 4.44884 151.988 4.49566 151.97C5.2967 151.621 6.13589 151.368 6.99598 151.216C7.41449 151.139 7.83932 151.101 8.26486 151.103C8.49429 151.103 8.73309 151.103 8.94847 151.145H9.07958C9.82434 150.769 10.6099 150.48 11.4207 150.284L11.1959 150.223C10.7926 150.137 10.3845 150.074 9.97388 150.036C9.16421 149.941 8.34548 149.953 7.53912 150.073C7.49229 150.073 7.47825 150.003 7.53912 149.994C8.35458 149.895 9.17659 149.863 9.99729 149.895C10.6864 149.917 11.3718 150.006 12.0434 150.162C12.532 150.071 13.0264 150.014 13.523 149.994C16.3324 149.872 19.4461 150.93 21.1878 153.271C22.9296 155.612 23.2761 158.712 23.5852 161.526C24.0578 165.444 24.1612 169.397 23.8942 173.335C23.8942 173.569 23.5477 173.522 23.543 173.302C23.4353 169.963 23.3183 166.625 22.9999 163.296C22.85 161.755 22.6862 160.21 22.4286 158.684C22.2453 157.368 21.8681 156.087 21.3096 154.882C20.7081 153.639 19.7495 152.604 18.5564 151.909C17.3611 151.228 16.0284 150.823 14.6561 150.724C13.4299 150.622 12.1954 150.736 11.0087 151.061C11.0438 151.3 11.0438 151.543 11.0087 151.782C10.9797 152.084 10.9201 152.382 10.8307 152.672C10.7401 152.944 10.6258 153.207 10.4889 153.458C10.3391 153.739 10.1518 153.988 9.98325 154.254C9.95515 154.297 9.8896 154.254 9.9177 154.208C10.2513 153.731 10.4678 153.182 10.5498 152.606C10.6013 152.333 10.6341 152.056 10.6481 151.778C10.6481 151.572 10.6481 151.356 10.6481 151.15C9.35936 151.546 8.15684 152.181 7.10367 153.023C6.90233 153.182 6.71504 153.351 6.52775 153.519C6.79438 153.769 7.02591 154.055 7.21604 154.367C7.50896 154.772 7.76441 155.203 7.97925 155.654C8.35496 156.553 8.6085 157.498 8.73309 158.464C8.73021 158.472 8.72484 158.479 8.7177 158.484C8.71057 158.489 8.70204 158.492 8.69329 158.492C8.68454 158.492 8.67601 158.489 8.66888 158.484C8.66174 158.479 8.65637 158.472 8.65349 158.464C8.50011 157.523 8.18317 156.617 7.71704 155.786C7.50199 155.374 7.26115 154.977 6.99598 154.596C6.86019 154.4 6.71973 154.208 6.56989 154.02C6.49029 153.922 6.40133 153.819 6.32642 153.711C5.37076 154.647 4.59053 155.746 4.02275 156.956C4.40142 157.363 4.71707 157.823 4.9592 158.323C5.26458 158.858 5.53212 159.413 5.75987 159.986C6.15298 161.067 6.47671 162.173 6.72909 163.296C6.72909 163.347 6.66354 163.361 6.65417 163.296C6.40733 162.16 6.02043 161.059 5.50234 160.018C5.25887 159.513 5.00134 159.012 4.73446 158.515C4.45149 158.063 4.19661 157.594 3.97125 157.111C3.42643 158.289 3.10873 159.56 3.0348 160.856C3.0348 160.908 2.95052 160.899 2.9552 160.856C3.10434 158.814 3.72974 156.835 4.78128 155.079C4.28496 155.289 3.78396 155.495 3.30637 155.753C2.69479 156.076 2.1268 156.476 1.61608 156.942C1.59267 156.998 1.54585 156.937 1.57862 156.905Z" fill="#263238"/>
<path d="M7.5391 157.204C7.78258 158.005 8.09161 158.787 8.31167 159.597C8.5352 160.374 8.65486 161.177 8.66752 161.985C8.66752 162.008 8.63475 162.008 8.63007 161.985C8.41128 160.362 8.02046 158.768 7.46419 157.228C7.46265 157.223 7.4621 157.218 7.46256 157.213C7.46302 157.207 7.46449 157.202 7.46688 157.198C7.46927 157.193 7.47254 157.189 7.4765 157.186C7.48045 157.183 7.48502 157.18 7.48994 157.179C7.49486 157.177 7.50003 157.176 7.50517 157.177C7.5103 157.177 7.51529 157.179 7.51986 157.181C7.52442 157.184 7.52847 157.187 7.53177 157.191C7.53508 157.195 7.53757 157.199 7.5391 157.204Z" fill="#263238"/>
<path d="M2.39331 155.214C2.71133 154.905 3.07444 154.646 3.47023 154.446C3.8712 154.262 4.28808 154.115 4.71571 154.006C4.76253 154.006 4.77658 154.072 4.71571 154.081C4.29572 154.19 3.89247 154.355 3.51705 154.573C3.13358 154.774 2.76437 155 2.41204 155.252C2.40965 155.255 2.40648 155.258 2.40283 155.259C2.39919 155.261 2.39519 155.261 2.39121 155.261C2.38724 155.261 2.38342 155.259 2.38012 155.257C2.37683 155.255 2.37416 155.252 2.37237 155.248C2.37059 155.245 2.36975 155.241 2.36993 155.237C2.37011 155.233 2.3713 155.229 2.3734 155.225C2.3755 155.222 2.37843 155.219 2.38191 155.217C2.3854 155.215 2.38932 155.214 2.39331 155.214Z" fill="#263238"/>
<path d="M16.1872 145.522C16.1872 145.522 15.4146 136.017 8.34444 132.936C2.44481 130.361 -0.931083 136.991 3.24079 141.051C6.61201 144.333 12.0247 142.853 16.1872 145.522Z" fill="#3E3E3E"/>
<path d="M4.54715 134.776C5.62309 135.21 6.67222 135.707 7.68893 136.265C8.53608 136.752 9.35093 137.293 10.1284 137.885C10.0113 137.642 9.90832 137.389 9.79126 137.155C9.60397 136.79 9.40732 136.429 9.19194 136.083C8.75623 135.365 8.23243 134.704 7.63275 134.116C7.59997 134.083 7.63275 134.027 7.68893 134.065C8.28719 134.653 8.83535 135.291 9.32772 135.97C9.57207 136.317 9.79716 136.676 10.002 137.047C10.2063 137.388 10.3638 137.755 10.4702 138.138C10.4702 138.162 10.5217 138.176 10.5498 138.199C11.784 139.181 12.9137 140.287 13.921 141.5C13.921 141.406 13.8835 141.313 13.8601 141.229C13.729 140.76 13.5839 140.292 13.4294 139.847C13.1276 138.872 12.6994 137.94 12.1558 137.075C12.1508 137.067 12.1495 137.056 12.1521 137.047C12.1548 137.037 12.1611 137.029 12.1698 137.024C12.1785 137.019 12.1888 137.018 12.1985 137.02C12.2082 137.023 12.2164 137.029 12.2213 137.038C12.7853 137.899 13.2861 138.801 13.7197 139.735C13.9103 140.191 14.0668 140.66 14.1879 141.14C14.2917 141.445 14.37 141.758 14.422 142.076C14.7263 142.465 15.0307 142.858 15.3163 143.265C18.3504 147.582 19.8721 152.808 20.2373 158.033C20.3435 159.591 20.37 161.154 20.3169 162.715C20.3037 164.285 20.1644 165.85 19.9002 167.398C19.9002 167.496 19.727 167.463 19.7317 167.369C19.7644 165.993 19.9096 164.626 19.933 163.254C19.9598 161.89 19.9176 160.526 19.8066 159.166C19.585 156.422 19.0686 153.709 18.2661 151.075C17.4377 148.382 16.2217 145.824 14.6561 143.481C14.3564 143.42 14.0615 143.34 13.7665 143.265L12.713 142.984C12.0343 142.808 11.3742 142.566 10.7418 142.263C10.6949 142.24 10.7418 142.17 10.7839 142.193C11.4066 142.534 12.0827 142.767 12.7832 142.881C13.3357 142.989 13.9116 143.064 14.4641 143.19C13.9551 142.442 13.4065 141.722 12.8207 141.032C11.4739 141.151 10.1167 141.048 8.80331 140.728C8.10429 140.563 7.41749 140.35 6.7478 140.091C6.0361 139.814 5.34313 139.468 4.66889 139.154C4.61738 139.154 4.66889 139.056 4.70167 139.084C5.96623 139.775 7.34704 140.227 8.77521 140.418C10.0357 140.621 11.3099 140.726 12.5866 140.732C12.0856 140.156 11.5658 139.599 11.0133 139.07C9.14043 137.3 6.95382 135.68 4.50969 134.833C4.47692 134.833 4.50033 134.758 4.54715 134.776Z" fill="#263238"/>
<path d="M10.2969 134.804C10.6143 135.207 10.9037 135.631 11.1632 136.073C11.4289 136.538 11.638 137.033 11.7859 137.548C11.7859 137.548 11.7859 137.572 11.7578 137.548C11.5237 137.08 11.3224 136.612 11.0836 136.144C10.8501 135.686 10.5675 135.256 10.2408 134.861C10.208 134.818 10.2642 134.767 10.2969 134.804Z" fill="#263238"/>
<path d="M21.6795 143.808C21.7216 144.22 22.747 140.358 28.7028 136.93C34.1295 133.817 40.6051 125.721 35.286 120.603C31.0158 116.478 19.6989 125.477 21.6795 143.808Z" fill="#3E3E3E"/>
<path d="M17.5685 165.955C17.6509 161.938 17.9636 157.928 18.5049 153.945C18.9754 150.279 19.821 146.67 21.0286 143.176C21.4969 141.921 21.9651 140.685 22.5316 139.468C22.5029 139 22.5107 138.53 22.5551 138.063C22.5831 137.455 22.6393 136.851 22.6955 136.242C22.7517 135.633 22.8126 135.029 22.8875 134.425C22.9624 133.821 23.0888 133.217 23.1122 132.613C23.1122 132.608 23.1132 132.603 23.1151 132.599C23.117 132.594 23.1197 132.59 23.1232 132.587C23.1267 132.583 23.1308 132.58 23.1354 132.579C23.1399 132.577 23.1448 132.576 23.1497 132.576C23.1546 132.576 23.1595 132.577 23.164 132.579C23.1686 132.58 23.1727 132.583 23.1762 132.587C23.1797 132.59 23.1824 132.594 23.1843 132.599C23.1862 132.603 23.1872 132.608 23.1872 132.613C23.0687 133.249 22.9967 133.892 22.9718 134.538C22.9296 135.123 22.8922 135.713 22.8781 136.298C22.8641 136.883 22.8781 137.473 22.8781 138.063C22.8781 138.274 22.8781 138.499 22.8781 138.728C23.44 137.539 24.044 136.387 24.6948 135.231C24.2922 132.754 24.8166 130.164 25.3223 127.739C25.3223 127.692 25.4065 127.711 25.3972 127.762C25.1491 129.028 25.0174 130.313 25.0039 131.602C25.0039 132.618 25.0273 133.634 25.032 134.65C25.1771 134.407 25.3176 134.182 25.4627 133.924C26.24 132.657 27.0672 131.421 27.9443 130.216C27.8755 129.628 27.896 129.033 28.0052 128.451C28.1015 127.798 28.2455 127.153 28.436 126.522C28.6279 125.889 28.848 125.267 29.1008 124.649C29.3537 124.031 29.7002 123.422 29.953 122.776C29.9551 122.771 29.9582 122.767 29.9619 122.764C29.9657 122.76 29.9701 122.758 29.9749 122.756C29.9797 122.754 29.9847 122.753 29.9898 122.753C29.9949 122.754 29.9999 122.755 30.0045 122.757C30.0091 122.759 30.0133 122.762 30.0167 122.766C30.0201 122.77 30.0228 122.774 30.0245 122.779C30.0263 122.784 30.0271 122.789 30.0268 122.794C30.0266 122.799 30.0254 122.804 30.0232 122.809C29.7033 123.402 29.452 124.031 29.2741 124.681C29.0803 125.296 28.924 125.921 28.8058 126.554C28.6794 127.182 28.5764 127.814 28.4875 128.427C28.4266 128.849 28.3891 129.284 28.3189 129.71C29.5965 127.991 30.9937 126.364 32.5001 124.841C32.508 124.837 32.5168 124.836 32.5254 124.837C32.534 124.839 32.5419 124.843 32.5481 124.849C32.5543 124.855 32.5584 124.863 32.5598 124.872C32.5613 124.88 32.5601 124.889 32.5563 124.897C30.2751 127.457 28.2373 130.223 26.4694 133.161L26.2774 133.493C26.6099 133.287 26.9845 133.124 27.2935 132.95C27.8741 132.632 28.4547 132.309 29.04 132.014C29.6252 131.719 30.1684 131.401 30.7303 131.077C31.0205 130.918 31.3062 130.75 31.6011 130.609C31.9525 130.449 32.2907 130.261 32.6125 130.047C32.6593 130.015 32.7062 130.085 32.6593 130.108C32.0834 130.427 31.5777 130.895 31.0205 131.251C30.4634 131.607 29.8921 131.948 29.3162 132.271C28.2533 132.866 27.0968 133.292 26.0386 133.905C25.3129 135.174 24.634 136.476 24.03 137.801C24.6621 137.394 25.3129 137.01 25.9684 136.64C26.3945 136.406 26.8159 136.172 27.2467 135.942C27.6746 135.748 28.0784 135.504 28.45 135.217C28.4875 135.184 28.539 135.24 28.5015 135.273C27.8078 135.9 27.0368 136.437 26.2072 136.869C25.4393 137.338 24.6667 137.754 23.8661 138.143C23.2293 139.548 22.6487 140.952 22.1383 142.418C19.624 149.54 18.6969 157.097 18.2568 164.607C18.1257 166.845 18.0601 169.083 18.032 171.321C18.0039 173.559 18.121 175.798 18.1163 178.036C18.1163 178.101 18.0086 178.115 17.9992 178.036C17.7277 176.05 17.6808 174.032 17.5966 172.033C17.5123 170.034 17.5263 167.983 17.5685 165.955Z" fill="#263238"/>
<path d="M28.4266 133.714C29.5161 133.228 30.5761 132.68 31.6011 132.07C32.6368 131.484 33.6417 130.844 34.6118 130.155C34.6118 130.155 34.6493 130.155 34.6118 130.183C33.6957 130.924 32.7288 131.6 31.7182 132.206C30.6598 132.799 29.5651 133.324 28.4406 133.779C28.4172 133.798 28.3797 133.732 28.4266 133.714Z" fill="#263238"/>
<path d="M26.6941 125.66C26.7831 125.314 26.8908 124.972 27.0079 124.635C27.0079 124.635 27.0079 124.611 27.0079 124.597C27.0828 124.4 27.1624 124.213 27.242 124.021L27.2701 123.951L27.3122 123.843L27.256 124.04C27.2473 124.078 27.2363 124.116 27.2232 124.152C26.8376 125.483 26.5497 126.839 26.3617 128.212C26.3617 128.254 26.2868 128.259 26.2915 128.212C26.3438 127.35 26.4787 126.496 26.6941 125.66Z" fill="#263238"/>
<path d="M11.2568 167.393L11.6829 172.445L12.9892 187.854H26.9704L28.272 172.445L28.6981 167.393H11.2568Z" fill="#455A64"/>
<path d="M11.2568 167.393L11.6829 172.445H28.272L28.6981 167.393H11.2568Z" fill="#263238"/>
<path d="M9.88493 170.207H30.0701V165.361H9.88493V170.207Z" fill="#455A64"/>
<path d="M170.42 84.1332C169.437 84.4891 140.365 85.0697 139.269 84.3954C139.138 84.3252 138.665 74.7079 138.665 74.7079C138.703 74.5721 138.197 73.645 137.476 72.3668C135.402 68.7474 131.347 62.2672 131.347 62.2672L148.606 57.0511L155.695 71.2477L157.502 74.8718C157.502 74.8718 161.463 76.4216 164.923 77.9667C166.434 78.593 167.907 79.3075 169.334 80.1065C170.458 80.9634 171.404 83.7867 170.42 84.1332Z" fill="#D3766A"/>
<path d="M170.42 84.1333C169.437 84.4891 140.365 85.0697 139.269 84.3955C139.138 84.3252 138.665 74.7079 138.665 74.7079C138.703 74.5721 138.197 73.645 137.476 72.3668L155.695 71.2477L157.502 74.8718C157.502 74.8718 161.463 76.4216 164.923 77.9667C166.434 78.593 167.907 79.3075 169.334 80.1065C170.458 80.9634 171.404 83.7868 170.42 84.1333Z" fill="white"/>
<path d="M170.542 84.241C169.531 84.6015 140.416 85.0978 139.293 84.4189C138.867 84.1614 138.356 79.6805 138.665 74.7079L157.436 74.4083C157.436 74.4083 168.309 79.2122 169.46 80.0925C170.612 80.9728 171.553 83.8851 170.542 84.241Z" fill="#3E3E3E"/>
<path opacity="0.1" d="M146.911 84.7467C142.767 84.7467 139.649 84.6297 139.293 84.419C138.867 84.1614 138.356 79.6805 138.665 74.708H139.134L146.911 84.7467Z" fill="black"/>
<path d="M170.107 83.0798C165.228 83.0423 145.529 83.3607 140.702 83.6931C140.665 83.6931 140.665 83.7259 140.702 83.7259C145.539 83.8664 165.232 83.3935 170.111 83.1594C170.21 83.1594 170.21 83.0798 170.107 83.0798Z" fill="#263238"/>
<path d="M167.569 79.0812C167.026 79.0749 166.488 79.182 165.989 79.3957C165.49 79.6093 165.041 79.9248 164.671 80.322C163.996 81.0284 163.621 81.9676 163.622 82.944C163.622 82.9721 163.678 82.9721 163.683 82.944C163.83 81.9744 164.289 81.079 164.99 80.3931C165.691 79.7073 166.596 79.2681 167.569 79.142C167.606 79.1374 167.606 79.0812 167.569 79.0812Z" fill="#263238"/>
<path d="M158.977 74.8718C157.024 74.8718 154.763 75.6069 153.583 77.2129C153.536 77.2738 153.63 77.3394 153.686 77.3066C155.379 76.3901 157.165 75.6571 159.014 75.12C159.047 75.115 159.077 75.0972 159.097 75.0704C159.116 75.0436 159.125 75.0101 159.12 74.9772C159.115 74.9443 159.097 74.9147 159.07 74.8949C159.043 74.8752 159.01 74.8668 158.977 74.8718Z" fill="#263238"/>
<path d="M160.494 75.4337C158.541 75.4337 156.28 76.1688 155.1 77.7748C155.058 77.8357 155.147 77.9012 155.203 77.8684C156.895 76.9439 158.682 76.203 160.531 75.6584C160.553 75.646 160.57 75.6274 160.58 75.605C160.591 75.5826 160.594 75.5575 160.59 75.5331C160.586 75.5087 160.575 75.4861 160.558 75.4683C160.54 75.4506 160.518 75.4385 160.494 75.4337Z" fill="#263238"/>
<path d="M162.011 75.9955C160.058 75.9955 157.797 76.7306 156.622 78.3366C156.575 78.3975 156.664 78.4631 156.72 78.4303C158.414 77.5049 160.201 76.764 162.053 76.2203C162.075 76.2075 162.092 76.1885 162.102 76.1658C162.112 76.143 162.115 76.1177 162.111 76.0932C162.106 76.0686 162.094 76.0461 162.076 76.0287C162.058 76.0112 162.036 75.9996 162.011 75.9955Z" fill="#263238"/>
<path d="M163.551 76.5574C161.594 76.5574 159.337 77.2925 158.158 78.8985C158.111 78.9594 158.2 79.025 158.256 78.9922C159.938 78.0741 161.713 77.338 163.551 76.7962C163.579 76.7907 163.604 76.7758 163.622 76.754C163.64 76.7323 163.649 76.705 163.649 76.6768C163.649 76.6486 163.64 76.6214 163.622 76.5996C163.604 76.5778 163.579 76.5629 163.551 76.5574Z" fill="#263238"/>
<path d="M141.859 79.0437C139.667 79.0858 139.733 82.4898 141.929 82.4477C144.125 82.4055 144.055 78.9969 141.859 79.0437Z" fill="#263238"/>
<path d="M161 69.623C159.998 68.8223 158.761 69.623 158.167 70.5033C157.176 72.0036 156.595 73.7374 156.481 75.532C156.481 75.5694 156.509 75.5882 156.542 75.5835C156.549 75.6204 156.566 75.655 156.589 75.6844C156.613 75.7138 156.643 75.737 156.677 75.7522C156.712 75.7674 156.75 75.774 156.787 75.7715C156.825 75.769 156.861 75.7576 156.893 75.738C158.27 74.7501 159.862 73.8651 160.892 72.4885C161.491 71.6832 161.945 70.3815 161 69.623ZM158.658 73.837C157.994 74.3427 157.31 74.8062 156.664 75.3306C156.966 74.3429 157.318 73.3708 157.717 72.4183C157.919 71.961 158.149 71.5169 158.406 71.0885C158.822 70.4377 160.709 68.7474 160.939 70.8919C161.084 72.039 159.464 73.219 158.673 73.8136L158.658 73.837Z" fill="#263238"/>
<path d="M151.64 76.3373C153.344 76.5714 155.091 76.0564 156.757 75.7661C156.793 75.7563 156.826 75.7384 156.854 75.7136C156.882 75.6888 156.903 75.6579 156.917 75.6234C156.931 75.5888 156.936 75.5516 156.933 75.5146C156.929 75.4776 156.917 75.4418 156.898 75.4102C156.904 75.405 156.909 75.3985 156.912 75.3912C156.915 75.384 156.917 75.3761 156.917 75.3681C156.917 75.3601 156.915 75.3522 156.912 75.345C156.909 75.3377 156.904 75.3312 156.898 75.326C155.541 74.1424 153.898 73.3352 152.131 72.9848C151.097 72.8069 149.65 73.1066 149.519 74.3895C149.388 75.6724 150.642 76.2015 151.64 76.3373ZM150.441 75.2464C149.088 73.5935 151.602 73.4156 152.356 73.5795C152.844 73.6906 153.323 73.8377 153.789 74.0196C154.747 74.4027 155.684 74.834 156.598 75.3119C155.77 75.4056 154.96 75.5648 154.135 75.6865C153.162 75.8316 151.186 76.1594 150.441 75.2464Z" fill="#263238"/>
<path d="M136.16 72.1702L156.636 69.0658C156.636 69.0658 146.803 49.4519 140.716 38.8092C137.331 32.8908 128.074 32.6005 123.556 39.6941C117.525 49.1663 112.852 58.0392 110.174 62.9461L105.529 63.3441L106.531 70.9294L121.982 74.3849C127.896 75.0966 132.045 64.5522 132.143 64.7488C132.869 66.1441 136.16 72.1702 136.16 72.1702Z" fill="#37474F"/>
<path d="M132.232 64.819C131.647 63.6251 131.192 62.3609 130.677 61.1388L129.174 57.5943C128.172 55.2017 127.133 52.8184 126.159 50.4165C125.611 49.068 125.11 47.7008 124.6 46.3382C124.6 46.3054 124.534 46.3382 124.544 46.3382C124.942 47.6258 125.354 48.9135 125.784 50.187C125.667 49.967 125.555 49.7469 125.433 49.5315C125.106 48.9462 124.768 48.3656 124.427 47.785H124.394C124.708 48.3703 125.021 48.9509 125.33 49.5268C125.489 49.8171 125.667 50.0981 125.841 50.3837C127.033 53.9677 128.451 57.4723 130.087 60.8766C130.738 62.211 131.492 63.4893 132.152 64.8237C132.18 64.8893 132.251 64.8518 132.232 64.819Z" fill="#263238"/>
<path d="M136.619 68.5274C135.631 67.0056 133.281 62.3983 132.438 60.8017C130.738 57.5803 129.16 54.2887 127.704 50.969C126.871 49.0961 126.094 47.1857 125.321 45.2754C125.321 45.2754 125.298 45.2754 125.321 45.2754C126.497 48.7122 127.846 52.0877 129.362 55.389C130.86 58.6993 135.706 67.6143 136.577 68.5789C136.591 68.6023 136.647 68.5648 136.619 68.5274Z" fill="#263238"/>
<path d="M123.912 47.8084C122.146 50.9596 120.344 54.0873 118.574 57.2338C117.68 58.8211 116.781 60.413 115.896 62.005C115.479 62.7588 115.076 63.5174 114.641 64.2571C114.271 64.9582 113.711 65.5408 113.025 65.9381C112.205 66.3275 111.344 66.6273 110.46 66.8324C109.462 67.1227 108.474 67.4364 107.472 67.7126C107.425 67.7126 107.449 67.7922 107.472 67.7829C108.362 67.5441 109.261 67.3146 110.16 67.118C110.984 66.9425 111.799 66.7221 112.599 66.4578C113.31 66.2239 113.937 65.7898 114.407 65.2076C114.888 64.5408 115.313 63.8344 115.676 63.096C117.461 59.8746 119.217 56.6298 120.943 53.3616C121.936 51.5121 122.914 49.6579 123.912 47.8178C123.93 47.8084 123.916 47.7991 123.912 47.8084Z" fill="#263238"/>
<path d="M135.697 69.2953C136.924 69.0706 138.178 68.9676 139.414 68.8271L143.137 68.3589C145.609 68.0358 154.032 66.692 154.669 66.486C154.677 66.4831 154.685 66.4777 154.69 66.4706C154.695 66.4635 154.698 66.4549 154.698 66.4462C154.698 66.4374 154.695 66.4289 154.69 66.4218C154.685 66.4146 154.677 66.4092 154.669 66.4064C154.065 66.4064 148.55 67.1228 147.313 67.3054C144.841 67.6706 142.383 68.106 139.915 68.5227C139.213 68.6398 138.511 68.7756 137.808 68.902C137.106 69.0284 136.404 69.1783 135.701 69.2672C135.699 69.2601 135.695 69.2539 135.689 69.2496C135.683 69.2453 135.675 69.2433 135.668 69.2437C135.661 69.2441 135.654 69.2471 135.648 69.252C135.643 69.257 135.639 69.2637 135.638 69.271C135.636 69.2784 135.638 69.2859 135.641 69.2924C135.645 69.2988 135.651 69.3039 135.658 69.3067C135.664 69.3096 135.672 69.31 135.679 69.3079C135.686 69.3058 135.693 69.3014 135.697 69.2953Z" fill="#263238"/>
<path d="M147.974 90.5714C147.646 89.5834 130.097 66.3923 128.898 65.9475C128.758 65.8866 120.915 71.4725 120.915 71.4725C120.592 71.9033 105.679 68.7521 105.679 68.7521L105.529 86.7413L132.686 86.1654C132.686 86.1654 136.352 88.3192 139.709 90.0798C141.137 90.8817 142.611 91.5963 144.125 92.2195C145.506 92.552 148.306 91.5406 147.974 90.5714Z" fill="#D3766A"/>
<path d="M144.148 92.2008C142.633 91.5818 141.158 90.8671 139.733 90.061C136.38 88.3052 132.71 86.142 132.71 86.142L126.665 86.2731L117.197 70.9996C119.271 71.3695 120.821 71.5896 120.943 71.4678C120.943 71.4678 128.786 65.8866 128.926 65.9475C130.125 66.3923 147.655 89.5788 148.002 90.5714C148.348 91.564 145.506 92.552 144.148 92.2008Z" fill="white"/>
<path d="M148.133 90.5714C147.786 89.5553 130.158 66.3829 128.936 65.9194C128.467 65.7461 124.633 68.1153 120.924 71.4397L132.307 86.3667C132.307 86.3667 142.809 91.9292 144.214 92.2897C145.618 92.6503 148.479 91.6015 148.133 90.5714Z" fill="#3E3E3E"/>
<path d="M146.953 90.9553C143.9 87.144 131.97 71.4819 129.231 67.4832C129.231 67.4504 129.231 67.4317 129.259 67.4832C132.363 71.1962 144.181 86.952 147.018 90.9272C147.075 90.9928 147.018 91.0396 146.953 90.9553Z" fill="#263238"/>
<path d="M142.238 91.4469C141.897 91.0237 141.648 90.5341 141.507 90.0092C141.366 89.4844 141.336 88.9359 141.418 88.3988C141.554 87.4334 142.057 86.5577 142.823 85.9547C142.847 85.9547 142.879 85.9781 142.856 86.0015C142.188 86.7191 141.77 87.6339 141.665 88.6088C141.561 89.5838 141.775 90.5664 142.275 91.4095C142.278 91.4147 142.279 91.4206 142.278 91.4263C142.277 91.4321 142.274 91.4373 142.27 91.4415C142.266 91.4456 142.26 91.4483 142.255 91.4493C142.249 91.4503 142.243 91.4494 142.238 91.4469Z" fill="#263238"/>
<path d="M133.613 87.2938C132.41 85.7534 131.586 83.548 132.124 81.6002C132.124 81.5253 132.251 81.5581 132.265 81.6002C132.584 83.5017 133.107 85.3634 133.824 87.1534C133.843 87.1813 133.849 87.2155 133.843 87.2484C133.836 87.2814 133.817 87.3103 133.789 87.329C133.761 87.3476 133.727 87.3543 133.694 87.3478C133.661 87.3412 133.632 87.3218 133.613 87.2938Z" fill="#263238"/>
<path d="M134.99 88.146C133.786 86.6102 132.962 84.4002 133.501 82.4524C133.501 82.3775 133.627 82.4102 133.637 82.4758C133.96 84.3769 134.484 86.2384 135.2 88.0289C135.211 88.0563 135.211 88.0865 135.201 88.1141C135.191 88.1416 135.172 88.1646 135.146 88.1788C135.12 88.1931 135.09 88.1976 135.062 88.1916C135.033 88.1855 135.007 88.1693 134.99 88.146Z" fill="#263238"/>
<path d="M136.394 88.9888C135.191 87.453 134.367 85.243 134.905 83.2999C134.905 83.2249 135.032 83.253 135.041 83.2999C135.365 85.201 135.889 87.0624 136.605 88.853C136.623 88.8809 136.629 88.9149 136.622 88.9474C136.615 88.9799 136.596 89.0082 136.568 89.0262C136.54 89.0442 136.506 89.0504 136.473 89.0434C136.441 89.0364 136.412 89.0167 136.394 88.9888Z" fill="#263238"/>
<path d="M137.757 89.8363C136.554 88.2958 135.73 86.0905 136.268 84.1427C136.268 84.0678 136.394 84.1005 136.404 84.1427C136.727 86.0438 137.252 87.9053 137.968 89.6958C137.986 89.7238 137.993 89.758 137.987 89.7909C137.98 89.8238 137.961 89.8528 137.933 89.8714C137.905 89.89 137.87 89.8968 137.838 89.8902C137.805 89.8836 137.776 89.8642 137.757 89.8363Z" fill="#263238"/>
<path d="M126.295 71.2758C124.974 69.5294 127.7 67.4739 129.011 69.225C130.322 70.9762 127.62 73.027 126.295 71.2758Z" fill="#263238"/>
<path d="M132.93 90.2811C133.374 88.6189 133.079 86.8209 133.004 85.1306C133 85.0915 132.985 85.0542 132.963 85.022C132.94 84.9899 132.91 84.9638 132.874 84.9462C132.839 84.9286 132.8 84.92 132.761 84.9211C132.721 84.9222 132.683 84.9331 132.649 84.9527C132.644 84.9459 132.639 84.9403 132.632 84.9364C132.625 84.9325 132.617 84.9305 132.609 84.9305C132.601 84.9305 132.593 84.9325 132.586 84.9364C132.579 84.9403 132.573 84.9459 132.569 84.9527C131.227 86.1505 130.225 87.6818 129.666 89.3914C129.357 90.3887 129.474 91.8683 130.724 92.1586C131.974 92.4489 132.649 91.2503 132.93 90.2811ZM131.712 91.3346C129.905 92.463 130.041 89.9299 130.308 89.2229C130.485 88.7547 130.691 88.298 130.926 87.8557C131.427 86.9528 131.974 86.0761 132.564 85.2289C132.564 86.0577 132.607 86.8864 132.625 87.7152C132.616 88.6985 132.691 90.7071 131.712 91.3346Z" fill="#263238"/>
<path d="M127.395 80.1675C126.459 81.0618 127.133 82.3868 127.915 83.0845C129.275 84.2592 130.921 85.0553 132.686 85.3929C132.694 85.3944 132.702 85.394 132.71 85.3918C132.718 85.3896 132.725 85.3856 132.731 85.3801C132.737 85.3746 132.741 85.3679 132.744 85.3603C132.747 85.3528 132.748 85.3447 132.747 85.3367C132.784 85.3331 132.821 85.3207 132.852 85.3005C132.884 85.2804 132.911 85.2529 132.93 85.2205C132.949 85.1881 132.96 85.1516 132.963 85.114C132.965 85.0764 132.959 85.0388 132.944 85.0042C132.138 83.5153 131.459 81.825 130.223 80.631C129.502 79.9334 128.266 79.334 127.395 80.1675ZM131.263 83.0002C131.675 83.7213 132.049 84.4564 132.489 85.1634C131.553 84.6952 130.617 84.3019 129.732 83.7587C129.302 83.5012 128.891 83.2149 128.5 82.9019C127.906 82.4103 126.492 80.3267 128.627 80.3641C129.802 80.3875 130.776 82.1434 131.244 83.0002H131.263Z" fill="#263238"/>
<path d="M113.475 64.5756C113.475 64.5756 83.7098 59.3502 75.2443 61.0733C63.4357 63.4659 61.2632 77.433 70.0237 82.6116C81.144 89.2229 125.813 87.9446 125.813 87.9446L115.137 69.8571C115.137 69.8571 98.7164 66.397 83.8269 66.898L113.606 71.4491L113.475 64.5756Z" fill="#37474F"/>
<path d="M115.849 71.0231C115.837 70.9931 115.829 70.9616 115.825 70.9294C115.825 70.906 115.825 70.8779 115.825 70.8545C115.825 70.8311 115.793 70.7374 115.779 70.6766C115.743 70.5574 115.7 70.4401 115.652 70.3254C115.608 70.2074 115.558 70.0918 115.502 69.9789C115.446 69.8675 115.38 69.761 115.306 69.6605H115.278H115.249H115.221C113.419 69.3234 101.147 67.5722 99.3251 67.3615C97.5037 67.1508 95.6402 66.9823 93.7954 66.8278C90.1133 66.5079 86.4174 66.3751 82.7219 66.4298L81.6824 66.4579C81.6122 66.4579 81.5326 66.4204 81.4577 66.4017C81.2798 66.3595 81.1018 66.3174 80.9239 66.2846C80.5915 66.2191 80.2544 66.1723 79.9219 66.1207C79.2196 66.0131 78.5173 65.9381 77.8243 65.807C77.8156 65.807 77.8072 65.8105 77.8011 65.8166C77.795 65.8228 77.7915 65.8311 77.7915 65.8398C77.7915 65.8485 77.795 65.8568 77.8011 65.863C77.8072 65.8691 77.8156 65.8726 77.8243 65.8726C78.5219 66.0271 79.229 66.2284 79.9079 66.383L80.5119 66.5094C79.1587 66.5843 77.8102 66.6873 76.4571 66.809C76.4149 66.809 76.4149 66.8793 76.4571 66.8746C78.2972 66.7669 80.1467 66.7528 81.9915 66.7856C83.8363 66.8184 85.6483 66.8559 87.4744 66.9636C91.1687 67.1743 94.8583 67.5067 98.5385 67.9C100.603 68.1154 113.114 69.9415 115.189 70.0257C115.189 70.0726 115.221 70.1194 115.245 70.1662C115.268 70.213 115.362 70.391 115.423 70.4986C115.484 70.6063 115.54 70.7093 115.605 70.8124L115.708 70.9622L115.76 71.0371C115.782 71.0609 115.801 71.0877 115.816 71.1167C115.793 71.0933 115.872 71.0652 115.849 71.0231Z" fill="#263238"/>
<path d="M121.959 86.8256C121.299 85.7721 120.737 84.6437 120.133 83.548L118.307 80.2705C117.094 78.0885 112.735 70.7608 112.304 70.2458C112.276 70.213 112.22 70.2458 112.234 70.2879C112.44 70.8591 115.16 75.71 115.788 76.7916C117.038 78.9547 118.354 81.0758 119.651 83.2156C120.025 83.8243 120.409 84.4236 120.784 85.0323C121.158 85.641 121.556 86.2356 121.903 86.8584C121.922 86.9192 121.983 86.8818 121.959 86.8256Z" fill="#263238"/>
<path d="M112.183 72.0953C111.092 71.8331 109.977 71.6645 108.872 71.4538L105.562 70.8311C103.355 70.4222 101.143 70.0304 98.9271 69.6558C94.5071 68.9114 90.073 68.298 85.6108 67.8672C83.0965 67.6284 80.5727 67.4692 78.049 67.2819C77.9975 67.2819 77.9975 67.3662 78.049 67.3662C82.544 67.5676 87.0296 68.1762 91.4777 68.8177C95.9258 69.4592 100.276 70.1428 104.668 70.8826L108.381 71.5194C109.64 71.7394 110.895 71.9876 112.164 72.1655C112.211 72.1749 112.229 72.1046 112.183 72.0953Z" fill="#263238"/>
<path d="M108.484 36.6694C109.345 42.0399 113.915 58.718 118.785 60.4973C121.964 61.6632 138.562 60.7033 141.259 57.8846C142.444 56.6532 141.011 46.1556 139.19 46.2867C137.368 46.4178 124.455 48.5997 123.205 48.0425C121.954 47.4853 116.055 36.5476 112.857 32.446C107.931 26.1296 107.833 32.446 108.484 36.6694Z" fill="#D3766A"/>
<path d="M110.417 46.7081L119.538 41.3798C119.538 41.3798 115.793 35.4754 112.796 31.9825C109.799 28.4895 107.219 27.6702 107.973 34.8527C108.363 38.8804 109.182 42.8549 110.417 46.7081Z" fill="#263238"/>
<path d="M115.704 64.3508C115.212 64.7535 87.6523 61.9301 87.5353 61.7381C87.2169 61.2184 92.9573 44.2219 96.6703 37.9196C101.427 29.838 103.591 29.3277 104.888 28.9765C106.545 28.5083 109.261 28.8828 110.506 29.7818C111.199 30.2782 113.063 34.3564 113.695 37.5778C114.969 44.0346 116.13 63.9809 115.704 64.3508Z" fill="#3E3E3E"/>
<path d="M109.823 33.6166C108.249 33.9958 105.538 31.6032 104.466 29.6601C104.391 29.5243 104.593 28.1149 104.752 26.3825C104.845 25.3384 104.925 24.1678 104.92 23.105C104.92 22.8849 111.639 24.7063 111.639 24.7063C111.262 26.0457 111.05 27.4263 111.007 28.8173C111.011 28.965 111.026 29.1123 111.054 29.2574C111.057 29.2807 111.057 29.3043 111.054 29.3276C111.204 30.1704 111.34 33.2467 109.823 33.6166Z" fill="#D3766A"/>
<path d="M105.332 23.1471C105.651 24.9544 106.793 29.3183 110.375 29.3838C110.605 29.3889 110.835 29.3764 111.064 29.3464C111.067 29.3215 111.067 29.2963 111.064 29.2715C111.034 29.1265 111.017 28.9793 111.012 28.8313C111.054 27.44 111.268 26.0593 111.649 24.7203C111.649 24.7203 106.789 23.3953 105.332 23.1471Z" fill="#263238"/>
<path d="M105.276 14.2508C104.096 16.4421 103.979 23.428 105.337 25.2634C107.304 27.9276 111.204 28.9249 113.634 26.4012C115.975 23.9617 115.975 14.8501 114.402 13.113C112.075 10.5424 107.018 11.0013 105.276 14.2508Z" fill="#D3766A"/>
<path d="M110.581 20.4829C110.581 20.4829 110.544 20.4829 110.544 20.525C110.544 20.9932 110.474 21.5364 110.047 21.6815V21.7096C110.572 21.6487 110.642 20.9277 110.581 20.4829Z" fill="#263238"/>
<path d="M110.174 19.9819C109.42 19.907 109.326 21.424 110.029 21.4942C110.731 21.5645 110.806 20.0474 110.174 19.9819Z" fill="#263238"/>
<path d="M113.208 20.6562C113.208 20.6562 113.245 20.6843 113.245 20.703C113.199 21.1712 113.245 21.7144 113.643 21.897V21.9251C113.124 21.8174 113.096 21.0963 113.208 20.6562Z" fill="#263238"/>
<path d="M113.658 20.1926C114.421 20.1926 114.383 21.7003 113.681 21.7096C112.979 21.719 113.025 20.2019 113.658 20.1926Z" fill="#263238"/>
<path d="M109.546 18.7411C109.754 18.7332 109.96 18.7113 110.165 18.6756C110.387 18.6851 110.606 18.6209 110.787 18.493C110.836 18.4421 110.867 18.3763 110.875 18.3059C110.883 18.2355 110.867 18.1646 110.829 18.1044C110.738 17.9949 110.619 17.912 110.485 17.8642C110.351 17.8165 110.206 17.8056 110.066 17.8328C109.777 17.8454 109.502 17.9636 109.294 18.1652C109.25 18.2148 109.221 18.2758 109.211 18.3412C109.201 18.4065 109.209 18.4734 109.236 18.534C109.263 18.5946 109.306 18.6463 109.361 18.683C109.416 18.7197 109.48 18.7399 109.546 18.7411Z" fill="#263238"/>
<path d="M114.421 19.1298C114.22 19.0755 114.023 19.0098 113.831 18.9331C113.612 18.8968 113.413 18.7879 113.264 18.6241C113.226 18.5634 113.209 18.4915 113.217 18.4201C113.224 18.3487 113.256 18.282 113.306 18.2308C113.419 18.1441 113.552 18.0892 113.693 18.0719C113.834 18.0546 113.977 18.0755 114.107 18.1325C114.384 18.2 114.627 18.3665 114.791 18.6007C114.829 18.6587 114.85 18.727 114.849 18.7968C114.848 18.8665 114.826 18.9344 114.786 18.9916C114.746 19.0488 114.69 19.0925 114.625 19.1172C114.56 19.1418 114.488 19.1462 114.421 19.1298Z" fill="#263238"/>
<path d="M110.108 23.4234C110.216 23.6171 110.362 23.7864 110.539 23.9202C110.716 24.054 110.918 24.1496 111.134 24.2006C111.321 24.2517 111.516 24.2722 111.71 24.2615C111.745 24.2663 111.782 24.2663 111.817 24.2615H111.92C111.946 24.2587 111.97 24.2476 111.989 24.2298C112.007 24.212 112.019 24.1886 112.023 24.1632V24.0836V24.0414C112.056 23.6809 112.056 23.105 112.056 23.105C112.183 23.1799 112.838 23.5264 112.838 23.3344C112.894 21.7123 112.786 20.0886 112.515 18.4883C112.512 18.4789 112.506 18.4708 112.498 18.465C112.49 18.4592 112.48 18.4561 112.471 18.4561C112.461 18.4561 112.451 18.4592 112.443 18.465C112.435 18.4708 112.429 18.4789 112.426 18.4883C112.365 20.0007 112.571 21.5083 112.534 23.0254C112.299 22.8997 112.049 22.8067 111.789 22.7491C111.738 22.7491 111.813 23.8167 111.789 23.9806C111.494 23.9945 111.199 23.9491 110.921 23.847C110.644 23.7448 110.39 23.588 110.174 23.3859C110.122 23.3578 110.085 23.3859 110.108 23.4234Z" fill="#263238"/>
<path d="M111.504 24.0836C111.29 24.3309 111.016 24.5182 110.708 24.6267C110.539 24.6805 110.357 24.6805 110.188 24.6267C109.818 24.505 109.832 24.1585 109.916 23.8682C109.966 23.7149 110.032 23.5674 110.113 23.4281C110.495 23.7883 110.982 24.0178 111.504 24.0836Z" fill="#263238"/>
<path d="M110.708 24.608C110.539 24.6618 110.357 24.6618 110.188 24.608C109.818 24.4862 109.832 24.1397 109.916 23.8494C110.115 23.8669 110.301 23.9516 110.445 24.0895C110.589 24.2275 110.682 24.4103 110.708 24.608Z" fill="#FF98B9"/>
<path d="M104.63 20.5063C106.082 20.923 107.557 14.6722 107.557 14.6722C108.297 15.3131 109.13 15.8373 110.029 16.2267C110.961 16.5559 111.927 16.7804 112.908 16.8963C113.128 16.8963 110.89 15.192 110.89 15.192C112.27 15.7729 113.753 16.0692 115.249 16.0629C116.368 15.9973 116.308 15.5197 116.354 15.1545C116.401 14.7893 114.973 11.0154 110.445 10.5799C109.53 10.5142 108.613 10.676 107.776 11.051C106.938 11.426 106.207 12.0025 105.646 12.7291C105.646 12.7291 103.563 14.1338 103.347 15.1732C103.052 16.5592 103.099 20.0662 104.63 20.5063Z" fill="#263238"/>
<path d="M112.946 20.8762C113.021 19.8086 113.657 19.0033 114.35 19.036C115.043 19.0688 115.568 19.9725 115.493 21.0588C115.418 22.1451 114.781 22.9317 114.088 22.8942C113.395 22.8568 112.871 21.939 112.946 20.8762ZM113.203 20.8762C113.138 21.8126 113.54 22.5805 114.102 22.618C114.664 22.6554 115.175 21.939 115.24 21.0213C115.306 20.1036 114.903 19.317 114.341 19.2748C113.779 19.2327 113.274 19.9725 113.203 20.8949V20.8762Z" fill="#455A64"/>
<path d="M108.095 20.5297C108.143 20.1796 108.293 19.8513 108.526 19.5853C108.758 19.3192 109.064 19.127 109.404 19.0323C109.745 18.9376 110.106 18.9445 110.442 19.0523C110.779 19.16 111.077 19.3639 111.299 19.6387C111.521 19.9135 111.658 20.2473 111.693 20.599C111.728 20.9507 111.659 21.305 111.495 21.6181C111.332 21.9313 111.08 22.1897 110.771 22.3615C110.462 22.5334 110.11 22.6111 109.757 22.5852C109.265 22.5321 108.813 22.286 108.502 21.9008C108.19 21.5155 108.044 21.0225 108.095 20.5297ZM108.352 20.5297C108.355 20.8309 108.445 21.1247 108.612 21.3754C108.779 21.626 109.016 21.8226 109.293 21.9411C109.569 22.0596 109.875 22.0948 110.171 22.0425C110.468 21.9902 110.743 21.8527 110.963 21.6466C111.182 21.4406 111.337 21.175 111.408 20.8824C111.479 20.5897 111.464 20.2827 111.363 19.9988C111.263 19.7149 111.082 19.4665 110.842 19.2839C110.603 19.1013 110.315 18.9924 110.015 18.9705C109.586 18.9592 109.17 19.1185 108.858 19.4134C108.547 19.7084 108.365 20.1149 108.352 20.5438V20.5297Z" fill="#455A64"/>
<path d="M111.625 20.6047C112.613 20.3331 113.03 20.6843 113.03 20.6843L113.203 20.4923C113.203 20.4923 112.693 20.0241 111.55 20.3565L111.625 20.6047Z" fill="#455A64"/>
<path d="M108.235 20.3658L108.301 20.1176C108.137 20.0755 104.246 19.0641 103.82 19.0126C103.394 18.9611 102.275 19.4809 102.153 19.5277L102.266 19.7618C102.736 19.5159 103.244 19.3482 103.769 19.2655C104.115 19.3123 106.84 20.0053 108.235 20.3658Z" fill="#455A64"/>
<path d="M105.618 20.0194C105.618 20.0194 104.48 17.5565 103.389 17.9264C102.298 18.2963 102.879 21.6722 103.965 22.3137C104.099 22.4055 104.25 22.4694 104.41 22.5015C104.569 22.5336 104.733 22.5333 104.892 22.5005C105.051 22.4677 105.202 22.4032 105.336 22.3107C105.469 22.2183 105.583 22.0999 105.67 21.9625L105.618 20.0194Z" fill="#D3766A"/>
<path d="M103.577 18.8863C103.577 18.8863 103.577 18.8863 103.577 18.9191C104.335 19.3873 104.63 20.2301 104.789 21.0729C104.756 20.9839 104.705 20.903 104.638 20.8356C104.571 20.7682 104.491 20.7159 104.402 20.6822C104.313 20.6485 104.218 20.6341 104.124 20.6402C104.029 20.6462 103.937 20.6724 103.853 20.7171C103.825 20.7171 103.853 20.7639 103.853 20.7639C104.004 20.7444 104.158 20.7721 104.293 20.8434C104.428 20.9146 104.537 21.0259 104.607 21.1619C104.722 21.3917 104.811 21.6335 104.874 21.8829C104.902 21.9625 105.037 21.9438 105.028 21.8548C105.225 20.806 104.677 19.1953 103.577 18.8863Z" fill="#263238"/>
<path d="M121.599 54.4713C121.599 56.1991 116.701 55.7636 115.479 55.9135C114.257 56.0633 114.074 56.3817 114.692 56.7375C114.82 56.7977 114.953 56.8448 115.09 56.878C113.189 56.4847 106.906 54.2934 106.906 54.2934C106.906 54.2934 110.68 53.0432 112.679 52.6406C114.678 52.2379 121.603 52.7342 121.599 54.4713Z" fill="#D3766A"/>
<path d="M133.346 45.5844C134.326 44.6986 135.4 43.923 136.549 43.2713C138.075 42.4894 141.479 41.0847 142.06 40.6586L143.118 40.4198L139.672 63.5735L130.607 67.6284L114.173 65.924L116.481 44.0673L117.553 43.8098C117.553 43.8098 119.651 44.1094 121.36 44.1844C123.069 44.2593 128.823 43.5195 133.346 45.5844Z" fill="white"/>
<path d="M129.296 68.4103L132.124 46.1837L115.769 43.9456L113.334 66.5515L129.296 68.4103Z" fill="#3E3E3E"/>
<path opacity="0.1" d="M129.296 68.4103L132.124 46.1837L115.769 43.9456L113.334 66.5515L129.296 68.4103Z" fill="black"/>
<path d="M129.296 68.4104L131.586 68.1528L134.437 45.9262L132.124 46.1838L129.296 68.4104Z" fill="#3E3E3E"/>
<path d="M131.586 68.1528L134.437 45.9262L143.549 40.1483L139.976 63.7375L131.586 68.1528Z" fill="#3E3E3E"/>
<path opacity="0.1" d="M131.586 68.1528L134.437 45.9262L143.549 40.1483L139.976 63.7375L131.586 68.1528Z" fill="black"/>
<path d="M97.2228 34.6046C93.772 38.4674 82.6751 54.5884 84.1594 59.5375C85.1333 62.7823 103.225 67.3006 107.102 67.7876C108.797 67.9983 111.021 56.3489 109.827 54.9723C108.633 53.5957 97.7332 53.5676 97.4335 52.2145C97.1339 50.8613 102.781 38.7296 103.708 34.1785C105.332 26.2561 99.4047 32.1511 97.2228 34.6046Z" fill="#D3766A"/>
<path d="M125.349 61.3308C125.269 62.8572 122.9 63.3675 122.736 63.3956C122.881 63.3956 124.989 63.1709 124.801 64.6879C124.614 66.205 122.53 67.0665 122.53 67.0665C122.53 67.0665 123.228 67.427 122.596 68.4712C121.683 69.9695 117.914 70.4237 115.905 70.1989C113.896 69.9742 106.653 67.6518 105.553 67.2725L106.896 54.2934C106.896 54.2934 113.18 56.4846 115.081 56.8779H115.109C116.422 57.186 117.753 57.4143 119.094 57.5616C121.224 57.7114 124.155 56.1569 124.511 57.702C124.834 59.0833 122.694 59.9635 122.694 59.9635C122.694 59.9635 125.433 59.7528 125.349 61.3308Z" fill="#D3766A"/>
<path d="M122.586 59.9589C119.524 60.9796 118.007 60.8953 114.926 60.1321C114.915 60.1314 114.904 60.1343 114.895 60.1406C114.885 60.1468 114.878 60.1559 114.874 60.1665C114.871 60.1771 114.871 60.1886 114.874 60.1993C114.877 60.21 114.884 60.2193 114.894 60.2257C117.843 61.2465 119.73 61.6304 122.643 60.104C122.783 60.0291 122.732 59.912 122.586 59.9589Z" fill="#263238"/>
<path d="M122.853 63.3254C119.576 64.1073 117.937 64.0277 114.65 63.4705C114.603 63.4705 114.585 63.5407 114.65 63.5501C117.829 64.3695 119.721 64.7066 122.886 63.4986C123.008 63.4424 123.003 63.2879 122.853 63.3254Z" fill="#263238"/>
<path d="M122.488 67.0478C119.267 67.5769 117.459 67.5676 114.336 66.6171C114.323 66.6158 114.309 66.6193 114.298 66.6268C114.286 66.6343 114.278 66.6454 114.273 66.6584C114.269 66.6714 114.269 66.6855 114.274 66.6984C114.278 66.7113 114.287 66.7222 114.299 66.7294C117.385 68.0077 119.637 68.0358 122.493 67.1462C122.685 67.09 122.69 67.0151 122.488 67.0478Z" fill="#263238"/>
<path d="M143.385 46.5817C144.41 48.0426 146.663 49.6907 147.023 50.9643C147.127 51.2737 147.129 51.6085 147.028 51.919C146.927 52.2294 146.728 52.4989 146.461 52.6874C146.461 52.6874 147.866 53.1134 148.02 54.3261C148.1 54.9489 147.173 55.6231 147.173 55.6231C147.487 55.7363 147.763 55.9339 147.971 56.1942C148.179 56.4545 148.311 56.7673 148.353 57.098C148.409 57.9596 147.473 58.5027 147.473 58.5027C147.473 58.5027 148.367 59.3689 148.137 60.2679C147.669 62.094 140.351 63.3441 138.773 60.8391C138.033 59.6686 139.841 59.4626 139.841 59.4626C139.841 59.4626 137.167 59.1348 136.872 57.6318C136.577 56.1288 138.937 55.9977 138.937 55.9977C138.937 55.9977 136.352 55.6559 136.202 54.0639C136.053 52.472 138.431 52.6827 138.431 52.6827C138.431 52.6827 136.615 51.8586 136.778 50.6131C137.05 48.5576 140.552 50.4867 142.097 49.8265L142.533 47.0172L143.385 46.5817Z" fill="#D3766A"/>
<path d="M145.249 48.6372C144.396 47.1717 146.007 44.8914 145.394 43.3837C144.565 41.3236 142.519 43.8286 142.514 47.0218L142.95 49.5034L145.249 48.6372Z" fill="#D3766A"/>
<path d="M147.337 58.6104C147.36 58.6104 147.374 58.6385 147.337 58.6479C144.939 59.6969 142.278 59.9909 139.709 59.4907C139.63 59.4907 139.62 59.3315 139.709 59.3362C142.274 59.4673 144.843 59.2228 147.337 58.6104Z" fill="#100E3A"/>
<path d="M147.21 55.6325C147.238 55.6325 147.253 55.67 147.21 55.684C144.554 56.8126 141.581 56.9538 138.829 56.082C138.736 56.0492 138.684 55.9228 138.796 55.9509C140.702 56.4566 144.883 56.2365 147.21 55.6325Z" fill="#100E3A"/>
<path d="M138.235 52.5563C140.932 53.3804 143.619 53.2586 146.368 52.7342C146.4 52.7342 146.41 52.781 146.368 52.7951C145.094 53.4178 143.31 53.5677 141.91 53.5677C140.61 53.5854 139.329 53.2626 138.192 52.6312C138.16 52.6453 138.178 52.5376 138.235 52.5563Z" fill="#100E3A"/>
<path d="M90.8034 41.5343L100.575 45.5844C100.575 45.5844 103.015 39.0293 103.975 34.5296C104.934 30.03 104.026 27.4688 98.7445 32.4273C95.7817 35.1725 93.1197 38.2253 90.8034 41.5343Z" fill="#263238"/>
<path d="M130.041 10.8469C129.703 12.9492 127.891 14.705 127.891 14.705C127.891 14.705 125.4 14.293 123.93 12.7478C122.699 11.4649 122.666 9.67161 123.743 8.94119C125.288 7.89236 126.651 10.7251 126.651 10.7251C126.651 10.7251 126.159 7.62079 128.027 7.60206C129.329 7.5927 130.307 9.10038 130.041 10.8469Z" fill="#3E3E3E"/>
<path d="M121.598 19.8976C120.742 20.5727 119.714 20.9944 118.63 21.115C117.916 20.2928 117.445 19.2873 117.272 18.212C117.155 16.9291 117.946 15.8943 118.887 15.9692C120.236 16.0722 119.73 18.3103 119.73 18.3103C119.73 18.3103 120.859 16.3298 121.922 17.1632C122.666 17.7344 122.549 19.0267 121.598 19.8976Z" fill="#3E3E3E"/>
<path d="M120.409 1.60875C120.115 2.18924 119.664 2.6758 119.108 3.01342C118.51 2.75049 117.997 2.32557 117.628 1.78668C117.235 1.11712 117.403 0.349229 117.932 0.147893C118.691 -0.137724 118.986 1.2014 118.986 1.2014C118.986 1.2014 119.094 -0.165818 119.885 0.0167891C120.437 0.138527 120.709 0.87364 120.409 1.60875Z" fill="#3E3E3E"/>
</svg>
