<svg width="257" height="192" viewBox="0 0 257 192" fill="none" xmlns="http://www.w3.org/2000/svg">
<path d="M256.442 167.918H0V168.046H256.442V167.918Z" fill="#EBEBEB"/>
<path d="M230.747 176.171H213.76V176.299H230.747V176.171Z" fill="#EBEBEB"/>
<path d="M169.877 177.566H165.421V177.694H169.877V177.566Z" fill="#EBEBEB"/>
<path d="M213.247 171.411H203.405V171.539H213.247V171.411Z" fill="#EBEBEB"/>
<path d="M49.0574 172.273H26.9059V172.401H49.0574V172.273Z" fill="#EBEBEB"/>
<path d="M56.8737 172.273H53.6271V172.401H56.8737V172.273Z" fill="#EBEBEB"/>
<path d="M115.476 174.437H67.4289V174.565H115.476V174.437Z" fill="#EBEBEB"/>
<path d="M121.554 145.044H22.5207C21.7449 145.042 21.0013 144.733 20.4532 144.184C19.9051 143.635 19.5973 142.891 19.5973 142.115V2.90292C19.604 2.13156 19.9149 1.39401 20.4622 0.850474C21.0096 0.30694 21.7493 0.00132139 22.5207 0H121.554C122.33 0 123.075 0.308545 123.624 0.857758C124.174 1.40697 124.482 2.15186 124.482 2.92857V142.115C124.482 142.892 124.174 143.637 123.624 144.186C123.075 144.735 122.33 145.044 121.554 145.044ZM22.5207 0.102577C21.7789 0.103936 21.068 0.39957 20.5439 0.92459C20.0198 1.44961 19.7255 2.16111 19.7255 2.90292V142.115C19.7255 142.857 20.0198 143.568 20.5439 144.093C21.068 144.618 21.7789 144.914 22.5207 144.915H121.554C122.296 144.914 123.007 144.619 123.532 144.094C124.057 143.569 124.353 142.857 124.354 142.115V2.90292C124.353 2.16064 124.057 1.44915 123.532 0.924277C123.007 0.399403 122.296 0.103933 121.554 0.102577H22.5207Z" fill="#EBEBEB"/>
<path d="M232.495 145.044H133.458C132.681 145.042 131.937 144.733 131.388 144.184C130.839 143.635 130.53 142.891 130.529 142.115V2.90292C130.537 2.13109 130.849 1.39355 131.397 0.850153C131.945 0.30676 132.686 0.00130698 133.458 0H232.495C233.266 0.0026693 234.004 0.308884 234.551 0.852274C235.097 1.39566 235.407 2.13244 235.414 2.90292V142.115C235.414 142.89 235.107 143.633 234.56 144.182C234.013 144.731 233.27 145.041 232.495 145.044ZM133.458 0.102577C132.715 0.103933 132.004 0.399403 131.479 0.924277C130.954 1.44915 130.659 2.16064 130.657 2.90292V142.115C130.659 142.857 130.954 143.569 131.479 144.094C132.004 144.619 132.715 144.914 133.458 144.915H232.495C233.238 144.914 233.949 144.619 234.474 144.094C234.999 143.569 235.294 142.857 235.296 142.115V2.90292C235.294 2.16064 234.999 1.44915 234.474 0.924277C233.949 0.399403 233.238 0.103933 232.495 0.102577H133.458Z" fill="#EBEBEB"/>
<path d="M222.581 18.7972H28.3163V86.6415H222.581V18.7972Z" fill="#E6E6E6"/>
<path d="M225.187 18.7972H29.5319V86.6415H225.187V18.7972Z" fill="#F0F0F0"/>
<path d="M222.581 86.6415H28.3163V89.0572H222.581V86.6415Z" fill="#E6E6E6"/>
<path d="M226.746 86.6415H31.091V89.0572H226.746V86.6415Z" fill="#F0F0F0"/>
<path d="M221.54 83V22.4387L33.1734 22.4387V83L221.54 83Z" fill="#FAFAFA"/>
<path d="M152.973 83L158.804 22.4387H168.898L163.061 83H152.973Z" fill="white"/>
<path d="M93.4064 83L99.2379 22.4387H109.326L103.495 83H93.4064Z" fill="white"/>
<path d="M35.6557 73.2655C35.5605 73.2655 35.4692 73.2277 35.4018 73.1603C35.3345 73.093 35.2967 73.0017 35.2967 72.9065V24.8903C35.2967 24.795 35.3345 24.7037 35.4018 24.6364C35.4692 24.5691 35.5605 24.5312 35.6557 24.5312C35.7509 24.5312 35.8422 24.5691 35.9096 24.6364C35.9769 24.7037 36.0147 24.795 36.0147 24.8903V72.9065C36.0147 73.0017 35.9769 73.093 35.9096 73.1603C35.8422 73.2277 35.7509 73.2655 35.6557 73.2655Z" fill="#F0F0F0"/>
<path d="M165.231 83L171.062 22.4387H174.996L169.165 83H165.231Z" fill="white"/>
<path d="M221.545 83.0051V22.4438H221.084V83.0051H221.545Z" fill="#E6E6E6"/>
<path opacity="0.5" d="M226.049 26.829H31.7834L31.4449 23.8542H225.71L226.049 26.829Z" fill="#E0E0E0"/>
<path opacity="0.5" d="M226.049 31.7116H31.7834L31.4449 28.742H225.71L226.049 31.7116Z" fill="#E0E0E0"/>
<path opacity="0.5" d="M226.049 36.5994H31.7834L31.4449 33.6247H225.71L226.049 36.5994Z" fill="#E0E0E0"/>
<path opacity="0.5" d="M226.049 41.4821H31.7834L31.4449 38.5125H225.71L226.049 41.4821Z" fill="#E0E0E0"/>
<path opacity="0.5" d="M226.049 46.3647H31.7834L31.4449 43.3951H225.71L226.049 46.3647Z" fill="#E0E0E0"/>
<path opacity="0.5" d="M226.049 51.2525H31.7834L31.4449 48.2778H225.71L226.049 51.2525Z" fill="#E0E0E0"/>
<path d="M150.372 147.075H179.607C180.065 147.073 180.505 146.891 180.829 146.567C181.154 146.244 181.338 145.805 181.34 145.346C181.339 144.887 181.156 144.447 180.831 144.122C180.506 143.797 180.066 143.614 179.607 143.613H150.372C149.913 143.614 149.473 143.797 149.148 144.122C148.823 144.447 148.64 144.887 148.639 145.346C148.642 145.805 148.825 146.244 149.15 146.567C149.475 146.891 149.914 147.073 150.372 147.075Z" fill="#EBEBEB"/>
<path d="M184.038 143.613H185.013L188.721 119.42H187.746L184.038 143.613Z" fill="#E0E0E0"/>
<path d="M169.206 143.613H170.175L173.883 119.42H172.914L169.206 143.613Z" fill="#E0E0E0"/>
<path d="M169.165 138.751H188.228C188.866 138.73 189.477 138.489 189.958 138.07C190.438 137.65 190.759 137.077 190.865 136.448L193.773 116.245C193.826 115.96 193.814 115.666 193.739 115.385C193.663 115.105 193.526 114.845 193.337 114.624C193.149 114.403 192.913 114.227 192.648 114.109C192.382 113.992 192.094 113.934 191.803 113.942H172.734C172.097 113.963 171.486 114.204 171.005 114.623C170.525 115.043 170.204 115.616 170.098 116.245L167.2 136.427C167.145 136.714 167.155 137.009 167.228 137.291C167.302 137.574 167.438 137.836 167.627 138.059C167.815 138.281 168.051 138.459 168.317 138.579C168.583 138.699 168.873 138.757 169.165 138.751Z" fill="#EBEBEB"/>
<path d="M171.98 147.075H185.351C185.809 147.073 186.248 146.891 186.572 146.567C186.896 146.243 187.078 145.804 187.08 145.346C187.078 144.888 186.896 144.448 186.572 144.124C186.248 143.799 185.81 143.615 185.351 143.613H171.98C171.521 143.614 171.082 143.797 170.758 144.122C170.434 144.447 170.252 144.887 170.252 145.346C170.253 145.804 170.436 146.243 170.76 146.567C171.083 146.891 171.522 147.073 171.98 147.075Z" fill="#F5F5F5"/>
<path d="M164.702 167.918H165.677L169.385 147.075H168.411L164.702 167.918Z" fill="#E0E0E0"/>
<path d="M147.849 167.918H148.818L152.527 147.075H151.557L147.849 167.918Z" fill="#E0E0E0"/>
<path d="M171.226 167.918H170.257L166.549 147.075H167.518L171.226 167.918Z" fill="#E0E0E0"/>
<path d="M188.085 167.918H187.11L183.402 147.075H184.377L188.085 167.918Z" fill="#E0E0E0"/>
<path d="M63.5515 147.075H34.3632C33.9048 147.073 33.4654 146.891 33.1407 146.567C32.816 146.244 32.6324 145.805 32.6297 145.346C32.6297 144.886 32.8121 144.445 33.1371 144.119C33.4621 143.793 33.903 143.609 34.3632 143.608H63.5976C64.057 143.609 64.4971 143.792 64.8219 144.117C65.1467 144.442 65.3298 144.882 65.3312 145.341C65.3305 145.572 65.2837 145.801 65.1935 146.014C65.1033 146.228 64.9714 146.42 64.8057 146.582C64.6399 146.743 64.4436 146.87 64.2282 146.955C64.0129 147.039 63.7828 147.08 63.5515 147.075Z" fill="#EBEBEB"/>
<path d="M29.8858 143.613H28.9113L25.2031 119.42H26.1776L29.8858 143.613Z" fill="#E0E0E0"/>
<path d="M44.7184 143.613H43.749L40.0409 119.42H41.0102L44.7184 143.613Z" fill="#E0E0E0"/>
<path d="M44.7645 138.751H25.7109C25.0711 138.728 24.4591 138.484 23.9793 138.06C23.4994 137.636 23.1815 137.059 23.0798 136.427L20.1717 116.225C20.1189 115.939 20.1305 115.645 20.2058 115.365C20.2812 115.084 20.4182 114.824 20.607 114.603C20.7958 114.383 21.0315 114.207 21.297 114.089C21.5624 113.971 21.8508 113.914 22.1412 113.922H41.1897C41.8274 113.942 42.4382 114.183 42.9187 114.603C43.3992 115.023 43.7197 115.596 43.8259 116.225L46.734 136.427C46.7893 136.714 46.7796 137.01 46.7055 137.293C46.6314 137.575 46.4948 137.838 46.3058 138.061C46.1169 138.284 45.8803 138.461 45.6135 138.581C45.3468 138.7 45.0567 138.758 44.7645 138.751Z" fill="#EBEBEB"/>
<path d="M41.9437 147.075H28.5728C28.1148 147.073 27.6759 146.891 27.3521 146.567C27.0282 146.243 26.8457 145.804 26.8444 145.346C26.8444 144.887 27.0261 144.446 27.35 144.12C27.6738 143.795 28.1134 143.61 28.5728 143.608H41.9437C42.4025 143.609 42.8422 143.792 43.1662 144.117C43.4902 144.442 43.6721 144.882 43.6721 145.341C43.6721 145.8 43.4902 146.24 43.1662 146.565C42.8422 146.89 42.4025 147.073 41.9437 147.075Z" fill="#F5F5F5"/>
<path d="M49.2215 167.918H48.247L44.5388 147.075H45.5133L49.2215 167.918Z" fill="#E0E0E0"/>
<path d="M66.0749 167.918H65.1055L61.3922 147.075H62.3667L66.0749 167.918Z" fill="#E0E0E0"/>
<path d="M42.6976 167.918H43.667L47.3751 147.075H46.4058L42.6976 167.918Z" fill="#E0E0E0"/>
<path d="M25.8391 167.918H26.8136L30.5217 147.075H29.5473L25.8391 167.918Z" fill="#E0E0E0"/>
<path d="M182.038 147.075H152.839C152.381 147.073 151.942 146.891 151.617 146.567C151.292 146.244 151.109 145.805 151.106 145.346C151.106 144.886 151.288 144.445 151.613 144.119C151.938 143.793 152.379 143.609 152.839 143.608H182.074C182.533 143.609 182.973 143.792 183.298 144.117C183.623 144.442 183.806 144.882 183.807 145.341C183.807 145.572 183.76 145.8 183.671 146.012C183.581 146.224 183.45 146.417 183.285 146.578C183.121 146.74 182.926 146.866 182.712 146.952C182.497 147.037 182.268 147.079 182.038 147.075Z" fill="#EBEBEB"/>
<path d="M148.367 143.613H147.398L143.69 119.42H144.659L148.367 143.613Z" fill="#E0E0E0"/>
<path d="M163.205 143.613H162.23L158.522 119.42H159.497L163.205 143.613Z" fill="#E0E0E0"/>
<path d="M163.246 138.751H144.197C143.556 138.731 142.941 138.488 142.458 138.064C141.976 137.64 141.657 137.061 141.556 136.427L138.648 116.225C138.595 115.939 138.607 115.645 138.682 115.365C138.757 115.084 138.894 114.824 139.083 114.603C139.272 114.383 139.508 114.207 139.773 114.089C140.039 113.971 140.327 113.914 140.617 113.922H159.666C160.304 113.942 160.915 114.182 161.396 114.602C161.877 115.022 162.197 115.595 162.302 116.225L165.215 136.427C165.272 136.714 165.263 137.01 165.189 137.293C165.115 137.577 164.979 137.839 164.79 138.063C164.6 138.286 164.363 138.464 164.096 138.583C163.829 138.702 163.538 138.759 163.246 138.751Z" fill="#EBEBEB"/>
<path d="M160.43 147.075H147.059C146.601 147.073 146.161 146.891 145.837 146.567C145.512 146.244 145.328 145.805 145.326 145.346C145.327 144.887 145.51 144.447 145.835 144.122C146.16 143.797 146.6 143.614 147.059 143.613H160.43C160.889 143.615 161.327 143.799 161.651 144.124C161.975 144.448 162.157 144.888 162.159 145.346C162.157 145.804 161.975 146.243 161.651 146.567C161.327 146.891 160.888 147.073 160.43 147.075Z" fill="#F5F5F5"/>
<path d="M167.708 167.918H166.733L163.025 147.075H163.995L167.708 167.918Z" fill="#E0E0E0"/>
<path d="M184.561 167.918H183.587L179.879 147.075H180.853L184.561 167.918Z" fill="#E0E0E0"/>
<path d="M161.179 167.918H162.153L165.862 147.075H164.887L161.179 167.918Z" fill="#E0E0E0"/>
<path d="M144.326 167.918H145.295L149.008 147.075H148.034L144.326 167.918Z" fill="#E0E0E0"/>
<path d="M194.157 147.075H223.392C223.85 147.073 224.29 146.891 224.614 146.567C224.939 146.244 225.123 145.805 225.125 145.346C225.124 144.887 224.941 144.447 224.616 144.122C224.291 143.797 223.851 143.614 223.392 143.613H194.157C193.698 143.614 193.258 143.797 192.933 144.122C192.608 144.447 192.425 144.887 192.424 145.346C192.427 145.805 192.61 146.244 192.935 146.567C193.26 146.891 193.699 147.073 194.157 147.075Z" fill="#EBEBEB"/>
<path d="M227.823 143.613H228.798L232.506 119.42H231.536L227.823 143.613Z" fill="#E0E0E0"/>
<path d="M212.991 143.613H213.96L217.673 119.42H216.699L212.991 143.613Z" fill="#E0E0E0"/>
<path d="M212.949 138.751H231.998C232.636 138.73 233.247 138.489 233.727 138.07C234.208 137.65 234.528 137.077 234.634 136.448L237.542 116.245C237.595 115.96 237.583 115.666 237.508 115.385C237.433 115.105 237.296 114.845 237.107 114.624C236.918 114.403 236.682 114.227 236.417 114.109C236.152 113.992 235.863 113.934 235.573 113.942H216.519C215.882 113.962 215.271 114.203 214.791 114.623C214.311 115.043 213.992 115.616 213.888 116.245L210.975 136.427C210.919 136.715 210.929 137.011 211.004 137.294C211.078 137.577 211.215 137.84 211.405 138.063C211.594 138.286 211.831 138.463 212.099 138.582C212.366 138.701 212.657 138.759 212.949 138.751Z" fill="#EBEBEB"/>
<path d="M215.765 147.075H229.136C229.594 147.073 230.033 146.891 230.357 146.567C230.681 146.243 230.863 145.804 230.865 145.346C230.865 144.887 230.683 144.447 230.359 144.122C230.035 143.797 229.595 143.614 229.136 143.613H215.765C215.307 143.615 214.868 143.799 214.544 144.124C214.221 144.448 214.038 144.888 214.037 145.346C214.038 145.804 214.221 146.243 214.545 146.567C214.868 146.891 215.307 147.073 215.765 147.075Z" fill="#F5F5F5"/>
<path d="M208.487 167.918H209.462L213.17 147.075H212.201L208.487 167.918Z" fill="#E0E0E0"/>
<path d="M191.634 167.918H192.609L196.317 147.075H195.342L191.634 167.918Z" fill="#E0E0E0"/>
<path d="M215.016 167.918H214.042L210.334 147.075H211.308L215.016 167.918Z" fill="#E0E0E0"/>
<path d="M231.87 167.918H230.895L227.187 147.075H228.162L231.87 167.918Z" fill="#E0E0E0"/>
<path d="M79.4201 147.075H108.655C109.113 147.073 109.552 146.891 109.877 146.567C110.202 146.244 110.385 145.805 110.388 145.346C110.387 144.887 110.204 144.447 109.879 144.122C109.554 143.797 109.114 143.614 108.655 143.613H79.4201C78.9608 143.614 78.5206 143.797 78.1958 144.122C77.871 144.447 77.6879 144.887 77.6866 145.346C77.6893 145.805 77.8729 146.244 78.1976 146.567C78.5223 146.891 78.9616 147.073 79.4201 147.075Z" fill="#EBEBEB"/>
<path d="M113.091 143.613H114.06L117.768 119.42H116.799L113.091 143.613Z" fill="#E0E0E0"/>
<path d="M98.2532 143.613H99.2277L102.936 119.42H101.961L98.2532 143.613Z" fill="#E0E0E0"/>
<path d="M98.2122 138.751H117.261C117.898 138.73 118.509 138.489 118.99 138.07C119.47 137.65 119.791 137.077 119.897 136.448L122.805 116.245C122.858 115.96 122.846 115.666 122.771 115.385C122.696 115.105 122.558 114.845 122.37 114.624C122.181 114.403 121.945 114.227 121.68 114.109C121.414 113.992 121.126 113.934 120.835 113.942H101.782C101.145 113.962 100.534 114.203 100.054 114.623C99.5742 115.043 99.2549 115.616 99.1508 116.245L96.2376 136.427C96.1821 136.715 96.192 137.011 96.2664 137.294C96.3407 137.577 96.4778 137.84 96.6673 138.063C96.8569 138.286 97.0941 138.463 97.3615 138.582C97.6289 138.701 97.9196 138.759 98.2122 138.751Z" fill="#EBEBEB"/>
<path d="M101.038 147.075H114.409C114.868 147.073 115.307 146.891 115.632 146.567C115.956 146.244 116.14 145.805 116.143 145.346C116.141 144.887 115.958 144.447 115.633 144.122C115.309 143.797 114.868 143.614 114.409 143.613H101.038C100.58 143.615 100.141 143.799 99.8172 144.124C99.4935 144.448 99.3111 144.888 99.3098 145.346C99.3111 145.804 99.4936 146.243 99.8175 146.567C100.141 146.891 100.58 147.073 101.038 147.075Z" fill="#F5F5F5"/>
<path d="M93.7501 167.918H94.7246L98.4327 147.075H97.4634L93.7501 167.918Z" fill="#E0E0E0"/>
<path d="M76.8967 167.918H77.8712L81.5793 147.075H80.6049L76.8967 167.918Z" fill="#E0E0E0"/>
<path d="M100.279 167.918H99.3046L95.5965 147.075H96.571L100.279 167.918Z" fill="#E0E0E0"/>
<path d="M117.132 167.918H116.163L112.45 147.075H113.424L117.132 167.918Z" fill="#E0E0E0"/>
<path d="M128.221 191.08C183.142 191.08 227.664 188.481 227.664 185.274C227.664 182.068 183.142 179.468 128.221 179.468C73.3001 179.468 28.7779 182.068 28.7779 185.274C28.7779 188.481 73.3001 191.08 128.221 191.08Z" fill="#F5F5F5"/>
<path d="M114.373 96.3299C114.476 99.2123 109.48 105.654 109.48 105.654C109.48 105.654 104.039 99.5867 103.936 96.7043C103.833 93.8219 105.408 91.4267 108.967 91.2985C112.527 91.1703 114.286 93.4475 114.373 96.3299Z" fill="#3E3E3E"/>
<path d="M109.675 96.5094H109.326V173.011H109.675V96.5094Z" fill="#263238"/>
<path d="M100.674 170.703C100.512 170.702 100.352 170.737 100.204 170.805C100.057 170.873 99.9268 170.972 99.8221 171.096C99.7174 171.219 99.6412 171.365 99.5988 171.521C99.5563 171.677 99.5487 171.841 99.5765 172.001C100.32 176.032 104.48 179.12 109.501 179.12C114.522 179.12 118.676 176.042 119.42 172.001C119.449 171.841 119.442 171.678 119.4 171.521C119.358 171.365 119.282 171.22 119.178 171.096C119.074 170.972 118.944 170.872 118.797 170.805C118.65 170.737 118.489 170.702 118.328 170.703H100.674Z" fill="#3E3E3E"/>
<path d="M106.731 111.952C104.886 110.067 102.61 108.659 100.1 107.849C98.007 109.998 100.012 112.947 106.731 111.952Z" fill="#3E3E3E"/>
<path d="M109.398 115.614C107.788 112.711 104.269 109.219 100.069 107.952L100.135 107.726C104.413 109.008 107.972 112.558 109.603 115.501L109.398 115.614Z" fill="#263238"/>
<path d="M105.721 131.878C105.721 124.954 100.679 123.031 96.6684 126.262C93.8168 129.211 96.5145 133.232 105.721 131.878C105.034 131.193 104.308 130.549 103.546 129.949C104.308 130.549 105.034 131.193 105.721 131.878Z" fill="#3E3E3E"/>
<path d="M109.398 136.853C107.198 132.883 102.397 128.103 96.6376 126.375L96.7043 126.149C102.531 127.898 107.383 132.724 109.603 136.74L109.398 136.853Z" fill="#263238"/>
<path d="M113.05 120.63C115.412 118.205 118.331 116.395 121.554 115.358C124.215 118.127 121.682 121.902 113.05 120.63Z" fill="#3E3E3E"/>
<path d="M109.603 125.303L109.398 125.19C111.486 121.42 116.035 116.886 121.507 115.245L121.574 115.471C116.168 117.097 111.665 121.579 109.603 125.303Z" fill="#263238"/>
<path d="M113.235 140.741C115.824 137.237 119.231 134.42 123.159 132.534C127.047 135.632 124.467 140.879 113.235 140.741Z" fill="#3E3E3E"/>
<path d="M109.608 147.28L109.388 147.198C111.404 142.038 116.425 135.483 123.108 132.452L123.205 132.668C116.584 135.668 111.604 142.171 109.608 147.28Z" fill="#263238"/>
<path d="M83.754 159.656H48.965C48.4209 159.656 47.8991 159.44 47.5144 159.055C47.1297 158.67 46.9135 158.148 46.9135 157.604C46.9135 157.06 47.1297 156.538 47.5144 156.153C47.8991 155.769 48.4209 155.553 48.965 155.553H83.754C84.2981 155.553 84.8199 155.769 85.2046 156.153C85.5894 156.538 85.8055 157.06 85.8055 157.604C85.8055 158.148 85.5894 158.67 85.2046 159.055C84.8199 159.44 84.2981 159.656 83.754 159.656Z" fill="#3E3E3E"/>
<path d="M43.6618 155.532H42.5078L38.0919 126.718H39.2459L43.6618 155.532Z" fill="#263238"/>
<path d="M61.3307 155.532H60.1715L55.7556 126.718H56.9147L61.3307 155.532Z" fill="#263238"/>
<path d="M61.3768 149.762H38.692C37.9328 149.738 37.2056 149.451 36.6341 148.951C36.0627 148.451 35.6825 147.768 35.5582 147.018L32.0911 122.964C32.0293 122.624 32.0441 122.274 32.1344 121.94C32.2247 121.606 32.3883 121.296 32.6133 121.034C32.8382 120.771 33.1189 120.561 33.4349 120.421C33.7509 120.28 34.0943 120.211 34.4402 120.22H57.125C57.8845 120.245 58.6119 120.532 59.184 121.032C59.7561 121.532 60.1376 122.215 60.2639 122.964L63.7258 147.018C63.7877 147.359 63.7729 147.708 63.6825 148.042C63.5922 148.376 63.4286 148.686 63.2037 148.949C62.9787 149.211 62.698 149.421 62.382 149.562C62.066 149.702 61.7226 149.771 61.3768 149.762Z" fill="#3E3E3E"/>
<path opacity="0.4" d="M32.0911 122.943L35.5582 146.998C35.6454 147.58 35.8962 148.126 36.2814 148.572C37.1123 149.552 38.5894 149.018 38.415 147.823L34.7171 122.118C34.5427 120.923 32.9118 120.394 32.363 121.369C32.1035 121.85 32.008 122.403 32.0911 122.943Z" fill="white"/>
<path d="M58.0226 159.656H42.1232C41.5791 159.656 41.0572 159.44 40.6725 159.055C40.2878 158.67 40.0716 158.148 40.0716 157.604C40.0716 157.06 40.2878 156.538 40.6725 156.153C41.0572 155.769 41.5791 155.553 42.1232 155.553H58.0226C58.5667 155.553 59.0885 155.769 59.4732 156.153C59.858 156.538 60.0741 157.06 60.0741 157.604C60.0741 158.148 59.858 158.67 59.4732 159.055C59.0885 159.44 58.5667 159.656 58.0226 159.656Z" fill="#3E3E3E"/>
<path opacity="0.4" d="M58.0226 159.656H42.1232C41.5791 159.656 41.0572 159.44 40.6725 159.055C40.2878 158.67 40.0716 158.148 40.0716 157.604C40.0716 157.06 40.2878 156.538 40.6725 156.153C41.0572 155.769 41.5791 155.553 42.1232 155.553H58.0226C58.5667 155.553 59.0885 155.769 59.4732 156.153C59.858 156.538 60.0741 157.06 60.0741 157.604C60.0741 158.148 59.858 158.67 59.4732 159.055C59.0885 159.44 58.5667 159.656 58.0226 159.656Z" fill="white"/>
<path d="M66.6903 184.469H65.5312L61.1153 159.656H62.2693L66.6903 184.469Z" fill="#263238"/>
<path d="M86.7595 184.469H85.6003L81.1844 159.656H82.3435L86.7595 184.469Z" fill="#263238"/>
<path d="M58.9201 184.469H60.0741L64.4901 159.656H63.3361L58.9201 184.469Z" fill="#263238"/>
<path d="M38.8459 184.469H40.005L44.4209 159.656H43.2669L38.8459 184.469Z" fill="#263238"/>
<path d="M98.3558 160.63L92.6371 163.118L95.9144 166.944L100.7 164.872L98.3558 160.63Z" fill="#7F3E3B"/>
<path opacity="0.2" d="M98.3558 160.635L92.632 163.123L94.4732 165.267L99.6688 163.01L98.3558 160.635Z" fill="black"/>
<path d="M94.9092 168.79L95.5606 168.667C95.7516 168.63 95.9303 168.546 96.0807 168.422C96.2311 168.298 96.3485 168.139 96.4222 167.959L96.8325 168.17C97.0673 168.286 97.3336 168.324 97.5916 168.277L106.485 166.544C106.414 165.93 106.182 165.347 105.813 164.851C105.813 164.851 101.869 165.4 100.761 164.431C100.721 164.393 100.67 164.367 100.616 164.356C100.562 164.345 100.505 164.35 100.453 164.369C99.7303 164.677 96.8633 165.81 95.0887 165.58C95.0334 165.574 94.9775 165.581 94.9255 165.601C94.8735 165.62 94.8268 165.652 94.789 165.693C94.7512 165.733 94.7234 165.782 94.7077 165.836C94.6921 165.889 94.6891 165.945 94.6989 166C94.8355 166.924 94.9057 167.856 94.9092 168.79Z" fill="#3E3E3E"/>
<path d="M100.597 164.661H100.566C100.549 164.655 100.534 164.644 100.523 164.63C100.512 164.615 100.506 164.598 100.505 164.579C100.469 164 100.746 162.933 101.136 162.748C101.195 162.721 101.262 162.713 101.327 162.726C101.391 162.739 101.45 162.772 101.495 162.82C101.536 162.857 101.568 162.902 101.589 162.952C101.61 163.003 101.62 163.058 101.618 163.113C101.618 163.672 100.705 164.6 100.664 164.651C100.643 164.662 100.62 164.666 100.597 164.661ZM101.269 162.902H101.218C100.972 163.02 100.73 163.764 100.705 164.318C101.002 163.99 101.448 163.425 101.443 163.097C101.443 163.068 101.437 163.04 101.426 163.013C101.414 162.987 101.398 162.963 101.377 162.943C101.363 162.929 101.346 162.918 101.327 162.911C101.309 162.904 101.289 162.901 101.269 162.902Z" fill="#3E3E3E"/>
<path d="M101.443 164.728C101.155 164.726 100.867 164.704 100.582 164.661C100.563 164.658 100.546 164.65 100.533 164.637C100.519 164.624 100.509 164.608 100.505 164.59C100.502 164.572 100.503 164.553 100.509 164.536C100.516 164.519 100.527 164.504 100.541 164.492C100.982 164.128 102.013 163.718 102.387 163.928C102.444 163.961 102.49 164.01 102.519 164.07C102.547 164.129 102.557 164.196 102.546 164.261C102.53 164.37 102.47 164.468 102.382 164.533C102.093 164.684 101.768 164.752 101.443 164.728ZM100.848 164.502C101.324 164.593 101.816 164.55 102.269 164.379C102.293 164.363 102.313 164.342 102.328 164.317C102.343 164.292 102.353 164.264 102.356 164.236C102.356 164.143 102.356 164.113 102.3 164.092C102.064 163.964 101.315 164.205 100.848 164.502Z" fill="#3E3E3E"/>
<path d="M46.9494 142.623L49.401 147.752C53.0168 155.327 61.9307 159.138 69.0444 156.158C73.1988 154.409 77.7327 150.731 80.8408 149.049C83.4821 154.829 88.4212 161.215 92.2012 165.651L99.8534 161.805C96.9966 155.245 92.5448 145.008 89.7239 138.356C89.218 137.183 88.3922 136.176 87.341 135.45C86.2898 134.725 85.0556 134.31 83.7796 134.253C71.0396 133.888 46.9494 142.623 46.9494 142.623Z" fill="#263238"/>
<path d="M84.1284 177.422L77.8969 177.13L79.1534 182.012L84.3592 182.258L84.1284 177.422Z" fill="#7F3E3B"/>
<path opacity="0.2" d="M84.1284 177.422L77.8917 177.13L78.5943 179.863L84.2566 180.13L84.1284 177.422Z" fill="black"/>
<path d="M78.1943 184.582H78.861C79.0546 184.583 79.2456 184.537 79.4172 184.448C79.5889 184.359 79.736 184.228 79.8458 184.069L80.2048 184.346C80.412 184.51 80.6689 184.599 80.9331 184.597H89.9855C90.0346 183.982 89.9196 183.364 89.6521 182.807C89.6521 182.807 85.6773 182.592 84.7746 181.428C84.7433 181.382 84.6993 181.348 84.6482 181.327C84.597 181.307 84.5411 181.303 84.4874 181.315C83.7181 181.474 80.7074 182.043 78.9893 181.474C78.9358 181.457 78.8792 181.453 78.8239 181.462C78.7686 181.471 78.7161 181.493 78.6708 181.526C78.6254 181.559 78.5884 181.602 78.5626 181.651C78.5369 181.701 78.5232 181.756 78.5226 181.812C78.4802 182.742 78.3705 183.668 78.1943 184.582Z" fill="#3E3E3E"/>
<path d="M84.59 181.617C84.5732 181.622 84.5555 181.622 84.5387 181.617C84.5236 181.608 84.5117 181.594 84.5044 181.577C84.4971 181.561 84.4948 181.543 84.4976 181.525C84.5746 180.956 85.0464 179.956 85.467 179.853C85.5303 179.836 85.5972 179.84 85.6581 179.864C85.7189 179.888 85.7706 179.931 85.8055 179.986C85.8378 180.031 85.8604 180.082 85.8719 180.136C85.8834 180.19 85.8835 180.245 85.8722 180.299C85.7747 180.853 84.6874 181.587 84.6413 181.617C84.6245 181.623 84.6067 181.623 84.59 181.617ZM85.5439 180.012H85.5132C85.2465 180.079 84.8721 180.766 84.7284 181.299C85.0875 181.038 85.626 180.571 85.6875 180.243C85.6935 180.214 85.6933 180.185 85.6872 180.157C85.681 180.129 85.6689 180.102 85.6516 180.079C85.6401 180.061 85.6241 180.046 85.6052 180.036C85.5864 180.026 85.5652 180.022 85.5439 180.022V180.012Z" fill="#3E3E3E"/>
<path d="M85.9389 181.899C85.4677 181.87 85.0031 181.773 84.5592 181.612C84.542 181.606 84.5269 181.595 84.516 181.581C84.505 181.566 84.4987 181.548 84.4977 181.53C84.4959 181.512 84.4993 181.494 84.5075 181.477C84.5157 181.461 84.5282 181.447 84.5438 181.438C85.0567 181.166 86.1389 180.961 86.4671 181.238C86.519 181.279 86.5561 181.335 86.5728 181.399C86.5895 181.463 86.5848 181.531 86.5595 181.592C86.5414 181.644 86.513 181.691 86.476 181.732C86.439 181.772 86.3941 181.805 86.344 181.828C86.2157 181.88 86.0775 181.905 85.9389 181.899ZM84.8464 181.51C85.296 181.687 85.7854 181.738 86.262 181.658C86.3156 181.634 86.3578 181.59 86.3799 181.535C86.4056 181.448 86.3799 181.407 86.3492 181.381C86.1645 181.207 85.3644 181.305 84.8464 181.51Z" fill="#3E3E3E"/>
<path d="M43.3849 140.592L43.4259 146.013C43.4926 154.009 50.2626 156.332 58.3662 156.943C63.0899 157.291 69.4753 157.399 73.1578 157.327C73.6963 162.928 75.4452 174.34 77.2044 179.12L85.1644 178.566C85.3747 171.78 85.6773 162.153 85.9389 155.773C85.949 154.498 85.5955 153.247 84.9196 152.166C84.2437 151.085 83.2736 150.219 82.123 149.67C70.1882 143.782 43.3849 140.592 43.3849 140.592Z" fill="#263238"/>
<path opacity="0.2" d="M81.1331 149.721C82.4961 152.458 84.0775 155.08 85.8619 157.563C85.8209 158.681 85.7799 159.871 85.7337 161.102C82.918 156.655 81.1177 149.711 81.1177 149.711L81.1331 149.721Z" fill="black"/>
<path d="M69.3573 109.28L69.8702 109.542L70.5062 109.86C70.9421 110.06 71.3832 110.265 71.8294 110.444C72.6983 110.806 73.5891 111.113 74.4964 111.363C75.3362 111.589 76.1943 111.742 77.0608 111.819C77.8301 111.879 78.6039 111.841 79.3637 111.706L77.825 112.629C78.3025 112.268 78.7064 111.819 79.0149 111.306C79.4872 110.58 79.9121 109.825 80.2869 109.044C80.7023 108.213 81.087 107.336 81.4665 106.439L82.5948 103.726L82.6513 103.597C82.8409 103.144 83.1769 102.767 83.6055 102.527C84.0342 102.287 84.5309 102.197 85.0165 102.272C85.5021 102.347 85.9487 102.583 86.285 102.941C86.6213 103.299 86.8281 103.759 86.8723 104.249C86.9685 105.371 86.9856 106.499 86.9236 107.624C86.866 108.757 86.7358 109.886 86.5338 111.003C86.3185 112.197 85.994 113.368 85.5644 114.501C85.0549 115.889 84.2856 117.167 83.2975 118.266C82.9751 118.614 82.5766 118.882 82.1332 119.051L81.7537 119.189C80.2602 119.743 78.6885 120.058 77.0967 120.123C75.6027 120.187 74.1063 120.071 72.6398 119.779C71.2501 119.509 69.8885 119.111 68.5726 118.589C67.9264 118.327 67.2852 118.076 66.6647 117.743C66.3518 117.584 66.0441 117.425 65.7312 117.23L65.2594 116.953L64.7157 116.62C63.7626 116.032 63.0732 115.1 62.7918 114.016C62.5104 112.932 62.6587 111.782 63.2057 110.805C63.7527 109.829 64.6561 109.101 65.727 108.775C66.7979 108.448 67.9534 108.549 68.9521 109.055L69.3573 109.28Z" fill="#803E3C"/>
<path d="M84.2976 106.239L82.5743 104.398C81.5793 101.956 84.9438 101.223 84.9438 101.223L86.421 100.197C86.6931 100.038 87.0125 99.9804 87.323 100.034C87.6336 100.087 87.9153 100.249 88.1186 100.489L89.3239 101.766C89.5873 102.014 89.7434 102.355 89.7587 102.717C89.7741 103.078 89.6475 103.431 89.4059 103.7L88.2827 104.777C87.9556 105.091 87.5555 105.318 87.1185 105.439L84.2976 106.239Z" fill="#7F3E3B"/>
<path d="M60.5203 105.582C61.5769 104.162 64.8132 104.526 68.1059 107.736C68.9214 107.701 71.0345 109.614 73.4861 110.234C75.9376 110.855 76.7429 115.26 76.2967 117.02C75.8299 118.866 74.9067 120.097 72.6193 120.338C70.3318 120.579 67.3212 119.102 64.8952 117.261C62.4693 115.419 58.6381 108.101 60.5203 105.582Z" fill="#3E3E3E"/>
<path d="M59.315 104.454C54.7282 104.479 50.1532 104.922 45.6467 105.777C44.9039 105.932 44.2005 106.237 43.5796 106.673C42.9587 107.109 42.4334 107.668 42.0358 108.314C41.6382 108.96 41.3768 109.681 41.2675 110.432C41.1581 111.183 41.2032 111.948 41.4 112.681C44.7748 125.503 42.8668 139.54 43.1335 142.11C43.1335 142.11 69.9984 145.977 74.1169 138.007C76.3069 127.37 70.2446 123.067 67.0186 110.373C66.5319 108.694 65.5223 107.215 64.1367 106.151C62.7511 105.086 61.0619 104.492 59.315 104.454Z" fill="#3E3E3E"/>
<path opacity="0.8" d="M59.315 104.454C54.7282 104.479 50.1532 104.922 45.6467 105.777C44.9039 105.932 44.2005 106.237 43.5796 106.673C42.9587 107.109 42.4334 107.668 42.0358 108.314C41.6382 108.96 41.3768 109.681 41.2675 110.432C41.1581 111.183 41.2032 111.948 41.4 112.681C44.7748 125.503 42.8668 139.54 43.1335 142.11C43.1335 142.11 69.9984 145.977 74.1169 138.007C76.3069 127.37 70.2446 123.067 67.0186 110.373C66.5319 108.694 65.5223 107.215 64.1367 106.151C62.7511 105.086 61.0619 104.492 59.315 104.454Z" fill="white"/>
<g opacity="0.2">
<path opacity="0.2" d="M46.7289 141.248C46.7126 141.246 46.697 141.241 46.6828 141.233C46.6685 141.225 46.656 141.214 46.646 141.202C46.636 141.189 46.6286 141.174 46.6244 141.158C46.6201 141.142 46.619 141.126 46.6212 141.11C46.6212 140.959 46.6365 140.8 46.6673 140.633C46.6712 140.601 46.6871 140.571 46.7118 140.55C46.7365 140.529 46.7683 140.518 46.8007 140.52C46.8167 140.521 46.8322 140.526 46.8464 140.533C46.8606 140.541 46.8732 140.551 46.8832 140.563C46.8933 140.576 46.9007 140.59 46.9051 140.606C46.9094 140.621 46.9105 140.637 46.9084 140.653C46.9084 140.823 46.9084 140.987 46.8622 141.141C46.8583 141.172 46.8423 141.201 46.8174 141.221C46.7925 141.242 46.7607 141.251 46.7289 141.248Z" fill="#3E3E3E"/>
<path opacity="0.2" d="M46.8366 139.776C46.8048 139.774 46.7753 139.759 46.7543 139.735C46.7333 139.711 46.7223 139.68 46.7237 139.648C46.7237 139.335 46.7237 139.007 46.7237 138.658C46.725 138.626 46.7384 138.595 46.7612 138.573C46.784 138.55 46.8146 138.536 46.8468 138.535C46.879 138.538 46.9091 138.552 46.9309 138.576C46.9528 138.6 46.9649 138.631 46.9648 138.663C46.9648 139.012 46.9648 139.345 46.934 139.658C46.9344 139.686 46.9249 139.714 46.907 139.735C46.8892 139.757 46.8642 139.771 46.8366 139.776ZM46.8776 137.791C46.845 137.791 46.8136 137.778 46.7906 137.755C46.7675 137.732 46.7545 137.701 46.7545 137.668V137.612C46.7545 137.304 46.7545 136.996 46.7545 136.673C46.7538 136.657 46.7564 136.642 46.762 136.627C46.7676 136.612 46.7762 136.598 46.7872 136.587C46.7982 136.575 46.8115 136.566 46.8261 136.56C46.8408 136.553 46.8565 136.55 46.8725 136.55C46.8888 136.55 46.9052 136.552 46.9204 136.558C46.9357 136.564 46.9496 136.573 46.9611 136.585C46.9727 136.596 46.9818 136.61 46.9877 136.625C46.9936 136.641 46.9963 136.657 46.9956 136.673C46.9956 136.991 46.9956 137.304 46.9956 137.607V137.668C46.9956 137.7 46.9833 137.731 46.9613 137.754C46.9394 137.777 46.9094 137.79 46.8776 137.791ZM46.852 135.801C46.8207 135.801 46.7907 135.789 46.7685 135.767C46.7464 135.745 46.734 135.715 46.734 135.683C46.734 135.355 46.734 135.027 46.7084 134.688C46.7077 134.672 46.7102 134.656 46.7157 134.641C46.7213 134.626 46.7298 134.612 46.7407 134.6C46.7517 134.588 46.7649 134.578 46.7796 134.572C46.7943 134.565 46.8101 134.561 46.8263 134.56C46.859 134.56 46.8903 134.573 46.9134 134.596C46.9364 134.619 46.9494 134.651 46.9494 134.683C46.9494 135.022 46.9494 135.35 46.9494 135.678C46.9501 135.694 46.9476 135.71 46.9419 135.725C46.9363 135.74 46.9277 135.754 46.9167 135.765C46.9057 135.777 46.8925 135.786 46.8778 135.792C46.8631 135.798 46.8474 135.801 46.8314 135.801H46.852ZM46.7955 133.817C46.7638 133.817 46.7332 133.804 46.7103 133.782C46.6873 133.76 46.6738 133.73 46.6725 133.699C46.6725 133.37 46.6724 133.037 46.6314 132.704C46.6313 132.671 46.6434 132.64 46.6653 132.616C46.6871 132.593 46.7172 132.578 46.7494 132.575C46.7812 132.575 46.8117 132.588 46.8347 132.61C46.8576 132.632 46.8712 132.662 46.8725 132.693C46.8725 133.032 46.8725 133.36 46.9135 133.688C46.9136 133.721 46.9015 133.752 46.8796 133.776C46.8578 133.799 46.8277 133.814 46.7955 133.817ZM46.7084 131.811C46.6779 131.811 46.6487 131.799 46.6267 131.778C46.6047 131.757 46.5917 131.729 46.5904 131.698C46.5904 131.37 46.5545 131.037 46.5391 130.703C46.5377 130.672 46.5486 130.64 46.5697 130.616C46.5907 130.593 46.6202 130.578 46.6519 130.575C46.6833 130.576 46.7132 130.589 46.7359 130.611C46.7586 130.632 46.7725 130.662 46.775 130.693L46.8212 131.683C46.8226 131.699 46.8207 131.715 46.8158 131.73C46.8108 131.745 46.8028 131.759 46.7922 131.771C46.7817 131.783 46.7688 131.793 46.7544 131.8C46.74 131.807 46.7243 131.811 46.7084 131.811ZM46.6058 129.826C46.5752 129.825 46.5459 129.813 46.5233 129.793C46.5008 129.772 46.4863 129.744 46.4827 129.713C46.4827 129.385 46.4468 129.052 46.4263 128.718C46.4263 128.686 46.4392 128.655 46.4623 128.631C46.4854 128.608 46.5167 128.595 46.5494 128.595C46.582 128.595 46.6133 128.608 46.6364 128.631C46.6595 128.655 46.6725 128.686 46.6725 128.718C46.6725 129.052 46.7084 129.385 46.7289 129.713C46.7303 129.745 46.7193 129.776 46.6983 129.8C46.6773 129.824 46.6478 129.839 46.616 129.842L46.6058 129.826ZM46.4878 127.847C46.456 127.847 46.4255 127.834 46.4025 127.812C46.3796 127.79 46.366 127.76 46.3647 127.729C46.3647 127.4 46.3237 127.067 46.298 126.739C46.2966 126.722 46.2986 126.706 46.3039 126.69C46.3092 126.675 46.3176 126.661 46.3287 126.649C46.3398 126.637 46.3533 126.627 46.3684 126.62C46.3834 126.614 46.3996 126.61 46.416 126.611C46.4319 126.609 46.4479 126.611 46.4631 126.616C46.4783 126.621 46.4923 126.629 46.5043 126.639C46.5163 126.65 46.526 126.663 46.5329 126.677C46.5397 126.692 46.5436 126.707 46.5442 126.723C46.5442 127.052 46.5853 127.385 46.6109 127.713C46.6116 127.729 46.6091 127.746 46.6035 127.761C46.598 127.776 46.5895 127.79 46.5785 127.802C46.5676 127.814 46.5544 127.823 46.5397 127.83C46.525 127.837 46.5091 127.841 46.4929 127.841L46.4878 127.847ZM46.3545 125.862C46.3227 125.862 46.2921 125.849 46.2692 125.828C46.2462 125.806 46.2327 125.776 46.2314 125.744C46.2314 125.416 46.1852 125.082 46.1596 124.754C46.1596 124.721 46.1725 124.69 46.1956 124.667C46.2187 124.644 46.25 124.631 46.2827 124.631C46.3153 124.631 46.3466 124.644 46.3697 124.667C46.3928 124.69 46.4058 124.721 46.4058 124.754C46.4058 125.082 46.4519 125.41 46.4776 125.744C46.479 125.777 46.4675 125.809 46.4455 125.834C46.4235 125.859 46.3927 125.874 46.3596 125.877L46.3545 125.862ZM46.2057 123.877C46.1753 123.877 46.1461 123.865 46.1241 123.844C46.1021 123.823 46.0891 123.794 46.0878 123.764L46.0108 122.774C46.0071 122.756 46.0074 122.738 46.0118 122.72C46.0161 122.702 46.0243 122.686 46.0359 122.671C46.0474 122.657 46.062 122.646 46.0785 122.638C46.095 122.63 46.1131 122.626 46.1314 122.626C46.1496 122.626 46.1677 122.63 46.1842 122.638C46.2007 122.646 46.2153 122.657 46.2268 122.671C46.2384 122.686 46.2466 122.702 46.2509 122.72C46.2553 122.738 46.2556 122.756 46.2519 122.774L46.3288 123.764C46.3302 123.78 46.3284 123.797 46.3235 123.812C46.3186 123.827 46.3106 123.842 46.3002 123.854C46.2897 123.867 46.2768 123.877 46.2624 123.884C46.2479 123.892 46.2322 123.896 46.216 123.897L46.2057 123.877ZM46.0519 121.897C46.0209 121.897 45.9911 121.886 45.9683 121.865C45.9454 121.844 45.9313 121.815 45.9288 121.784L45.8467 120.794C45.8438 120.763 45.8534 120.731 45.8735 120.706C45.8936 120.681 45.9226 120.665 45.9544 120.661C45.9707 120.659 45.9873 120.66 46.0031 120.665C46.0189 120.669 46.0335 120.677 46.0461 120.688C46.0586 120.699 46.0688 120.712 46.076 120.727C46.0832 120.741 46.0872 120.757 46.0878 120.774L46.1698 121.764C46.1727 121.796 46.1631 121.827 46.143 121.852C46.1229 121.877 46.0939 121.893 46.0621 121.897H46.0519ZM45.8826 119.912C45.8521 119.914 45.8223 119.903 45.7994 119.883C45.7764 119.863 45.7621 119.835 45.7595 119.805C45.7287 119.466 45.698 119.138 45.6672 118.815C45.6638 118.782 45.6735 118.749 45.6942 118.724C45.7149 118.698 45.7448 118.682 45.7775 118.679C45.8101 118.675 45.8428 118.685 45.8683 118.706C45.8938 118.726 45.91 118.756 45.9134 118.789C45.9442 119.117 45.9749 119.446 46.0006 119.784C46.002 119.8 46.0003 119.815 45.9956 119.83C45.991 119.845 45.9834 119.859 45.9734 119.871C45.9634 119.883 45.9511 119.892 45.9373 119.899C45.9235 119.907 45.9084 119.911 45.8929 119.912H45.8826ZM45.698 117.963C45.6681 117.963 45.6395 117.951 45.617 117.932C45.5946 117.912 45.5796 117.885 45.5749 117.856C45.5441 117.517 45.5133 117.184 45.4774 116.866C45.476 116.85 45.4778 116.833 45.4828 116.818C45.4877 116.802 45.4956 116.788 45.5061 116.776C45.5166 116.763 45.5294 116.753 45.5439 116.746C45.5583 116.738 45.5741 116.734 45.5903 116.732C45.6062 116.73 45.6223 116.731 45.6378 116.736C45.6532 116.74 45.6676 116.747 45.6801 116.758C45.6926 116.768 45.7029 116.78 45.7104 116.794C45.7179 116.809 45.7224 116.824 45.7236 116.84C45.7544 117.163 45.7903 117.491 45.8211 117.83C45.8225 117.846 45.8207 117.862 45.8157 117.878C45.8108 117.893 45.8029 117.908 45.7924 117.92C45.7819 117.933 45.7691 117.943 45.7546 117.95C45.7402 117.958 45.7244 117.962 45.7082 117.963H45.698ZM45.5031 115.989C45.4876 115.989 45.4721 115.987 45.4575 115.982C45.4429 115.976 45.4296 115.968 45.4181 115.958C45.4067 115.947 45.3974 115.935 45.3909 115.921C45.3843 115.907 45.3806 115.891 45.38 115.876C45.3424 115.534 45.3065 115.206 45.2723 114.891C45.2693 114.859 45.2787 114.826 45.2987 114.801C45.3187 114.775 45.3478 114.758 45.38 114.753C45.3962 114.751 45.4125 114.753 45.4279 114.758C45.4434 114.763 45.4577 114.771 45.4701 114.781C45.4825 114.792 45.4927 114.805 45.5001 114.819C45.5076 114.834 45.512 114.849 45.5133 114.865C45.5492 115.173 45.5851 115.507 45.621 115.85C45.6232 115.866 45.6221 115.883 45.6178 115.899C45.6136 115.914 45.6062 115.929 45.5962 115.942C45.5862 115.955 45.5737 115.966 45.5594 115.974C45.5452 115.982 45.5295 115.987 45.5133 115.989H45.5031Z" fill="#3E3E3E"/>
<path opacity="0.2" d="M45.2774 113.999C45.2501 113.999 45.2234 113.991 45.2019 113.974C45.1804 113.957 45.1654 113.933 45.1594 113.906L45.103 113.419C45.105 113.39 45.1171 113.363 45.1372 113.342C45.1573 113.321 45.184 113.308 45.2128 113.305C45.2416 113.302 45.2705 113.309 45.2945 113.326C45.3185 113.342 45.3361 113.366 45.3441 113.394L45.4005 113.85C45.4052 113.883 45.3972 113.917 45.3782 113.944C45.3592 113.972 45.3306 113.991 45.2979 113.999H45.2774Z" fill="#3E3E3E"/>
</g>
<path d="M48.5291 118.41L47.9188 119.794L47.2879 121.261C46.8674 122.246 46.4776 123.241 46.0878 124.226C45.698 125.21 45.3646 126.216 45.0312 127.2C44.6979 128.185 44.4312 129.175 44.185 130.155L44.0414 128.365C44.0716 128.441 44.0856 128.523 44.0824 128.606C44.1502 128.741 44.2068 128.882 44.2517 129.026C44.4324 129.383 44.6398 129.726 44.8722 130.052C45.4365 130.863 46.0533 131.635 46.7186 132.365C47.411 133.155 48.1598 133.94 48.9343 134.724L51.2884 137.094L51.3602 137.166C51.7034 137.522 51.916 137.984 51.9637 138.477C52.0114 138.969 51.8913 139.463 51.6229 139.879C51.3545 140.295 50.9535 140.607 50.4851 140.767C50.0166 140.926 49.5081 140.922 49.042 140.756C47.8869 140.312 46.7599 139.798 45.6672 139.217C44.5667 138.643 43.4998 138.006 42.4719 137.309C41.3726 136.572 40.3426 135.736 39.3946 134.812C38.861 134.287 38.3657 133.725 37.9124 133.129C37.6662 132.786 37.4303 132.427 37.2098 132.068C36.9841 131.627 36.7789 131.175 36.584 130.719C36.4144 130.318 36.3474 129.88 36.3891 129.447L36.4404 128.934C36.555 127.661 36.7399 126.396 36.9943 125.144C37.2511 123.899 37.5712 122.668 37.9534 121.456C38.3125 120.251 38.733 119.081 39.1946 117.922C39.4305 117.348 39.6665 116.768 39.9332 116.199C40.0665 115.917 40.1947 115.63 40.3383 115.348L40.8051 114.445C41.3304 113.455 42.2174 112.706 43.2812 112.355C44.3451 112.003 45.5036 112.075 46.5154 112.557C47.5272 113.038 48.3141 113.891 48.7122 114.939C49.1103 115.986 49.0888 117.147 48.6522 118.179L48.5291 118.41Z" fill="#803E3C"/>
<path d="M50.2985 137.966L49.4318 139.294C48.8625 141.859 52.2988 142.028 52.2988 142.028L53.9246 142.777C54.2184 142.889 54.5426 142.893 54.8394 142.789C55.1362 142.685 55.3863 142.479 55.5453 142.207L56.5198 140.746C56.7386 140.457 56.8363 140.095 56.7923 139.736C56.7482 139.377 56.5658 139.049 56.2839 138.822L54.9914 137.95C54.6174 137.695 54.1853 137.538 53.7349 137.494L51.7295 137.289C51.452 137.261 51.1723 137.31 50.9203 137.429C50.6682 137.548 50.4533 137.734 50.2985 137.966Z" fill="#7F3E3B"/>
<path d="M44.6209 107.106C42.8822 106.782 40.5178 110.152 40.1485 113.876C38.6714 115.414 38.533 117.943 37.3226 120.164C34.8761 124.718 36.9276 126.221 38.5432 127.072C41.9898 128.898 45.8518 128.221 46.8776 126.169C47.9034 124.118 49.0061 121.707 49.3138 118.697C49.7497 114.265 47.6982 107.706 44.6209 107.106Z" fill="#3E3E3E"/>
<path d="M70.1728 117.686L64.1874 118.143C64.0354 118.14 63.8882 118.089 63.7673 117.997C63.6464 117.904 63.5582 117.776 63.5156 117.63L62.6898 115.019C62.6636 114.96 62.6517 114.896 62.6552 114.831C62.6588 114.766 62.6775 114.703 62.7101 114.647C62.7426 114.591 62.7879 114.544 62.8423 114.508C62.8968 114.473 62.9587 114.452 63.0232 114.445L69.0137 113.983C69.1659 113.985 69.3136 114.036 69.4346 114.128C69.5556 114.221 69.6436 114.35 69.6856 114.496L70.5062 117.102C70.5345 117.161 70.5481 117.227 70.5456 117.293C70.5431 117.359 70.5247 117.424 70.492 117.481C70.4593 117.538 70.4132 117.587 70.3576 117.623C70.302 117.659 70.2386 117.68 70.1728 117.686Z" fill="white"/>
<path d="M59.5253 105.839C59.12 105.162 58.4985 104.642 57.761 104.362C57.4495 103.68 57.3824 102.912 57.5712 102.187L49.2625 100.089C50.0831 102.746 50.7294 104.844 49.8113 106.213C51.473 107.09 54.4273 108.778 57.6379 108.957C60.0485 109.085 60.1151 106.936 59.5253 105.839Z" fill="#7F3E3B"/>
<path opacity="0.2" d="M57.52 102.443H51.3654C53.4169 104.372 56.3506 104.962 57.6225 104.049C57.454 103.531 57.4187 102.979 57.52 102.443Z" fill="black"/>
<path d="M58.6893 97.0069C59.7151 95.5759 59.992 93.4475 59.2022 93.1551C59.2689 91.7088 59.0945 90.1907 57.6636 89.9393C57.26 89.8675 56.8456 89.8838 56.4489 89.9871C56.0522 90.0905 55.6825 90.2785 55.3653 90.5382C55.0481 90.7979 54.7909 91.1232 54.6113 91.4917C54.4316 91.8602 54.3339 92.2632 54.3247 92.673C52.2629 95.0477 55.5556 97.8019 58.6893 97.0069Z" fill="#E0E0E0"/>
<path d="M47.6982 95.7144C48.724 99.4944 49.4779 102.043 52.0218 103.213C57.0891 105.536 59.3202 102.91 59.4638 98.8943C59.592 95.3041 57.9251 89.6983 53.8631 88.9649C52.9642 88.8014 52.0386 88.8689 51.173 89.1609C50.3073 89.453 49.53 89.96 48.9139 90.6346C48.2977 91.3091 47.863 92.1291 47.6504 93.0176C47.4377 93.9061 47.4542 94.834 47.6982 95.7144Z" fill="#7F3E3B"/>
<path d="M56.5403 99.1353C56.7545 99.1251 56.9673 99.0959 57.1763 99.0481C57.1906 99.0453 57.2041 99.0394 57.2159 99.0309C57.2278 99.0224 57.2376 99.0115 57.2449 98.9989C57.2522 98.9862 57.2567 98.9722 57.2581 98.9577C57.2596 98.9432 57.2579 98.9286 57.2533 98.9148C57.2438 98.8854 57.2241 98.8604 57.1977 98.8444C57.1713 98.8284 57.1401 98.8224 57.1096 98.8276C56.6374 98.9357 56.1469 98.936 55.6746 98.8286C55.2022 98.7211 54.7601 98.5087 54.3811 98.207C54.3594 98.1872 54.331 98.1762 54.3016 98.1762C54.2722 98.1762 54.2438 98.1872 54.2221 98.207C54.2111 98.2171 54.2023 98.2294 54.1962 98.2431C54.1902 98.2568 54.1871 98.2716 54.1871 98.2865C54.1871 98.3015 54.1902 98.3163 54.1962 98.33C54.2023 98.3436 54.2111 98.3559 54.2221 98.366C54.8717 98.9029 55.6986 99.1773 56.5403 99.1353Z" fill="#263238"/>
<path d="M48.1034 98.3968C49.5856 97.4172 50.555 95.5093 49.9293 94.9605C50.4934 93.6321 50.7294 91.6985 49.6164 91.4216C48.5034 91.1446 46.3699 91.0523 45.539 92.8371C42.7489 94.3399 44.8876 98.0583 48.1034 98.3968Z" fill="#E0E0E0"/>
<path opacity="0.2" d="M52.8732 95.4375C52.644 95.3815 52.4059 95.3712 52.1727 95.4073C51.9395 95.4434 51.7157 95.5251 51.5141 95.6477C51.9765 95.6679 52.4384 95.5964 52.8732 95.4375Z" fill="black"/>
<path opacity="0.2" d="M52.904 95.7657C52.6866 95.7621 52.4711 95.8061 52.2727 95.8947C52.0742 95.9833 51.8975 96.1144 51.7551 96.2786C52.1703 96.1917 52.5621 96.0168 52.904 95.7657Z" fill="black"/>
<path opacity="0.2" d="M58.1611 94.4271C58.1611 94.4271 58.438 94.0168 58.674 94.1963C58.5389 94.3361 58.3553 94.4187 58.1611 94.4271Z" fill="black"/>
<path opacity="0.2" d="M58.2534 94.7246C58.2534 94.7246 58.4739 94.3604 58.6739 94.663C58.6191 94.716 58.549 94.7505 58.4735 94.7615C58.3981 94.7726 58.3211 94.7596 58.2534 94.7246Z" fill="black"/>
<path opacity="0.2" d="M56.248 91.1087C55.0899 91.0654 53.9321 91.2038 52.8168 91.519C53.9673 91.4462 55.1128 91.3092 56.248 91.1087Z" fill="black"/>
<path opacity="0.2" d="M56.7557 91.6575C56.7557 91.6575 54.1195 91.8268 52.8732 92.5602C54.1924 92.3793 55.4921 92.0772 56.7557 91.6575Z" fill="black"/>
<path d="M47.0212 99.6072C47.3082 100 47.6705 100.332 48.0869 100.584C48.5034 100.836 48.9658 101.003 49.4472 101.074C50.7345 101.259 51.2217 100.048 50.7345 98.9302C50.2883 97.9044 49.083 96.5863 47.8521 96.9248C47.5841 97.0014 47.3394 97.1436 47.1401 97.3385C46.9408 97.5334 46.7933 97.7749 46.7108 98.0412C46.6283 98.3075 46.6135 98.5901 46.6677 98.8635C46.7219 99.1369 46.8434 99.3925 47.0212 99.6072Z" fill="#7F3E3B"/>
<path d="M53.9298 95.4375C53.9913 95.7503 54.2118 95.9504 54.4119 95.9247C54.6119 95.8991 54.7299 95.5913 54.6683 95.2836C54.6068 94.9759 54.3914 94.7707 54.1862 94.7964C53.9811 94.822 53.8528 95.1246 53.9298 95.4375Z" fill="#263238"/>
<path d="M57.2481 94.8117C57.3097 95.1246 57.5251 95.3246 57.7302 95.299C57.9354 95.2733 58.0482 94.9707 57.9867 94.6579C57.9251 94.345 57.7046 94.145 57.5046 94.1706C57.3045 94.1963 57.1814 94.4989 57.2481 94.8117Z" fill="#263238"/>
<path d="M56.2224 95.2785L56.7352 97.9044C57.2936 97.9276 57.8411 97.7451 58.2739 97.3916C57.7935 96.5148 57.0845 95.7846 56.2224 95.2785Z" fill="#630F0F"/>
<path d="M52.7399 94.6989C52.7078 94.7065 52.6744 94.7065 52.6424 94.6989C52.6192 94.6919 52.5975 94.6803 52.5787 94.6649C52.5599 94.6495 52.5444 94.6305 52.533 94.6091C52.5215 94.5876 52.5144 94.5641 52.5121 94.5399C52.5097 94.5158 52.5122 94.4913 52.5193 94.4681C52.5991 94.1804 52.7463 93.9158 52.9488 93.6964C53.1512 93.4769 53.4032 93.309 53.6836 93.2064C53.7071 93.1994 53.7319 93.1972 53.7563 93.1998C53.7808 93.2025 53.8044 93.21 53.8259 93.222C53.8474 93.2339 53.8663 93.25 53.8815 93.2694C53.8967 93.2887 53.9079 93.3109 53.9144 93.3346C53.9271 93.3822 53.9209 93.4329 53.897 93.476C53.873 93.5191 53.8333 93.5511 53.7861 93.5654C53.5646 93.6526 53.3668 93.791 53.209 93.9693C53.0513 94.1476 52.9379 94.3607 52.8783 94.5912C52.8656 94.619 52.8464 94.6433 52.8223 94.662C52.7982 94.6808 52.7699 94.6934 52.7399 94.6989Z" fill="#E0E0E0"/>
<path d="M58.8535 93.5039C58.8232 93.5097 58.792 93.5081 58.7625 93.4992C58.733 93.4902 58.7061 93.4743 58.6842 93.4526C58.5272 93.2786 58.3305 93.1448 58.111 93.0627C57.8914 92.9806 57.6552 92.9525 57.4225 92.9808C57.3982 92.986 57.3731 92.9862 57.3488 92.9815C57.3244 92.9768 57.3012 92.9672 57.2806 92.9533C57.26 92.9394 57.2424 92.9215 57.2289 92.9007C57.2154 92.8798 57.2063 92.8565 57.202 92.832C57.1942 92.7833 57.2053 92.7334 57.2329 92.6924C57.2605 92.6515 57.3026 92.6226 57.3507 92.6115C57.6492 92.5679 57.9538 92.5979 58.2381 92.6989C58.5223 92.8 58.7776 92.9689 58.9817 93.191C58.9989 93.2082 59.0126 93.2286 59.0219 93.251C59.0312 93.2735 59.036 93.2975 59.036 93.3218C59.036 93.3461 59.0312 93.3702 59.0219 93.3926C59.0126 93.4151 58.9989 93.4355 58.9817 93.4526C58.9653 93.47 58.9454 93.4835 58.9232 93.4924C58.9011 93.5013 58.8773 93.5052 58.8535 93.5039Z" fill="#E0E0E0"/>
<path d="M60.0639 112.665C55.6787 112.24 46.7904 106.398 50.2114 105.157C52.4065 107.572 56.366 108.203 58.0739 108.203C58.7098 107.598 59.315 105.885 57.761 104.362C59.5458 104.208 63.1206 109.696 60.0639 112.665Z" fill="#3E3E3E"/>
<path d="M175.268 159.43H210.057C210.601 159.43 211.123 159.214 211.507 158.829C211.892 158.444 212.108 157.923 212.108 157.378C212.108 156.834 211.892 156.313 211.507 155.928C211.123 155.543 210.601 155.327 210.057 155.327H175.268C174.724 155.327 174.202 155.543 173.817 155.928C173.432 156.313 173.216 156.834 173.216 157.378C173.216 157.923 173.432 158.444 173.817 158.829C174.202 159.214 174.724 159.43 175.268 159.43Z" fill="#3E3E3E"/>
<path d="M215.36 155.312H216.519L220.935 126.498H219.776L215.36 155.312Z" fill="#263238"/>
<path d="M197.691 155.312H198.85L203.266 126.498H202.112L197.691 155.312Z" fill="#263238"/>
<path d="M197.645 149.521H220.33C221.089 149.496 221.817 149.209 222.389 148.709C222.961 148.209 223.342 147.526 223.469 146.777L226.931 122.723C226.993 122.383 226.978 122.033 226.887 121.699C226.797 121.365 226.634 121.055 226.409 120.792C226.184 120.53 225.903 120.32 225.587 120.18C225.271 120.039 224.928 119.97 224.582 119.979H201.897C201.138 120.003 200.41 120.29 199.839 120.79C199.268 121.291 198.887 121.974 198.763 122.723L195.296 146.777C195.234 147.118 195.249 147.467 195.339 147.801C195.43 148.135 195.593 148.445 195.818 148.708C196.043 148.97 196.324 149.18 196.64 149.32C196.956 149.461 197.299 149.53 197.645 149.521Z" fill="#3E3E3E"/>
<path opacity="0.4" d="M226.931 122.723L223.469 146.777C223.377 147.36 223.125 147.905 222.74 148.352C221.91 149.331 220.432 148.798 220.607 147.603L224.31 121.897C224.479 120.702 226.11 120.169 226.659 121.148C226.921 121.629 227.016 122.182 226.931 122.723Z" fill="white"/>
<path d="M200.999 159.43H216.899C217.443 159.43 217.965 159.214 218.349 158.829C218.734 158.444 218.95 157.923 218.95 157.378C218.95 156.834 218.734 156.313 218.349 155.928C217.965 155.543 217.443 155.327 216.899 155.327H200.999C200.455 155.327 199.933 155.543 199.549 155.928C199.164 156.313 198.948 156.834 198.948 157.378C198.948 157.923 199.164 158.444 199.549 158.829C199.933 159.214 200.455 159.43 200.999 159.43Z" fill="#3E3E3E"/>
<path opacity="0.4" d="M200.999 159.43H216.899C217.443 159.43 217.965 159.214 218.349 158.829C218.734 158.444 218.95 157.923 218.95 157.378C218.95 156.834 218.734 156.313 218.349 155.928C217.965 155.543 217.443 155.327 216.899 155.327H200.999C200.455 155.327 199.933 155.543 199.549 155.928C199.164 156.313 198.948 156.834 198.948 157.378C198.948 157.923 199.164 158.444 199.549 158.829C199.933 159.214 200.455 159.43 200.999 159.43Z" fill="white"/>
<path d="M192.337 184.248H193.491L197.912 159.435H196.753L192.337 184.248Z" fill="#263238"/>
<path d="M172.267 184.248H173.421L177.837 159.435H176.683L172.267 184.248Z" fill="#263238"/>
<path d="M200.107 184.248H198.948L194.532 159.435H195.691L200.107 184.248Z" fill="#263238"/>
<path d="M220.176 184.248H219.017L214.601 159.435H215.76L220.176 184.248Z" fill="#263238"/>
<path d="M181.484 105.105C182.725 106.731 183.371 106.305 184.207 104.254C184.72 102.936 186.197 103.515 186.541 101.177C186.68 100.207 183.607 98.3404 181.925 98.843C180.243 99.3456 180.535 103.838 181.484 105.105Z" fill="#263238"/>
<path d="M184.048 115.676C183.525 115.525 182.978 115.478 182.437 115.539C181.896 115.6 181.372 115.766 180.896 116.03C180.419 116.293 179.999 116.648 179.66 117.074C179.321 117.5 179.07 117.989 178.92 118.512L178.838 118.789L178.622 119.543L178.371 120.374C178.191 120.928 178.012 121.482 177.807 122.02C177.434 123.058 176.99 124.069 176.478 125.046C176.063 125.842 175.546 126.58 174.94 127.241C174.766 127.431 174.573 127.603 174.365 127.754C174.057 127.554 173.745 127.344 173.432 127.108C172.591 126.475 171.784 125.801 171.011 125.087C170.195 124.359 169.401 123.579 168.6 122.779C167.8 121.979 167 121.138 166.236 120.369L166.144 120.276C165.806 119.94 165.363 119.729 164.889 119.68C164.415 119.63 163.938 119.744 163.537 120.003C163.137 120.262 162.837 120.65 162.688 121.103C162.539 121.556 162.549 122.046 162.718 122.492C163.172 123.668 163.702 124.815 164.302 125.923C164.9 127.035 165.558 128.114 166.272 129.154C167.015 130.24 167.838 131.268 168.734 132.232C169.714 133.306 170.825 134.252 172.042 135.048C172.535 135.358 173.105 135.527 173.688 135.535H173.996C175.155 135.541 176.304 135.323 177.381 134.894C178.366 134.498 179.285 133.953 180.104 133.278C181.476 132.133 182.643 130.762 183.556 129.226C184.37 127.886 185.057 126.473 185.608 125.005C185.879 124.292 186.121 123.585 186.341 122.861C186.449 122.497 186.556 122.133 186.649 121.764L186.782 121.205L186.921 120.574C187.153 119.545 186.985 118.467 186.452 117.558C185.919 116.648 185.059 115.975 184.048 115.676Z" fill="black"/>
<path d="M158.845 120.651L160.138 121.677C160.651 122.083 161.246 122.373 161.882 122.528L163.651 122.964C164.053 123.062 164.474 123.045 164.867 122.913C165.259 122.782 165.606 122.541 165.867 122.22C166.225 121.784 166.4 121.225 166.354 120.663C166.308 120.1 166.045 119.577 165.621 119.205C164.959 118.677 164.222 118.25 163.436 117.938L161.625 116.876C161.327 116.702 160.977 116.639 160.637 116.699C160.296 116.759 159.989 116.938 159.769 117.204L158.63 118.584C158.507 118.733 158.414 118.905 158.359 119.09C158.303 119.276 158.284 119.47 158.304 119.663C158.324 119.855 158.382 120.041 158.475 120.211C158.568 120.381 158.694 120.53 158.845 120.651Z" fill="#FFB573"/>
<path d="M194.106 112.937C189.865 113.281 185.095 113.819 181.499 115.501C180.63 115.928 179.919 116.62 179.469 117.478C179.019 118.335 178.854 119.314 178.997 120.271C179.535 124.282 179.956 127.39 180.935 130.693C183.053 137.873 177.919 141.017 182.694 146.567C184.787 148.942 197.614 151.183 206.697 148.193C207.877 143.284 207.323 133.37 205.856 122.436C205.489 119.648 204.065 117.107 201.878 115.34C199.691 113.572 196.909 112.712 194.106 112.937Z" fill="#263238"/>
<path d="M203.338 127.749C205.702 138.843 203.923 141.792 199.348 144.885C192.926 145.88 190.352 143.228 190.352 143.228L203.338 127.749Z" fill="black"/>
<path d="M188.582 129.385L194.147 129.421C194.279 129.421 194.406 129.371 194.501 129.28C194.597 129.189 194.653 129.065 194.66 128.934L194.809 126.549C194.817 126.486 194.811 126.422 194.793 126.362C194.775 126.301 194.745 126.245 194.704 126.197C194.663 126.148 194.612 126.109 194.555 126.082C194.498 126.054 194.436 126.038 194.373 126.036L188.808 126C188.676 126 188.55 126.051 188.454 126.141C188.359 126.232 188.302 126.356 188.295 126.487L188.146 128.872C188.138 128.935 188.142 128.999 188.16 129.06C188.178 129.121 188.208 129.178 188.25 129.226C188.291 129.275 188.342 129.314 188.399 129.341C188.456 129.369 188.519 129.384 188.582 129.385Z" fill="white"/>
<g opacity="0.2">
<path opacity="0.2" d="M185.572 121.759C185.534 121.758 185.498 121.747 185.467 121.726C185.436 121.705 185.412 121.675 185.397 121.641C185.382 121.594 185.386 121.544 185.407 121.5C185.428 121.456 185.465 121.422 185.51 121.405C188.664 120.287 193.147 117.399 194.552 115.573C194.565 115.55 194.583 115.531 194.604 115.515C194.625 115.5 194.65 115.489 194.675 115.484C194.701 115.478 194.728 115.479 194.753 115.484C194.779 115.49 194.803 115.501 194.824 115.517C194.845 115.533 194.862 115.553 194.875 115.576C194.888 115.599 194.895 115.625 194.897 115.651C194.899 115.677 194.895 115.703 194.886 115.728C194.877 115.753 194.863 115.775 194.845 115.794C193.234 117.881 188.572 120.707 185.613 121.748C185.6 121.754 185.586 121.758 185.572 121.759Z" fill="white"/>
<path opacity="0.2" d="M188.695 122.066H188.639C185.638 121.138 184.397 118.076 184.136 116.425C184.131 116.401 184.132 116.376 184.137 116.352C184.143 116.329 184.153 116.306 184.167 116.286C184.182 116.267 184.2 116.25 184.221 116.238C184.242 116.225 184.265 116.218 184.29 116.214C184.313 116.211 184.337 116.212 184.36 116.218C184.384 116.224 184.405 116.234 184.424 116.248C184.444 116.263 184.46 116.281 184.472 116.301C184.484 116.322 184.492 116.345 184.495 116.368C184.746 117.948 185.921 120.851 188.747 121.728C188.77 121.734 188.791 121.745 188.81 121.76C188.829 121.775 188.844 121.794 188.856 121.815C188.867 121.836 188.874 121.859 188.877 121.883C188.879 121.907 188.877 121.931 188.87 121.954C188.855 121.988 188.831 122.017 188.8 122.037C188.769 122.057 188.732 122.067 188.695 122.066Z" fill="white"/>
</g>
<path d="M191.46 107.111C191.378 109.224 191.937 112.44 193.552 113.66C193.73 113.793 193.873 113.967 193.969 114.167C194.064 114.368 194.11 114.589 194.101 114.81C194.091 115.032 194.028 115.249 193.917 115.44C193.805 115.632 193.648 115.794 193.46 115.912C192.285 116.661 189.09 118.286 187.495 118.286C185.9 118.286 184.977 116.522 185.156 115.655C185.261 115.242 185.495 114.872 185.823 114.599C186.9 113.619 186.11 112.609 185.669 111.875L191.46 107.111Z" fill="#FFB573"/>
<path opacity="0.2" d="M189.721 110.055C189.684 109.926 189.64 109.799 189.588 109.675L185.664 111.875C186.054 112.365 186.296 112.956 186.362 113.578C188.336 112.783 190.075 111.265 189.721 110.055Z" fill="black"/>
<path d="M165.728 173.283C166.374 172.606 170.575 171.319 170.575 171.319C171.673 174.471 172.579 177.688 173.288 180.951L167.862 181.494C167.862 181.494 166.969 175.996 165.728 173.283Z" fill="#FFB573"/>
<path d="M191.306 143.915C175.611 144.136 154.958 143.295 159.825 157.599C161.907 163.723 160.158 161.641 162.594 169.052C163.62 172.247 164 173.186 164.759 175.401C165.59 177.381 170.585 177.012 172.452 176.237C174.668 175.058 172.791 171.873 172.534 170.083C171.272 161.328 173.586 162.318 170.837 156.578C175.842 157.307 191.803 156.799 193.916 148.193C193.87 148.193 196.763 144.762 191.306 143.915Z" fill="#3E3E3E"/>
<path opacity="0.4" d="M191.306 143.915C175.611 144.136 154.958 143.295 159.825 157.599C161.907 163.723 160.158 161.641 162.594 169.052C163.62 172.247 164 173.186 164.759 175.401C165.59 177.381 170.585 177.012 172.452 176.237C174.668 175.058 172.791 171.873 172.534 170.083C171.272 161.328 173.586 162.318 170.837 156.578C175.842 157.307 191.803 156.799 193.916 148.193C193.87 148.193 196.763 144.762 191.306 143.915Z" fill="black"/>
<path d="M166.036 176.432L166.708 177.755C166.747 177.836 166.811 177.901 166.891 177.94C166.971 177.98 167.061 177.993 167.149 177.976C168.036 177.822 170.688 177.396 172.226 177.586C172.282 177.592 172.338 177.587 172.392 177.571C172.445 177.555 172.495 177.528 172.538 177.492C172.58 177.456 172.615 177.412 172.64 177.362C172.665 177.312 172.68 177.257 172.683 177.201C172.714 176.689 172.709 176.001 172.683 175.581C172.68 175.472 172.635 175.369 172.558 175.294C172.48 175.218 172.376 175.176 172.268 175.176C170.26 175.196 168.26 175.418 166.298 175.837C166.238 175.854 166.182 175.884 166.135 175.925C166.088 175.965 166.051 176.016 166.026 176.073C166.001 176.13 165.989 176.191 165.991 176.254C165.992 176.316 166.008 176.377 166.036 176.432Z" fill="#263238"/>
<path d="M174.468 184.387L173.868 180.571C173.847 180.483 173.795 180.404 173.722 180.351C173.649 180.297 173.558 180.271 173.468 180.279L167.903 180.304C167.455 180.276 167.01 180.395 166.636 180.643C165.385 181.669 163.441 182.694 160.62 183.207C159.727 183.382 160.107 185.151 162.2 185.141C165.662 185.141 165.518 185.018 168.467 185.008C170.99 185.008 171.621 185.12 173.627 185.141C173.733 185.153 173.84 185.143 173.942 185.111C174.044 185.078 174.138 185.025 174.217 184.953C174.297 184.882 174.36 184.795 174.403 184.697C174.446 184.599 174.468 184.494 174.468 184.387Z" fill="#263238"/>
<path d="M192.116 102.064C192.116 105.911 192.311 108.147 190.449 110.352C187.649 113.67 182.7 112.527 181.525 108.813C180.469 105.49 180.653 99.7559 184.397 97.7608C188.141 95.7657 192.121 98.2224 192.116 102.064Z" fill="#FFB573"/>
<path d="M185.023 103.762C184.997 104.11 185.161 104.403 185.387 104.418C185.613 104.433 185.823 104.167 185.849 103.818C185.874 103.469 185.71 103.172 185.484 103.156C185.259 103.141 185.049 103.413 185.023 103.762Z" fill="#263238"/>
<path d="M181.422 103.68C181.392 104.028 181.556 104.326 181.781 104.341C182.007 104.357 182.217 104.085 182.243 103.736C182.269 103.387 182.11 103.095 181.884 103.079C181.658 103.064 181.448 103.331 181.422 103.68Z" fill="#263238"/>
<path d="M191.337 105.321C189.444 106.1 189.1 105.408 189.418 103.213C189.618 101.807 188.069 101.572 188.957 99.3713C189.326 98.4686 192.921 98.3968 194.086 99.6688C195.25 100.941 192.814 104.716 191.337 105.321Z" fill="#263238"/>
<path d="M190.552 100.371C186.223 100.746 180.663 100.766 179.884 97.5864C179.371 95.4323 181.966 92.2063 185.967 95.3451C188.752 97.5198 191.454 96.176 192.814 96.6427C194.05 97.0684 196.435 99.8585 190.552 100.371Z" fill="#263238"/>
<path d="M193.357 99.8175C193.159 99.8158 192.962 99.7969 192.767 99.7611C192.736 99.7553 192.706 99.7435 192.68 99.7262C192.653 99.7089 192.63 99.6866 192.612 99.6604C192.594 99.6342 192.581 99.6047 192.574 99.5736C192.567 99.5424 192.567 99.5103 192.573 99.479C192.578 99.4477 192.59 99.4178 192.607 99.391C192.625 99.3643 192.647 99.3412 192.673 99.3231C192.699 99.305 192.729 99.2922 192.76 99.2855C192.791 99.2789 192.823 99.2784 192.855 99.2841C193.115 99.3577 193.389 99.371 193.656 99.323C193.923 99.275 194.175 99.167 194.393 99.0071C194.507 98.9124 194.599 98.7931 194.66 98.658C194.721 98.523 194.751 98.3758 194.747 98.2275C194.746 98.1957 194.751 98.1639 194.762 98.1341C194.773 98.1043 194.791 98.077 194.813 98.054C194.835 98.031 194.861 98.0127 194.89 98.0002C194.92 97.9877 194.951 97.9813 194.983 97.9813C195.015 97.9807 195.046 97.9863 195.075 97.9978C195.104 98.0094 195.131 98.0266 195.153 98.0486C195.176 98.0706 195.194 98.0968 195.206 98.1258C195.218 98.1548 195.224 98.1859 195.224 98.2173C195.234 98.437 195.193 98.6559 195.104 98.857C195.015 99.058 194.88 99.2358 194.711 99.3764C194.33 99.685 193.848 99.842 193.357 99.8175Z" fill="#263238"/>
<path d="M185.515 107.706C185.333 107.759 185.146 107.795 184.956 107.813C184.943 107.815 184.93 107.814 184.918 107.81C184.906 107.806 184.894 107.8 184.884 107.792C184.874 107.784 184.866 107.774 184.86 107.763C184.854 107.751 184.85 107.739 184.849 107.726C184.846 107.713 184.847 107.699 184.85 107.687C184.854 107.674 184.859 107.661 184.868 107.651C184.876 107.64 184.886 107.631 184.898 107.625C184.909 107.619 184.922 107.615 184.936 107.613C185.352 107.578 185.754 107.446 186.11 107.227C186.466 107.009 186.766 106.711 186.987 106.357C186.993 106.345 187.001 106.334 187.01 106.325C187.02 106.316 187.032 106.309 187.044 106.305C187.057 106.301 187.07 106.299 187.083 106.3C187.096 106.301 187.109 106.305 187.121 106.311C187.143 106.324 187.16 106.345 187.167 106.369C187.175 106.394 187.173 106.421 187.162 106.444C186.8 107.064 186.209 107.518 185.515 107.706Z" fill="#263238"/>
<path d="M186.131 101.664C186.166 101.659 186.202 101.665 186.233 101.682C186.264 101.699 186.289 101.724 186.305 101.756C186.408 101.96 186.557 102.136 186.741 102.272C186.924 102.407 187.137 102.498 187.362 102.536C187.388 102.534 187.415 102.538 187.439 102.548C187.464 102.557 187.486 102.572 187.505 102.591C187.523 102.61 187.538 102.633 187.547 102.658C187.555 102.683 187.559 102.709 187.557 102.736C187.554 102.762 187.547 102.788 187.534 102.811C187.521 102.834 187.503 102.854 187.481 102.869C187.46 102.885 187.435 102.896 187.409 102.901C187.383 102.906 187.357 102.906 187.331 102.9C187.046 102.856 186.776 102.745 186.542 102.577C186.309 102.408 186.118 102.187 185.987 101.931C185.975 101.91 185.968 101.887 185.965 101.863C185.963 101.839 185.965 101.815 185.971 101.792C185.978 101.769 185.989 101.748 186.004 101.73C186.019 101.711 186.038 101.696 186.059 101.684C186.08 101.671 186.105 101.663 186.131 101.664Z" fill="#263238"/>
<path d="M182.135 101.751C182.177 101.755 182.216 101.775 182.243 101.807C182.26 101.824 182.274 101.844 182.283 101.866C182.292 101.888 182.297 101.912 182.297 101.936C182.297 101.96 182.292 101.983 182.283 102.005C182.274 102.027 182.26 102.047 182.243 102.064C182.04 102.271 181.79 102.426 181.514 102.515C181.238 102.605 180.944 102.626 180.658 102.577C180.612 102.566 180.572 102.537 180.547 102.497C180.522 102.456 180.514 102.408 180.525 102.361C180.536 102.314 180.565 102.273 180.607 102.247C180.648 102.221 180.698 102.212 180.745 102.223C180.971 102.26 181.202 102.242 181.419 102.171C181.636 102.099 181.833 101.977 181.992 101.813C182.01 101.793 182.033 101.778 182.057 101.767C182.082 101.757 182.109 101.751 182.135 101.751Z" fill="#263238"/>
<path d="M193.686 105.818C193.256 106.648 192.52 107.277 191.634 107.572C190.444 107.942 189.813 106.885 190.095 105.746C190.362 104.721 191.306 103.29 192.516 103.418C192.779 103.451 193.03 103.549 193.245 103.704C193.46 103.858 193.634 104.064 193.75 104.302C193.866 104.54 193.921 104.803 193.91 105.068C193.898 105.333 193.821 105.591 193.686 105.818Z" fill="#FFB573"/>
<path d="M183.171 103.803C182.901 104.786 182.495 105.726 181.966 106.598C182.194 106.728 182.447 106.807 182.708 106.83C182.969 106.853 183.232 106.82 183.479 106.731L183.171 103.803Z" fill="#ED893E"/>
<path d="M181.402 172.991C181.976 172.252 186.018 170.544 186.018 170.544C187.428 173.571 188.654 176.679 189.69 179.853L184.346 180.94C184.346 180.94 182.91 175.565 181.402 172.991Z" fill="#FFB573"/>
<path d="M193.316 142.864C177.894 143.915 165.964 143.946 172.77 157.435C175.683 163.205 174.683 161.969 177.853 169.098C179.217 172.175 179.668 173.068 180.653 175.191C181.679 177.078 186.613 176.217 188.346 175.252C190.434 173.852 188.244 170.872 187.834 169.098C185.695 160.517 188.121 161.805 184.849 156.342C189.9 156.604 207.138 158.302 206.677 148.172C206.692 148.193 204.164 142.864 193.316 142.864Z" fill="#3E3E3E"/>
<path opacity="0.4" d="M193.316 142.864C177.894 143.915 165.964 143.946 172.77 157.435C175.683 163.205 174.683 161.969 177.853 169.098C179.217 172.175 179.668 173.068 180.653 175.191C181.679 177.078 186.613 176.217 188.346 175.252C190.434 173.852 188.244 170.872 187.834 169.098C185.695 160.517 188.121 161.805 184.849 156.342C189.9 156.604 207.138 158.302 206.677 148.172C206.692 148.193 204.164 142.864 193.316 142.864Z" fill="black"/>
<path d="M182.028 176.109L182.828 177.36C182.876 177.435 182.947 177.492 183.03 177.524C183.113 177.555 183.204 177.559 183.289 177.535C184.161 177.294 186.751 176.601 188.305 176.632C188.361 176.633 188.417 176.622 188.469 176.601C188.521 176.579 188.567 176.547 188.606 176.507C188.645 176.466 188.676 176.418 188.695 176.366C188.715 176.313 188.724 176.257 188.721 176.201C188.721 175.688 188.623 175.011 188.572 174.591C188.559 174.483 188.505 174.385 188.42 174.317C188.336 174.249 188.229 174.217 188.121 174.227C186.126 174.451 184.158 174.875 182.248 175.494C182.188 175.513 182.134 175.547 182.089 175.591C182.044 175.635 182.009 175.688 181.988 175.748C181.967 175.807 181.959 175.87 181.966 175.933C181.973 175.995 181.994 176.056 182.028 176.109Z" fill="#263238"/>
<path d="M191.219 182.905L190.106 179.043C190.074 178.957 190.012 178.886 189.932 178.844C189.851 178.801 189.758 178.79 189.67 178.812L184.166 179.643C183.719 179.677 183.296 179.858 182.961 180.156C181.567 181.783 179.647 182.872 177.535 183.233C176.642 183.407 177.022 185.177 179.115 185.167C182.571 185.167 182.423 184.715 185.341 184.284C187.551 183.961 188.485 183.951 190.47 183.771C190.578 183.771 190.686 183.747 190.784 183.702C190.883 183.657 190.971 183.591 191.042 183.509C191.113 183.426 191.165 183.33 191.196 183.226C191.226 183.122 191.234 183.012 191.219 182.905Z" fill="#263238"/>
<path d="M178.053 142.038L179.658 141.664C180.298 141.523 180.962 141.523 181.602 141.664L183.382 142.028C183.787 142.11 184.16 142.306 184.459 142.592C184.757 142.878 184.969 143.242 185.069 143.643C185.208 144.191 185.128 144.772 184.845 145.261C184.562 145.751 184.1 146.111 183.556 146.264C182.734 146.462 181.887 146.534 181.043 146.48L178.95 146.659C178.607 146.689 178.264 146.595 177.983 146.397C177.701 146.198 177.499 145.905 177.412 145.572L176.971 143.838C176.919 143.649 176.907 143.451 176.934 143.257C176.961 143.063 177.027 142.876 177.128 142.708C177.229 142.54 177.363 142.394 177.522 142.279C177.681 142.164 177.862 142.082 178.053 142.038Z" fill="#FFB573"/>
<path d="M203.512 123.456C203.405 122.02 203.276 120.646 203.056 119.163C202.897 118.096 202.329 117.132 201.471 116.476C200.613 115.821 199.534 115.525 198.462 115.653C197.39 115.78 196.409 116.321 195.729 117.159C195.049 117.997 194.723 119.068 194.819 120.143V120.205L195.157 124.103C195.275 125.416 195.373 126.734 195.46 128.031C195.501 128.683 195.537 129.329 195.563 129.97C195.588 130.611 195.619 131.252 195.624 131.878C195.624 132.652 195.624 133.417 195.624 134.155C195.045 134.565 194.429 134.981 193.803 135.386C192.634 136.135 191.419 136.894 190.177 137.622C188.936 138.35 187.68 139.094 186.418 139.828C185.156 140.561 183.854 141.305 182.633 142.059H182.597C182.253 142.29 182 142.635 181.883 143.033C181.766 143.431 181.792 143.857 181.956 144.238C182.31 145.331 183.007 146.116 184.125 145.869C185.638 145.536 187.08 145.131 188.536 144.695C189.993 144.259 191.424 143.772 192.855 143.238C194.286 142.705 195.717 142.141 197.137 141.464C198.646 140.787 200.099 139.991 201.481 139.084C202.188 138.602 202.683 137.868 202.866 137.032L202.933 136.725C203.251 135.203 203.462 133.66 203.564 132.109C203.682 130.621 203.702 129.175 203.697 127.729C203.692 126.282 203.615 124.877 203.512 123.456Z" fill="#263238"/>
<path d="M132.514 122.579C132.293 121.164 129.693 120.569 129.693 120.569L128.154 119.938C127.904 119.833 127.625 119.822 127.367 119.906C127.109 119.989 126.89 120.163 126.749 120.394L126.005 121.589C125.926 121.719 125.872 121.863 125.849 122.013C125.825 122.163 125.832 122.316 125.868 122.464C125.904 122.611 125.969 122.75 126.06 122.872C126.151 122.994 126.264 123.097 126.395 123.174L127.806 124.005C128.056 124.154 128.336 124.247 128.626 124.277L129.806 124.4C130.302 124.452 130.803 124.361 131.25 124.138C131.697 123.916 132.071 123.571 132.329 123.143L132.401 123.031C132.49 122.898 132.529 122.738 132.514 122.579Z" fill="#FF8B7B"/>
<path d="M150.152 111.398C149.588 113.86 148.962 118.374 150.639 120.076C147.418 120.751 144.437 122.278 142.007 124.497C140.371 121.215 142.951 119.835 142.951 119.835C145.731 119.266 145.726 117.215 145.305 115.281L150.152 111.398Z" fill="#FF8B7B"/>
<path d="M141.459 122.138C142.315 119.523 140.253 118.999 143.782 117.922C146.541 117.076 151.68 117.307 152.85 118.24C153.501 118.753 152.506 120.338 152.506 120.338L141.459 122.138Z" fill="#E0E0E0"/>
<path d="M154.445 124.544L154.27 124.759L154.122 124.944L153.824 125.282C153.629 125.503 153.424 125.708 153.224 125.918C152.819 126.323 152.403 126.713 151.973 127.093C151.117 127.848 150.203 128.534 149.239 129.144C148.762 129.457 148.259 129.729 147.767 130.011C147.275 130.293 146.741 130.524 146.228 130.755C145.178 131.216 144.092 131.593 142.982 131.883L142.838 131.919C142.633 131.978 142.419 131.997 142.207 131.975C141.434 131.9 140.678 131.697 139.971 131.375C139.408 131.126 138.859 130.844 138.33 130.529C137.352 129.945 136.408 129.304 135.504 128.611C134.622 127.927 133.767 127.224 132.94 126.503C132.124 125.764 131.334 125.031 130.56 124.221C130.343 123.998 130.214 123.704 130.198 123.394C130.183 123.084 130.28 122.778 130.473 122.535C130.666 122.292 130.942 122.127 131.247 122.072C131.553 122.017 131.868 122.075 132.134 122.236H132.16C133.057 122.749 133.965 123.318 134.873 123.831C135.781 124.344 136.689 124.856 137.591 125.369C138.494 125.882 139.402 126.318 140.284 126.708C140.698 126.895 141.123 127.058 141.556 127.195C141.834 127.292 142.124 127.348 142.418 127.359L141.643 127.452C142.493 127.13 143.32 126.753 144.12 126.323C144.923 125.898 145.697 125.422 146.439 124.898C147.185 124.375 147.901 123.81 148.582 123.205C148.926 122.908 149.254 122.6 149.572 122.282L150.034 121.805L150.249 121.574L150.424 121.384L150.562 121.23C151.018 120.775 151.629 120.509 152.272 120.483C152.916 120.458 153.545 120.675 154.036 121.093C154.526 121.51 154.842 122.097 154.919 122.736C154.997 123.376 154.831 124.021 154.455 124.544H154.445Z" fill="#FF8B7B"/>
<path d="M135.273 125.426C135.273 127.093 132.545 130.857 135.714 133.191C135.991 136.566 136.366 139.889 137.089 145.433L154.014 145.946C152.398 139.792 153.788 135.725 156.368 125.072C156.51 124.489 156.528 123.883 156.42 123.292C156.313 122.702 156.082 122.141 155.743 121.646C155.405 121.151 154.966 120.732 154.455 120.418C153.944 120.103 153.373 119.899 152.778 119.82C152.106 119.733 151.388 119.651 150.66 119.594C148.104 119.328 145.533 119.245 142.966 119.348C142.136 119.399 141.274 119.476 140.453 119.569C139.015 119.724 137.688 120.411 136.729 121.494C135.771 122.578 135.252 123.98 135.273 125.426Z" fill="#3E3E3E"/>
<path opacity="0.4" d="M135.273 125.426C135.273 127.093 132.545 130.857 135.714 133.191C135.991 136.566 136.366 139.889 137.089 145.433L154.014 145.946C152.398 139.792 153.788 135.725 156.368 125.072C156.51 124.489 156.528 123.883 156.42 123.292C156.313 122.702 156.082 122.141 155.743 121.646C155.405 121.151 154.966 120.732 154.455 120.418C153.944 120.103 153.373 119.899 152.778 119.82C152.106 119.733 151.388 119.651 150.66 119.594C148.104 119.328 145.533 119.245 142.966 119.348C142.136 119.399 141.274 119.476 140.453 119.569C139.015 119.724 137.688 120.411 136.729 121.494C135.771 122.578 135.252 123.98 135.273 125.426Z" fill="black"/>
<path d="M141.556 107.542C141.51 107.844 141.305 108.054 141.105 108.054C140.905 108.054 140.782 107.747 140.833 107.439C140.884 107.131 141.084 106.926 141.284 106.926C141.484 106.926 141.628 107.234 141.556 107.542Z" fill="#263238"/>
<path d="M141.392 106.957L140.689 106.629C140.689 106.629 140.971 107.265 141.392 106.957Z" fill="#263238"/>
<path d="M141.402 107.834C141.017 108.49 140.545 109.091 139.997 109.619C140.135 109.756 140.302 109.862 140.485 109.927C140.669 109.993 140.865 110.017 141.059 109.998L141.402 107.834Z" fill="#FF5652"/>
<path d="M141.141 105.752C141.118 105.745 141.097 105.733 141.079 105.717C141.061 105.701 141.047 105.681 141.038 105.659C141.027 105.638 141.02 105.615 141.018 105.591C141.016 105.567 141.019 105.544 141.027 105.521C141.034 105.498 141.047 105.478 141.063 105.46C141.079 105.442 141.098 105.428 141.12 105.418C141.377 105.284 141.663 105.214 141.953 105.214C142.244 105.214 142.53 105.284 142.787 105.418C142.827 105.445 142.856 105.485 142.867 105.532C142.879 105.578 142.872 105.628 142.848 105.67C142.824 105.71 142.784 105.74 142.738 105.751C142.692 105.763 142.643 105.756 142.602 105.731C142.396 105.632 142.169 105.583 141.94 105.589C141.711 105.594 141.486 105.653 141.284 105.762C141.261 105.77 141.236 105.774 141.211 105.772C141.186 105.77 141.162 105.763 141.141 105.752Z" fill="#263238"/>
<path d="M151.88 108.152C151.055 111.886 150.783 113.481 148.608 115.122C145.336 117.584 141.023 115.758 140.741 111.855C140.484 108.342 141.879 102.828 145.741 101.905C149.603 100.982 152.711 104.418 151.88 108.152Z" fill="#FF8B7B"/>
<path d="M143.013 108.998C143.715 112.481 147.116 115.348 149.68 115.24C152.244 115.132 156.024 110.27 155.917 106.629C155.809 102.987 153.26 99.7713 149.101 99.9611C144.941 100.151 139.622 100.387 143.013 108.998Z" fill="#263238"/>
<path d="M147.711 101.351C144.551 98.084 140.171 100.418 139.561 103.864C141.402 103.505 142.931 106.09 145.321 105.946C148.059 105.782 149.465 103.177 147.711 101.351Z" fill="#263238"/>
<path d="M151.362 102.033C151.793 98.9251 154.953 99.52 156.24 101.136C157.527 102.751 158.107 107.701 154.947 106.629C151.788 105.557 151.147 103.603 151.362 102.033Z" fill="#3E3E3E"/>
<path d="M154.276 103.141C153.711 99.597 156.271 91.8883 162.559 94.8528C167.759 97.3044 160.61 110.362 167.759 112.732C165.046 116.871 155.737 112.322 154.276 103.141Z" fill="#263238"/>
<path d="M168.467 114.373H168.421C164.61 112.86 164.502 106.885 164.415 102.064C164.354 98.9405 164.308 96.2427 163.287 95.5914C163.085 95.4854 162.859 95.433 162.631 95.4393C162.403 95.4456 162.18 95.5103 161.984 95.6273C161.97 95.634 161.954 95.6378 161.938 95.6383C161.922 95.6389 161.906 95.6362 161.891 95.6304C161.877 95.6247 161.863 95.616 161.852 95.6049C161.84 95.5937 161.831 95.5804 161.825 95.5657C161.813 95.5356 161.812 95.502 161.824 95.4715C161.835 95.441 161.858 95.416 161.887 95.4016C162.122 95.2709 162.387 95.2023 162.656 95.2023C162.925 95.2023 163.19 95.2709 163.425 95.4016C164.554 96.1247 164.605 98.8841 164.661 102.069C164.749 106.803 164.856 112.691 168.513 114.142C168.528 114.148 168.542 114.157 168.554 114.168C168.566 114.179 168.575 114.192 168.582 114.207C168.589 114.222 168.592 114.238 168.593 114.254C168.593 114.27 168.591 114.286 168.585 114.301C168.574 114.323 168.557 114.342 168.536 114.355C168.516 114.367 168.491 114.374 168.467 114.373Z" fill="#263238"/>
<path d="M144.674 109.501C144.161 110.342 143.931 110.706 143.279 110.932C143.077 111.017 142.854 111.041 142.638 111.001C142.422 110.961 142.223 110.858 142.064 110.706C141.906 110.554 141.796 110.358 141.747 110.144C141.699 109.93 141.715 109.706 141.792 109.501C142.059 108.629 142.89 107.398 143.843 107.485C144.062 107.515 144.269 107.602 144.443 107.737C144.618 107.872 144.754 108.05 144.838 108.254C144.922 108.458 144.951 108.681 144.923 108.899C144.894 109.118 144.808 109.325 144.674 109.501Z" fill="#FF8B7B"/>
<path d="M142.382 111.306L141.869 112.399L141.356 111.306L141.869 110.219L142.382 111.306Z" fill="white"/>
<path d="M143.428 145.7C143.428 145.7 129.165 144.967 119.769 149.219C116.845 150.542 116.394 152.752 115.876 155.917C113.717 169.206 110.357 182.587 110.357 182.587L113.558 183.536C113.558 183.536 125.492 166 123.856 156.486C146.008 161.184 153.014 153.824 153.014 153.824L143.428 145.7Z" fill="#FF8B7B"/>
<path d="M110.511 181.997C110.332 181.94 110.183 182.048 110.024 182.135C108.865 182.761 108.87 182.797 105.752 183.115C104.726 183.223 104.592 184.177 107.126 184.972L113.332 186.921C113.942 187.11 115.055 185.659 114.209 183.253C114.179 183.171 114.125 183.099 114.055 183.047C113.985 182.994 113.902 182.962 113.814 182.956C112.663 182.847 111.542 182.522 110.511 181.997Z" fill="#263238"/>
<path d="M151.814 146.869C151.814 146.869 140.469 144.977 131.083 149.188C129.653 149.826 128.47 150.912 127.712 152.283C126.954 153.653 126.663 155.233 126.882 156.784C128.79 170.119 133.55 185.777 133.55 185.777L136.889 185.726C136.889 185.726 136.643 167.108 135.006 157.594C136.894 158.209 140.11 158.225 141.777 158.148C147.931 157.855 152.957 156.194 152.193 150.085L151.814 146.869Z" fill="#FF8B7B"/>
<path d="M133.381 185.151C133.196 185.151 133.088 185.295 132.96 185.428C132.047 186.377 132.057 186.403 129.175 187.649C128.211 188.064 128.39 189.003 131.047 189.003H137.55C138.186 189.003 138.817 187.28 137.289 185.243C137.235 185.174 137.163 185.121 137.08 185.092C136.997 185.063 136.907 185.058 136.822 185.079C135.689 185.317 134.522 185.341 133.381 185.151Z" fill="#263238"/>
<path d="M137.089 145.433C137.089 145.433 128.011 145.377 121.159 148.193C121.159 157.85 125.164 161.717 125.164 161.717C125.164 161.717 162.461 168.272 154.014 145.967C149.639 144.633 137.186 145.038 137.089 145.433Z" fill="#263238"/>
<path d="M127.554 147.008C127.041 148.347 124.374 148.372 124.374 148.372L122.749 148.665C122.481 148.712 122.206 148.663 121.971 148.527C121.737 148.391 121.558 148.176 121.466 147.921L121 146.593C120.95 146.449 120.929 146.297 120.938 146.146C120.947 145.994 120.986 145.846 121.053 145.709C121.119 145.573 121.213 145.451 121.327 145.351C121.441 145.251 121.574 145.174 121.718 145.126L123.256 144.613C123.534 144.525 123.828 144.495 124.118 144.526L125.298 144.659C125.793 144.715 126.262 144.91 126.651 145.221C127.04 145.533 127.334 145.947 127.498 146.418L127.539 146.546C127.598 146.694 127.603 146.857 127.554 147.008Z" fill="#FF8B7B"/>
<path d="M141.084 125.2C140.889 126.467 140.638 127.662 140.381 128.883C140.125 130.103 139.833 131.309 139.504 132.514C138.866 134.975 138.047 137.385 137.053 139.725L136.986 139.874C136.929 140.009 136.853 140.135 136.761 140.248C136.081 141.055 135.333 141.801 134.524 142.479C133.77 143.141 132.986 143.726 132.196 144.295C131.406 144.864 130.596 145.387 129.775 145.89C128.954 146.393 128.129 146.864 127.247 147.305C126.975 147.436 126.666 147.466 126.374 147.391C126.083 147.316 125.826 147.141 125.651 146.897C125.475 146.652 125.391 146.353 125.414 146.053C125.437 145.752 125.564 145.47 125.775 145.254L127.744 143.32C128.401 142.674 129.052 142.033 129.683 141.382C130.314 140.73 130.934 140.084 131.514 139.438C132.067 138.828 132.581 138.184 133.052 137.509L132.76 138.022C133.124 136.966 133.437 135.853 133.745 134.73C134.052 133.606 134.314 132.457 134.581 131.303C134.847 130.149 135.094 128.99 135.335 127.826C135.576 126.662 135.807 125.482 136.032 124.354V124.323C136.173 123.675 136.559 123.107 137.109 122.737C137.66 122.367 138.332 122.225 138.985 122.341C139.638 122.456 140.221 122.82 140.611 123.356C141.002 123.892 141.169 124.559 141.079 125.216L141.084 125.2Z" fill="#FF8B7B"/>
<path d="M156.43 123.892C155.312 126.688 152.327 128.739 148.106 129.437C146.254 128.975 143.715 122.769 143.715 122.769C143.715 122.769 155.886 116.214 156.43 123.892Z" fill="#3E3E3E"/>
<path opacity="0.4" d="M156.43 123.892C155.312 126.688 152.327 128.739 148.106 129.437C146.254 128.975 143.715 122.769 143.715 122.769C143.715 122.769 155.886 116.214 156.43 123.892Z" fill="black"/>
<path d="M137.73 120.384C135.755 121.6 133.591 124.246 133.283 128.893C134.047 130.642 141.725 132.109 141.725 132.109C141.725 132.109 144.582 117.091 137.73 120.384Z" fill="#3E3E3E"/>
<path opacity="0.4" d="M137.73 120.384C135.755 121.6 133.591 124.246 133.283 128.893C134.047 130.642 141.725 132.109 141.725 132.109C141.725 132.109 144.582 117.091 137.73 120.384Z" fill="black"/>
<path d="M117.64 164.641H152.429C153.568 164.641 154.491 163.718 154.491 162.579C154.491 161.44 153.568 160.517 152.429 160.517H117.64C116.502 160.517 115.578 161.44 115.578 162.579C115.578 163.718 116.502 164.641 117.64 164.641Z" fill="#3E3E3E"/>
<path d="M137.863 154.732H160.533C161.292 154.707 162.02 154.42 162.592 153.92C163.164 153.42 163.545 152.737 163.672 151.988L167.134 127.929C167.196 127.589 167.182 127.239 167.093 126.906C167.003 126.572 166.84 126.262 166.615 126C166.391 125.737 166.11 125.528 165.794 125.388C165.478 125.248 165.135 125.18 164.79 125.19H142.115C141.356 125.213 140.629 125.499 140.058 125.998C139.486 126.498 139.106 127.18 138.981 127.929L135.514 151.988C135.452 152.328 135.467 152.678 135.558 153.012C135.648 153.346 135.811 153.656 136.036 153.919C136.261 154.181 136.542 154.391 136.858 154.531C137.174 154.672 137.517 154.741 137.863 154.732Z" fill="#3E3E3E"/>
<path opacity="0.4" d="M138.992 127.929L135.524 151.988C135.44 152.541 135.543 153.106 135.817 153.593C135.95 153.811 136.147 153.983 136.381 154.085C136.615 154.187 136.874 154.214 137.124 154.163C137.374 154.112 137.603 153.985 137.778 153.8C137.953 153.614 138.067 153.379 138.104 153.127L141.802 127.447C141.84 127.175 141.786 126.899 141.65 126.661C141.514 126.423 141.303 126.237 141.05 126.131C140.797 126.026 140.516 126.007 140.251 126.078C139.987 126.149 139.753 126.306 139.587 126.523C139.273 126.934 139.069 127.418 138.992 127.929Z" fill="white"/>
<path d="M157.732 160.522H158.891L163.307 131.709H162.148L157.732 160.522Z" fill="#263238"/>
<path d="M140.069 160.522H141.223L145.639 131.709H144.485L140.069 160.522Z" fill="#263238"/>
<path d="M143.372 164.641H159.292C160.43 164.641 161.353 163.718 161.353 162.579C161.353 161.44 160.43 160.517 159.292 160.517H143.372C142.233 160.517 141.31 161.44 141.31 162.579C141.31 163.718 142.233 164.641 143.372 164.641Z" fill="#3E3E3E"/>
<path opacity="0.4" d="M139.248 160.522H117.64C116.502 160.522 115.578 161.446 115.578 162.584C115.578 163.723 116.502 164.646 117.64 164.646H139.248C140.387 164.646 141.31 163.723 141.31 162.584C141.31 161.446 140.387 160.522 139.248 160.522Z" fill="white"/>
<path d="M134.709 189.459H135.863L140.279 164.641H139.125L134.709 189.459Z" fill="#263238"/>
<path d="M114.64 189.459H115.794L120.21 164.641H119.056L114.64 189.459Z" fill="#263238"/>
<path d="M142.479 189.459H141.32L136.904 164.641H138.063L142.479 189.459Z" fill="#263238"/>
<path d="M162.548 189.459H161.389L156.973 164.641H158.132L162.548 189.459Z" fill="#263238"/>
<path d="M63.7823 32.4143C58.5548 33.2694 53.8144 35.9901 50.4392 40.0725C47.064 44.1549 45.2827 49.3222 45.4255 54.6172C45.5682 59.9123 47.6252 64.9761 51.2154 68.8708C54.8056 72.7654 59.6857 75.2269 64.9516 75.7991C64.7276 77.4249 64.3743 79.0301 63.8951 80.5997C63.8951 80.5997 67.2699 78.6713 69.147 75.8453C69.7215 75.7991 70.301 75.7325 70.8806 75.635C73.7299 75.1816 76.4615 74.1697 78.9186 72.6574C81.3756 71.1451 83.5096 69.1622 85.198 66.8226C86.8864 64.4831 88.0958 61.8329 88.7568 59.0245C89.4179 56.2161 89.5174 53.3047 89.0499 50.4577C88.5823 47.6107 87.5568 44.8841 86.0322 42.4347C84.5077 39.9852 82.5141 37.8611 80.1662 36.1844C77.8182 34.5078 75.1621 33.3116 72.3504 32.6646C69.5387 32.0176 66.6269 31.9325 63.7823 32.4143Z" fill="#3E3E3E"/>
<path opacity="0.5" d="M63.7823 32.4143C58.5548 33.2694 53.8144 35.9901 50.4392 40.0725C47.064 44.1549 45.2827 49.3222 45.4255 54.6172C45.5682 59.9123 47.6252 64.9761 51.2154 68.8708C54.8056 72.7654 59.6857 75.2269 64.9516 75.7991C64.7276 77.4249 64.3743 79.0301 63.8951 80.5997C63.8951 80.5997 67.2699 78.6713 69.147 75.8453C69.7215 75.7991 70.301 75.7325 70.8806 75.635C73.7299 75.1816 76.4615 74.1697 78.9186 72.6574C81.3756 71.1451 83.5096 69.1622 85.198 66.8226C86.8864 64.4831 88.0958 61.8329 88.7568 59.0245C89.4179 56.2161 89.5174 53.3047 89.0499 50.4577C88.5823 47.6107 87.5568 44.8841 86.0322 42.4347C84.5077 39.9852 82.5141 37.8611 80.1662 36.1844C77.8182 34.5078 75.1621 33.3116 72.3504 32.6646C69.5387 32.0176 66.6269 31.9325 63.7823 32.4143Z" fill="white"/>
<path d="M69.8189 74.0553C65.785 74.7184 61.645 74.1704 57.9225 72.4806C54.2001 70.7908 51.0623 68.0351 48.906 64.5619C46.7498 61.0888 45.6719 57.0542 45.8086 52.9685C45.9453 48.8827 47.2906 44.9292 49.6743 41.608C52.0579 38.2868 55.3729 35.7471 59.2 34.3099C63.0271 32.8728 67.1945 32.6028 71.175 33.5341C75.1556 34.4654 78.7706 36.5562 81.5629 39.5421C84.3551 42.528 86.1993 46.2748 86.862 50.3088C87.7423 55.7167 86.4426 61.2529 83.2479 65.7042C80.0532 70.1555 75.2241 73.1586 69.8189 74.0553ZM63.1514 33.5375C59.1687 34.1924 55.4697 36.0136 52.5221 38.7708C49.5744 41.528 47.5106 45.0973 46.5915 49.0275C45.6723 52.9576 45.9393 57.072 47.3585 60.8504C48.7776 64.6288 51.2854 67.9016 54.5645 70.2548C57.8437 72.608 61.747 73.9361 65.781 74.0709C69.8149 74.2058 73.7982 73.1415 77.2272 71.0126C80.6563 68.8836 83.377 65.7857 85.0454 62.1105C86.7138 58.4353 87.255 54.3479 86.6005 50.3652C85.7199 45.0254 82.7569 40.2531 78.3617 37.0954C73.9665 33.9377 68.4981 32.6526 63.1565 33.5221L63.1514 33.5375Z" fill="white"/>
<path d="M64.8183 63.5207C62.471 63.9062 60.0621 63.5869 57.8962 62.6033C55.7304 61.6198 53.9048 60.016 52.6504 57.9949C51.396 55.9738 50.7691 53.6261 50.8489 51.2487C50.9288 48.8713 51.7119 46.5709 53.0991 44.6386C54.4863 42.7062 56.4154 41.2286 58.6424 40.3926C60.8694 39.5566 63.2943 39.3998 65.6105 39.9419C67.9266 40.4841 70.03 41.7009 71.6545 43.4384C73.2791 45.176 74.352 47.3563 74.7375 49.7036C75.2515 52.8508 74.4958 56.0734 72.636 58.664C70.7763 61.2545 67.9647 63.0012 64.8183 63.5207ZM60.9614 40.0409C58.6656 40.4183 56.5331 41.4679 54.8338 43.0571C53.1344 44.6463 51.9444 46.7037 51.4141 48.9691C50.8838 51.2346 51.0372 53.6064 51.8547 55.7847C52.6722 57.963 54.1173 59.85 56.0071 61.2072C57.897 62.5643 60.1468 63.3307 62.4721 63.4094C64.7974 63.4881 67.0939 62.8756 69.0712 61.6493C71.0485 60.423 72.6177 58.638 73.5807 56.5199C74.5436 54.4019 74.8569 52.0458 74.481 49.7497C73.9691 46.6727 72.2592 43.9238 69.7255 42.1043C67.1919 40.2848 64.0407 39.5429 60.9614 40.0409Z" fill="white"/>
<path d="M160.292 27.4085C159.628 25.8395 158.794 24.3482 157.804 22.9618L158.256 22.6387C159.276 24.0573 160.136 25.5848 160.82 27.1931L160.292 27.4085Z" fill="#3E3E3E"/>
<path d="M154.727 19.4486C151.852 16.7576 148.343 14.8395 144.526 13.8735L144.664 13.3606C148.57 14.3534 152.162 16.3169 155.106 19.069L154.727 19.4486Z" fill="#3E3E3E"/>
<path d="M160.738 36.4609C160.74 32.1954 159.496 28.0221 157.16 24.4532C154.823 20.8844 151.496 18.0754 147.586 16.3709C143.676 14.6664 139.353 14.1406 135.148 14.8581C130.943 15.5756 127.039 17.5051 123.916 20.4099C120.792 23.3146 118.584 27.0681 117.564 31.2098C116.543 35.3514 116.754 39.701 118.17 43.7245C119.586 47.7481 122.147 51.2706 125.536 53.8597C128.926 56.4489 132.998 57.9919 137.253 58.2995C138.981 61.1563 142.136 63.2078 142.136 63.2078C141.735 61.5675 141.473 59.8965 141.351 58.2123C146.688 57.5958 151.612 55.0391 155.187 51.0285C158.761 47.018 160.737 41.8333 160.738 36.4609Z" fill="#3E3E3E"/>
<path d="M141.628 34.794C141.629 35.3473 141.466 35.8885 141.159 36.3489C140.852 36.8094 140.416 37.1684 139.905 37.3806C139.394 37.5928 138.831 37.6486 138.289 37.5409C137.746 37.4332 137.247 37.1669 136.856 36.7757C136.465 36.3845 136.199 35.8859 136.091 35.3432C135.983 34.8005 136.039 34.2381 136.251 33.7271C136.463 33.2162 136.822 32.7797 137.283 32.4729C137.743 32.1661 138.284 32.0029 138.838 32.004C139.578 32.004 140.287 32.2979 140.811 32.8212C141.334 33.3444 141.628 34.0541 141.628 34.794Z" fill="white"/>
<path d="M151.301 38.1278C151.301 38.6806 151.137 39.2211 150.83 39.6807C150.523 40.1404 150.086 40.4987 149.575 40.7102C149.065 40.9218 148.502 40.9772 147.96 40.8693C147.418 40.7614 146.92 40.4952 146.529 40.1043C146.138 39.7134 145.872 39.2153 145.764 38.6731C145.656 38.1309 145.712 37.5689 145.923 37.0581C146.135 36.5474 146.493 36.1108 146.953 35.8037C147.412 35.4965 147.953 35.3326 148.506 35.3326C149.247 35.3326 149.958 35.6271 150.482 36.1513C151.006 36.6755 151.301 37.3865 151.301 38.1278Z" fill="white"/>
<path d="M131.97 36.4609C131.969 37.0125 131.805 37.5515 131.497 38.0096C131.19 38.4678 130.754 38.8246 130.244 39.035C129.734 39.2454 129.174 39.2999 128.633 39.1916C128.092 39.0834 127.595 38.8173 127.205 38.4269C126.816 38.0365 126.55 37.5393 126.443 36.9982C126.336 36.4572 126.392 35.8964 126.603 35.3869C126.814 34.8774 127.172 34.4419 127.631 34.1356C128.089 33.8292 128.628 33.6657 129.18 33.6657C129.547 33.6657 129.91 33.738 130.249 33.8786C130.588 34.0191 130.896 34.2251 131.155 34.4847C131.414 34.7443 131.619 35.0525 131.759 35.3916C131.899 35.7307 131.971 36.0941 131.97 36.4609Z" fill="white"/>
<path d="M184.125 67.3673C183.842 63.7917 184.594 60.21 186.29 57.0497C187.987 53.8894 190.557 51.2838 193.693 49.5439C196.83 47.8039 200.401 47.003 203.98 47.2368C207.559 47.4705 210.996 48.729 213.879 50.862C216.763 52.9951 218.972 55.9128 220.243 59.2669C221.514 62.621 221.794 66.2699 221.048 69.7784C220.302 73.2869 218.563 76.5068 216.037 79.0539C213.512 81.6011 210.307 83.368 206.805 84.1438C205.775 86.0914 204.403 87.8375 202.753 89.2982C202.926 87.7334 202.977 86.1576 202.907 84.5848C198.179 84.6229 193.613 82.8676 190.128 79.6727C186.642 76.4778 184.498 72.0807 184.125 67.3673Z" fill="#3E3E3E"/>
<path opacity="0.4" d="M184.125 67.3673C183.842 63.7917 184.594 60.21 186.29 57.0497C187.987 53.8894 190.557 51.2838 193.693 49.5439C196.83 47.8039 200.401 47.003 203.98 47.2368C207.559 47.4705 210.996 48.729 213.879 50.862C216.763 52.9951 218.972 55.9128 220.243 59.2669C221.514 62.621 221.794 66.2699 221.048 69.7784C220.302 73.2869 218.563 76.5068 216.037 79.0539C213.512 81.6011 210.307 83.368 206.805 84.1438C205.775 86.0914 204.403 87.8375 202.753 89.2982C202.926 87.7334 202.977 86.1576 202.907 84.5848C198.179 84.6229 193.613 82.8676 190.128 79.6727C186.642 76.4778 184.498 72.0807 184.125 67.3673Z" fill="black"/>
<path d="M196.588 67.5161L209.077 66.5313C209.373 66.5027 209.646 66.3595 209.837 66.1324C210.029 65.9052 210.124 65.6122 210.103 65.3158C210.074 65.019 209.93 64.7454 209.702 64.5536C209.474 64.3618 209.18 64.2672 208.882 64.29L196.435 65.2594C196.137 65.2868 195.863 65.4303 195.671 65.6589C195.479 65.8874 195.385 66.1825 195.409 66.48C195.432 66.7721 195.569 67.0435 195.789 67.2369C196.009 67.4302 196.296 67.5303 196.588 67.5161Z" fill="white"/>
<path d="M196.947 71.9269L209.436 70.937C209.732 70.9096 210.006 70.7668 210.198 70.5393C210.39 70.3119 210.485 70.0182 210.462 69.7215C210.432 69.4252 210.288 69.1524 210.06 68.9608C209.832 68.7693 209.538 68.6742 209.241 68.6957L196.753 69.6804C196.456 69.7104 196.183 69.8546 195.992 70.0825C195.8 70.3105 195.705 70.6041 195.727 70.9011C195.757 71.1973 195.901 71.4702 196.129 71.6617C196.357 71.8533 196.65 71.9484 196.947 71.9269Z" fill="white"/>
<path d="M196.24 63.1104L208.744 62.1256C209.04 62.0957 209.313 61.9515 209.504 61.7235C209.696 61.4956 209.791 61.2019 209.77 60.905C209.743 60.6081 209.601 60.3337 209.373 60.1415C209.146 59.9493 208.851 59.855 208.554 59.8792L196.065 60.8639C195.769 60.8913 195.495 61.0342 195.303 61.2616C195.112 61.489 195.017 61.7828 195.04 62.0795C195.066 62.3739 195.206 62.6464 195.43 62.839C195.654 63.0315 195.945 63.1289 196.24 63.1104Z" fill="white"/>
</svg>
